<?xml version="1.0" encoding="UTF-8"?>
<svg id="Layer_1" xmlns="http://www.w3.org/2000/svg" version="1.1" viewBox="0 0 2048 2048">
  <!-- Generator: Adobe Illustrator 29.5.1, SVG Export Plug-In . SVG Version: 2.1.0 Build 141)  -->
  <path d="M1491.89,177.26c410.83,362.88,275.26,1032.25-241.6,1207.09-514.18,173.93-1024.2-273.63-925.81-805.03C423.96,42.03,1078.95-187.47,1491.89,177.26ZM1466.44,173.81C1032.81-181.86,379.88,91.47,330.77,646.86c-45.1,509.99,451.44,895.19,934.82,717.08,499.77-184.15,614.67-850.7,200.85-1190.12Z"/>
  <path d="M1288.53,1843.63h-53.59c-.85,0-3.64-1.86-4.26-2.98-2.9-5.3-6.37-29.43-9-38.19-1.9-6.34-4.59-12.57-6.12-19.05l-64.6-.78c-2.53,1.62-16.18,48.5-21.07,56.34-1.2,1.93-1.55,3.56-4.16,4.34l-114.43.25-30.73-111.34c-.18-3.56,0-2.2,2.54-2.57,4.19-.61,9.25.55,13.64-.01,20.36-2.6,31.68-17.19,25.53-37.44-1.53-5.05-8.6-11.87-13.59-11.87h-36.57l-3.4,163.31h-52.74l6.87-90.94,1.63-114.9h104.62c15.47,0,37.2,17.77,42.34,32.51,11.31,32.39-4.25,69.96-36.46,82.44l30.87,87.3,6.43-.03,86.85-204.88c1.5-2.19,3.65-2.2,5.99-2.52,6.2-.83,58-.8,60.54.86l62.88,210.16ZM1166.05,1738.16h39.13l-10.69-46.29-5.45-11.56-22.98,57.85Z"/>
  <path d="M1296.18,1843.63l13.5-209.35,69.93.04,23.75,127.67,37.43-129.3h68.9l-5.95,210.94h-43.38l3.39-146.29-3.55,4.01-37.55,140.29c-2.6,4.08-39.34.95-46.37,2.09l-29.05-146.41-10.21,146.32h-40.83Z"/>
  <path d="M1901.79,1632.69l59.56,132.7c2.99.97,3.42-2.64,3.77-4.66,1.02-5.92,1.83-17.11,2.15-23.44,1.74-34.55.12-69.98,1.72-104.6h49.33l-11.06,210.94h-59.54l-62.96-132.7-8.49,132.7h-46.78l8.51-210.94h63.79Z"/>
  <polygon points="562.14 1632.69 558.74 1710.94 625.93 1710.94 628.48 1706.69 630.18 1632.69 684.62 1632.69 677.82 1843.63 621.68 1843.63 624.23 1755.17 557.89 1755.17 551.08 1843.63 497.49 1843.63 506 1632.69 562.14 1632.69"/>
  <path d="M247.43,1843.63h-53.59c-1.7-1.29-2.94-2.71-3.81-4.7-3.56-8.11-11.82-53.2-15.68-55.76l-64.9.23-22.77,60.23H29.68l92.63-211.97,63.06,2.7,62.06,209.27ZM165.77,1738.16l-15.33-59.54-23.8,59.54h39.13Z"/>
  <path d="M1729.13,1843.63h-55.29l-17.76-60.49-64.95.23-21.92,60.26h-56.99l-1.72-3.37c33.22-67.53,60.64-137.91,90.98-206.77,2.51-1.7,54.19-1.68,60.53-.88,1.86.23,3.82-.14,5.1,1.71l62.01,209.32ZM1608.34,1738.16h36.57l2.31-3.96c-7.65-15.48-8.06-34.34-14.3-50.48-.83-2.16.09-4.11-3.3-3.41l-21.28,57.85Z"/>
  <path d="M904.07,1843.63h-53.59l-17.66-60.26-64.91-.2-24.6,60.46h-56.99l88.85-208.85,65.98-1.27,62.92,210.12ZM783.29,1738.16h39.13l-17.84-57.85-21.28,57.85Z"/>
  <path d="M319.72,1632.69c1.33.41,2.61,2.77,2.59,4.33l-6.85,162.39,78.27-1.72c-2.3,12.22.34,30.5-1.71,41.69-.35,1.91-.86,3.18-2.55,4.25h-131.84l8.51-210.94h53.59Z"/>
  <polygon points="1800.57 1632.69 1793.77 1843.63 1737.63 1843.63 1746.14 1632.69 1800.57 1632.69"/>
  <path d="M672.71,1920.18h6.8v124.18l-6.87-2.49-72.24-106.38-.87,107.91-3.4,1.88-4.89-3.74,2.4-123.07c7.22-1.5,20.59,25.52,24.66,31.44,13.81,20.07,28.44,39.77,42.23,59.84,2.81,4.09,4.44,10.2,8.02,14.1,2.17,2.36,4.16.46,4.16-.76v-102.92Z"/>
  <path d="M1366.8,2030.76c41.35,29.57,63.56-17.8,59.51-54.43-4.44-.93-2.65.89-3.56,2.44-9.4,15.93-20.41,21.47-39.73,17.89-10.52-1.95-24.71-19.54-26.34-29.8-2.69-16.96,7.46-44.97,26.37-48.28,70.15-12.25,63.57,120.6,13.1,128.77-10.17,1.65-32.75-2.51-29.35-16.6ZM1375.8,1930.91c-2.35,2.12-10.07,15.73-10.61,19.15-1.88,11.95.78,30.16,13.1,36.01,32.07,15.22,56.88-21.79,39.28-49.49-7.73-12.17-31.39-15.02-41.77-5.68Z"/>
  <path d="M1721.62,1925.99c37.02,28.59,24.7,130.41-28.67,121.37-52.72-8.94-51.63-139.32,14.8-128.77,4.56.73,10.22,4.58,13.87,7.4ZM1692.93,1925.68c-23.02,4.9-30.94,41.96-30.21,61.78.98,26.63,23.52,69.81,54.36,45.71,12.74-9.96,19.66-38.75,18.91-54.36-1.04-21.86-15.35-59.03-43.06-53.13Z"/>
  <path d="M973.82,1920.18c24.61-1.4,50.36-3.26,74.61.25l.24,8.25h-68.05v49.33h61.24v8.51h-61.24v48.48l2.55,2.55h65.49l-2.5,7.99-69.48-1.12c-1.12-.34-2.87-3.84-2.87-4.31v-119.93Z"/>
  <path d="M375,1938.88l-15.85-8.79c-19.81-9.29-43.58-3.86-43.83,21.56-.22,22.76,29.11,24.17,45.25,31.45,38.18,17.23,19.98,68.73-20.45,64.67-14.7-1.48-25.98-10.4-36.53-19.69l3.41-7.52c5.28-1.2,2.09,2.84,4.5,5.19,15.64,15.31,53.98,22.11,61.01-5.15,8.01-31.06-26.2-29.98-44.57-38.88-14.67-7.11-23.27-19.25-20.19-36.11,4.01-21.93,23.86-29.73,44.35-27.18,8.6,1.07,28.08,9.8,22.91,20.45Z"/>
  <path d="M869.15,1932.98c4.17,4.91,5.04,7.89,1.75,14.41-43.09-53.8-96.82,1.06-79.47,57.36,9.58,31.1,42.85,46.25,69.99,25.03,5.49-4.29,5.93-8.27,10.32-12.63,3.94,21.21-26.17,32.41-43.37,30.62-55.06-5.75-63.99-101.01-15.96-124.84,18.23-9.04,43.17-5.94,56.75,10.06Z"/>
  <path d="M1505.43,1928.69c-2.92-.72-1.94-5.37-.81-7.18,3.92-6.27,38.64-1.39,46.77-1.19,9.98.24,25.74-8.1,20.43,10.14l-46.17,114.02-7.45-.11,47.62-115.67h-60.39Z"/>
  <path d="M1256.21,2041.82c-.93,3.25-7.36,3.74-8.34-.23l-.18-112.88c-.77-.56-14.41,6.06-17.94,6.72-7.19,1.34-4.83-3.94-.26-7.08,2.51-1.72,18.7-9.71,20.9-9.86,5.96-.39,5.82,4.51,5.82,9.36v113.98Z"/>
  <path d="M482.18,2044.37v-125.89l5.2.75,1.6,120.88c-.76,4.22-2.72,4.72-6.8,4.25Z"/>
  <path d="M1049.17,157.29c3.91,3.92,16.2,4.56,19.14,14.02,3.33,10.71-2.63,15.04-6.03,23.9,37.76,8.13,62.59,37.13,78.01,70.85,9.54,20.87,16.22,40.95,15.4,64.25-.97,27.62-2.13,56.99-1.7,85.19.12,7.62.9,15.36.97,23,30.93,21.24,61.91,42.43,92.85,63.66,4.52,3.1,20.72,10.69,21.73,14.07,1.89,6.35-3.12,8.52-3.17,11.59-.05,3.12,4.55,4.64,5.19,8.55.78,4.76-2.39,9.26-1.77,13.39.39,2.61,3.28,4.56,3.37,6.93.11,2.7-3.33,6.02-3.49,10.23-.14,3.96,2.23,7.37,1.56,11.47-.68,4.17-4.21,6.95-4.91,13.95-3.2,31.65,1.26,71.16,1.14,103.57l-1.15,345.71c1.26,9.77,8.43,7.68,10,9.55.6.71.45,6.51,1.59,9.48,1.91,4.99,7.82,9.18,8.57,11.84.88,3.1-.32,6.84.59,9.62.81,2.46,4.37,2.71,5.61,4.6,1.33,2.03.83,5.21,2.54,7.66,3.52,5.03,17.75,8.96,20.92,14.83.86,1.59,3.7,18.31,3.94,21.13.36,4.28-.05,26.83-1.43,28.96l-159.35,138.95c-71.69-2.2-143.6.56-215.33-.61-4.02-.07-7.74-1.76-11.77-1.84-21.37-.42-53.55,3.06-73.12-.03-3.2-.5-4.45-1.62-6.91-3.3-15.55-10.6-31.56-29.42-45.67-41.95-7.18-6.37-16.1-11.91-23.25-18.43-28.12-25.64-53.59-54.12-82.93-78.47,2.88-13.46-3.81-26.87,3.35-40.28,3.7-6.93,19.27-11.36,20.95-14.77,1.54-3.14.1-7.13,1.63-10.29,1.19-2.46,5.6-2.61,6.03-4.54.72-3.23-.93-6.69.84-10.7,1.23-2.81,7.22-5.74,8.46-8.55,2.85-6.48-2.84-12.52,7.83-14.67l1.62-290.73c-1.99-71.92-3.59-147.82-1.8-217.68.15-5.96,2.67-11.27.23-18.37,6.04-3.76,7.7-9.9,11.61-14.05,6.15-6.55,27.62-18.41,36.36-24.88,11.99-8.88,23.45-18.5,35.16-27.75.35-6.46-26,2.92-29.71,2.67-5.85-.41-7.7-4.28-10.63-4.89-4.15-.88-16.37-.47-25.21-1.94-6.03-1-20.04.91-23.45-7.29-7.88-18.94,12.72-50.01,16.82-69.25,7.91-37.15,4.38-72.57,31.44-104.73,2.82-3.35,17.24-14.72,18.27-16.52,1.2-2.11-.41-5.79,1.93-9.13s14.3-6.9,15.09-7.87.65-5.7,2.32-8.74c5.12-9.3,16.2-19.09,25.72-23.61,3.37-1.6,7.57-.64,10.72-2.89,4.27-3.06,11.72-17.74,17.32-22.27,19.22-15.57,48.44-15.46,66.65-24.75,4.06-2.07,16.43-8.73,19.81-10.81s6.99-10.31,11.78-13.74c17.78-12.72,46.72-7.08,59.44,10.32,2.64,3.61,6.54,14.67,8.26,16.4ZM1031.66,171.39c15.84-2.73,9.39-17.94,2.44-27.1-9.56-12.61-34.86-17.08-47.54-8.62-5.76,3.84-16.31,23.35-16.03,29.83.41,9.31,17,17,25.4,14.42-1.61-18.04,5-39.7,27.07-29.55,9.19,4.23,9.3,11.83,8.66,21.03ZM967,152.7c-1.66-1.8-6.81,5.72-9.31,5.07l-4.29,10.21c12.34.16,8.4-1.95,10.61-8.87.54-1.7,4.33-4.96,2.99-6.42ZM946.59,166.32c-1.91-2.79-11.99.46-14.9,1.25-22.58,6.08-49.72,15.88-58.24,39.54l8.49,1.73c-.07-9.39,13.03-18.85,20.53-22.86,11.86-6.34,25.36-5.38,36.78-10.86,2.66-1.27,10.29-4.49,7.34-8.8ZM1019.75,176.52c4.84,4.95-2.95,13.78-.98,17.01,2.96,4.84,21.28,3.96,26.55,2.59,13.46-3.51,25.67-25.94,5.89-30-3.06-.08-9.57,14.85-20.23,13.81-3.78-.37-6.98-4.28-11.22-3.41ZM1004.35,186.63c-11.42,2.66-20.47,2.55-30.42-4.28-5.12-3.52-9.61-14.24-15.1-4.67-6.67,11.64,1.8,18.57,11.49,23.58,11.97,6.19,29.58,10.91,37.89-3.13,4.68-7.89,9.96-24.49-3.77-25.03l-.1,13.52ZM948.29,190.12c-6.41.07-7.25,5.64-14.57,6.69-15.08,2.16-40.66-9.38-43.26,13.71.73.77,16.46-5.75,20.32-6.04,3.88-.29,7.32,1.24,11.13,1.1,9.18-.34,23.71-5.46,26.37-15.45ZM1031.65,203.73c-9.75,2.34-17.18-8.67-20.4,5.09.9.76,15.21-1.26,17.84-1.75,2.78-.52,2.94,1.11,2.55-3.34ZM1135.36,288.72c-.42-23.57-16.36-50.5-33.93-65.45-8.45-7.19-31.76-21.75-42.45-22.2-1.81-.08-16.18,9.95-12.63,12.96,24.08,20.45,36.8,48.62,45.76,78.15.67,2.22.9,4.51.8,6.82l42.46-10.28ZM975.52,210.54c-6.25.54-11.29-5.34-16.55-6.44-16.77-3.5-43.74,19.77-53.16,32.83-5.27,7.31-24.85,43.29-19.73,50.27l43.5,11.79c3.71-20.82,12.06-42.73,24.11-60.11,5.75-8.29,14.64-15.96,20.13-24.1.95-1.41,2.41-1.62,1.69-4.25ZM883.19,221.2c-1.62-1.57-6.09-2.54-8.63-4.13-5.71-3.59-5.86-8.68-15.15-6.15-2.33.63-20.55,15.31-21.16,17.04-.8,2.28-1.17,6.41-.54,8.58,1.22,4.21,45.48,23.61,47.64,21.62,2.01-8.95,4.95-30.1-2.15-36.97ZM915.97,212.24c-7.41.98-15.33,1.96-21.36,6.81l.96,17,3.91-2.16,16.49-21.65ZM938.09,300.69h146.3c-2.34-26.85-18.42-55-35.82-75.2-16.55-19.22-14.6-8.23-34.79-8.01-8.09.09-18.87-2.75-27.18-3.57-12.61,9.42-24.3,25.15-32.38,39.12-8.12,14.05-15.51,31.29-16.13,47.66ZM878.54,266.66c4.05-3.51-16.1-7.72-17.88-8.47-7.64-3.24-14.88-8-22.94-10.22,3.34,6.59,37.1,21.91,40.82,18.69ZM800.29,275.18l-9.78,9.77c-14.28,31.03-22.01,63.94-22.51,98.26-.21,14.57,8.53,47.56-11.92,48.47-1.72-7.61,2.56-14.61,3.3-21.4.37-3.37-.35-2.48-3.29-2.42-.16,10.83-15.77,34.72.95,37.35,10.93,1.72,14.37-5.1,18.07-14.06,11.03-26.68.67-67.77,4.99-98.78,3.01-21.63,10.21-38.2,20.2-57.18ZM819.01,275.19c-26.14,8.95-28.73,50.28-27.2,73.97.82,12.68,5.08,25.68,6.81,38.29,7.2,5.36,5.23-38.79,5.05-41.65-.41-6.51-3.13-13.69-3.43-20.37-.88-19.76,3.59-37.22,18.77-50.24ZM827.51,285.39c-13.99,2.08-16.54,18.96-20.39,30.61,2.74-4.17,23.64-27.1,20.39-30.61ZM841.12,290.49l-18.07,15.88c-8.32,11.84-10.13,24.49-10.82,38.55,6.35-6.58,11.71-17.13,16.18-25.48,4.69-8.75,11.09-19.47,12.71-28.95ZM800.65,451.65c1.89.62,3.04.8,4.73-.4,16.07-18.92,7.95-47.01,10.24-69.73,2.34-23.17,25.96-45.93,34.39-65.98,2.13-5.07,6.64-18.63.44-21.64l-37.87,70.96c-.4,10.09-2.35,26.48-6.89,35.5-1.74,3.46-4.76,2.98-5.43,6.6-1.33,7.15.86,17.56-.06,25.48-.58,4.98-4.76,7.96-3.25,15,.06.27,3.43,4.13,3.7,4.21ZM924.48,305.81c-11.14-.58-33.93-12.57-43.54-11.82-7.67.6-5.64,17.01-2.44,19.51,5.13,4.01,33.7,6.24,40.03,12.71l5.95-20.39ZM1143.48,296.03c-5.76-5.65-38.03,9.59-43.73,15.85l3.37,12.63c14.19-6.64,55.67-4.31,40.37-28.48ZM868.34,317.69c.75-.36.14-26.35-5.09-20.4,1.84,5.85,1.01,12.05,1.69,17.89.3,2.54,1.35,5.2,3.4,2.51ZM929.59,327.91h162.46c3.91,0,4.62-17.98-5.58-20.05l-96.41-.45c-11.03,1.94-52.77-3.54-58.85,3.04-4.78,5.18-3.6,11.32-1.63,17.46ZM861.52,322.8l-3.39,2.53c5.83,10.06,1.9,22.57-.53,33.51-5.4,24.4-16.93,43.52-12.97,70.17,1.57,10.56,12.5,20.87,9.29,7.74-7.73-31.63,15.68-53.56,12.75-89.22-.69-8.37-3.19-16.65-5.16-24.74ZM1147.34,322.8c-16.05-1.17-29.87,7.75-43.96,13.89l-.27,16.73c8.16-4.5,35.28-8.26,40.78-12.79,3.85-3.18,3.55-13.12,3.45-17.83ZM921.07,333.04c-15.4-4.41-29.56-8.6-45.92-6.82l3.34,14.5c11.2,3.7,23.38,5.85,34.44,9.79,3.1,1.11,5.74,6.25,6.45.4.71-5.81-.19-12.04,1.68-17.87ZM834.34,365.33c3.95-3.48,9.74-9.65,12.23-14.12,1.12-2.01,9.86-21.92,3.91-21.57-7.3,10.74-15.7,22.05-16.14,35.69ZM929.59,355.13h157.36c.39,0,1.3,1.11,2.67.88,8.78-1.43,8.56-19.85.75-21.32l-159.74-.1c-5.15,7.39-4.65,12.79-1.04,20.54ZM1147.34,350.01c-3.57-3.5-38.69,11.65-45.94,10.22l1.72,20.4,41.78-13.49c4.34-3.83,1.91-11.8,2.45-17.13ZM921.09,360.24c-15.28-3.76-30.12-7.51-45.93-8.51.36,5-1.69,11.77,2.43,15.41,2.49,2.2,34.33,11.1,39.36,11.71,3.42.41,2.1.07,2.42-2.44.67-5.31.12-10.92,1.72-16.18ZM932.32,362.31c-7.57,3.25-8.67,18.49-.19,20.04l161.77-1.54c4.59-2.72,1.28-17.82-2.05-18.77l-159.53.27ZM846.22,367.04c-3.43-3.79-11.14,16.3-11.5,18.25-1.24,6.64-1.78,20.3,2.16,25.96-.4-15.59,6.79-29.11,9.34-44.21ZM921.09,387.46l-45.93-11.93.22,15.1c15.14,3.81,27.64,9.51,43.91,6.93l1.8-10.1ZM778.19,448.68c8.06,3.38,14.26-14.07,15.2-19.66,2.89-17.13-3.05-34.99-3.32-51.78-3.09.64-3.16,3.34-3.45,5.89-1.34,11.93,2.09,25.52-.1,37.32-.79,4.23-9.82,26.83-8.33,28.22ZM1147.34,377.24c-3.22-3.21-37.37,9.65-44.01,10.44l-.21,15.08c7.09-2.32,42.17-9.45,43.95-14.72,1.04-3.08,0-7.45.28-10.79ZM824.11,384.05v43.38c0,2.08-5.63,14.48-5.12,18.69,1.4,2.06,4.43-2.83,4.72-3.79,3.84-12.82,4.92-35.53,3.79-48.91-.18-2.07-.63-9.11-3.38-9.38ZM930.44,406.16h161.61c3.76,0,5.53-13.16.92-16.22l-160.83-.79c-7.46,1.38-7.41,12.78-1.7,17.01ZM921.09,411.28l-45.92-13.62c-.02,5.6-3.83,11.93,1.78,16.08,1.65,1.22,35.2,13.57,38.53,14.21,1.31.25,2.57.49,3.89.33l1.72-16.99ZM1147.32,399.36c-1.66-1.93-42.14,12.7-43.94,15.58-1.42,2.27.37,10.02-.27,13.33,1.55,1.63,40.96-12.83,42.57-14.41,3.18-3.12,1.2-10.2,1.64-14.5ZM864.92,404.46c-4.4-.48-2.71,0-3.43,2.48-2.8,9.57-5.75,19.53.9,28.18l4.29-1.01c-.3-11.22,3.72-18.93-1.75-29.64ZM1093.75,412.97h-163.31c-4.99,0-5.63,13.56-1.01,17.6l160.92-.59c6.02-1.11,6.66-9.22,5.71-14.19l-2.31-2.82ZM830.93,446.98c13.41-.06,4.79-20.29,6.78-28.91-4.22,1.91-7.84,27.84-6.78,28.91ZM919.37,445.28l-1.65-9.39-42.55-14.41c-1.63,4.8-2.51,8.95,1.72,12.73l42.49,11.07ZM1147.33,423.17l-42.55,12.73-1.67,9.38,42.57-11.01,1.65-11.1ZM1093.75,438.48h-165.01c-4.83,0-.79,12.25,5,10.31,49.88-3.62,105.78,4.51,154.92-.1,7.92-.74,10.92-3.28,5.09-10.21ZM1251.11,516.72l-1.73-5.91-102.03-68.04c-15.58,4.23-31.61,11.77-47.65,12.74l38.22,110.2,113.19-48.98ZM885.22,564.22l34.22-104.44-1.7-3.51-49.81-12.34-101.65,69.45c-3.08,4.38,15.99,11.18,18.93,12.49,25.43,11.28,57,25.31,82.86,34.52,3.35,1.2,14.91,5.74,17.15,3.84ZM1128.62,567.77l-37.36-108.09-162.4-.88-36.34,103.44c-1.44,1.83,1.1,5.53,2.19,5.53h233.91ZM1259.6,520.15l-119.9,54.34.85,6.9c2.48,2.35,54.99-26.33,61.44-29.56,16.09-8.07,34.8-15.71,50.26-24.61,2.69-1.55,8.3-3.14,7.36-7.07ZM881.95,577.97c3.28-2.82-9.6-8.23-10.76-8.79-28.76-13.9-76.04-34.46-106.06-43.67-1.19-.36-5.98-3.44-5.62.58.1,1.11,5.65,5.36,7.28,6.3,15.75,9.05,42.27,20.22,59.55,27.21,6.47,2.61,53.39,20.29,55.61,18.37ZM1262.72,545.39c1.17-5.25,1.13-13.97-6.55-10.89l-111.19,53.51-1.04,12.08,118.78-54.7ZM874.7,588.62l-118.62-48.06c-.6,2.94,1.57,4.19,3.35,5.99,5.85,5.94,43.03,22.09,53.34,26.61,20.26,8.89,41.71,15.27,61.55,25.18,3.49-1.68,2.83-7.61.39-9.73ZM1264.7,554.17l-120.57,54.62c-.47,4.6-1.92,14.88,4.97,12.69l111-57.02,4.6-10.29ZM878.55,610.32l-122.47-54.45,6.36,11.49,110.26,54.76c3.26,1.18,4.71-9.51,5.85-11.8ZM1260.48,572.92l-114.86,56.93-.89,14.52,115.52-63.19c3.84-2.22,3.81-5.76.22-8.25ZM876.75,632.56l-120.67-57.98c-4.07,3.77,22.1,14.32,22.56,17.47l93.99,50.54c3.66,1.46,3.92-7.88,4.11-10.03ZM1130.32,574.57h-241.56v10.21h243.26l-1.7-10.21ZM759.47,589.88v456.76l119.95,92.71,4.09-2.76.23-123.89c.21-109.45.61-222.44-3.65-331.81-.29-7.54,2.42-16.67.22-25.21l-120.84-65.79ZM1137.13,591.59h-253.47l.24,10.82,4.01,2.79,243.35.08,5.13-1.67.74-12.02ZM1259.61,591.59l-122.48,67.2v480.57l118.97-87.72,3.51-5v-455.06ZM1137.13,612h-250.92c-3.7,1.81-4,14.13.13,15.11,34.17-2.34,69.25-2,103.72-1.58,5.26.06,9.89,1.81,15.15,1.86,43.96.46,87.99-.52,131.93-.07v-15.32ZM886.21,634.11l-2.28,2.82c-.82,4.45-1.37,12.18,4.32,13.85,21.44.83,42.92.11,64.37.27,27.9.21,56.59,1.64,84.92,1.84,31.21.22,62.43-.31,93.64-.06,7.08-1.34,8.94-14.09,3.39-18.72h-248.37ZM893.01,1144.46h237.31l.07-483.69c-.9-3.67-24.63-.9-29.92-1.05-49.91-1.38-99.77-1.7-149.55-1.86-19.58-.07-39.45-.43-58.87.81l-1.36,2.05,2.31,483.74ZM1269.45,1064.17c1.24-3.35.9-10.01-3.84-9.92-22.86,16.03-45.95,32.11-67.85,49.7-14.64,11.76-34.69,27.84-47.9,40.56-5.32,5.13-8.81,7.94-5.91,15.26l125.5-95.6ZM878.17,1146.49c-24.37-17.09-47.09-36.42-71.53-53.46-12.71-8.86-37.44-27.3-50.01-33.35-2.46-1.18-4.38-2.56-7.36-1.98l3.56,7.48c39.14,26.67,75.36,65.46,116.55,88.52l4.74,2.65c2.53-3.39,6.34-4.75,4.06-9.87ZM1243.21,1107.67c11.57-9.1,24.2-17.05,35.24-26.9,4.05-4.7-.9-7.96-4.38-11.06-20.37,17.57-43.5,32.21-64.18,49.3-8.02,6.63-17.08,17.24-23.37,22.79-10.27,9.06-26,19.25-35.17,28.78-1.08,1.13-3.89,4.78-3.26,6.2l3.5,3.37c30.67-24,61.04-48.43,91.62-72.48ZM772.39,1090.72c-4.07-2.99-25.17-18.98-27.63-19.21-5.83-.55-4.49,10.17-1.78,12.92l125.34,95.74,4.84-9.37c-33.62-26.21-66.43-54.88-100.77-80.08ZM867.83,1196.78c1.27-2.2.66-4.27-.37-6.36l-131.77-102.1c-8.56,10.7,6.16,18.6,14.48,25.47,36.95,30.53,76.11,58.61,112.25,90.19,4.55.81,1.41-3.46,3.05-6.36.3-.53,2.12-.43,2.36-.85ZM1283.39,1088.33l-130.22,100.24-2.4,4.32,3.38,11.1,132.36-104.06-3.12-11.6ZM1297.03,1103.64c-3.43-.73-4.54.75-6.87,2.47-6.2,4.57-13.83,12.95-20.01,17.81-38.59,30.38-78.2,59.7-116.09,91.06l-9.2,2.71-275.31-.43-141.53-111.32-6,3.68c-.04,2.71,4,5.88,6.02,7.59,43.92,37.29,92.74,69.37,136.4,106.87,97.9-.24,196.63,2.24,294.05-1.26,45.02-37.73,91.5-73.88,134.98-113.39,1.89-1.72,4.27-2.51,3.56-5.78ZM1164.34,1238.02v30.62c3.9-.57,7.88-4.42,11.02-6.85,28.82-22.3,57.45-50.88,85.56-74.82,13.08-11.14,28.95-21.25,41.24-33.14,10.53-10.19,12.1-15.77,8.55-30.53-2.79-4.18-3.41,1.32-4.72,2.41-43.2,36.06-90.01,75.42-134.94,109.69-2.29,1.75-6.51,2.32-6.71,2.61ZM722.61,1138.79c-1-.77-11.79-14.06-14.17-11.33l.51,18.27,145.76,126.32-.49-33.52c-36.63-28.4-72.61-57.9-109.48-85.3-6.26-4.65-16.29-9.92-22.14-14.44ZM998.98,1151.76c-1.96.02-4.55,1.24-7.24,1.27-34.59.39-69.21-.47-103.8-.03l-6.92,6.61c.63,10.11,6.99,5.17,13.6,5.16,73.18-.08,148.38-2.07,221.31.01,6.49.19,19.9,5.61,21.27-2.52,2.11-12.49-16.8-11.13-24.83-11.09-37.31.18-75.59.19-113.4.58ZM877.7,1186.99h261.98c4.02,0,3.29-10.12-2.59-12.72-71.32.2-143.82-3.31-215.23-.96-4.02.13-7.74,1.64-11.77,1.84-12.18.61-29.56-4.85-34.78,7.8l2.39,4.04ZM873.45,1210.8h269.63c4.91,0,3.65-13.12-2.54-16.18-87.61-2.79-175.25.39-262.84,2.56-7.06,1.78-5.3,8.01-4.25,13.61ZM854.72,1224.45c-11.63-4.28-18.51-17.5-30.61-20.43l28.09,23.79,2.51-3.35ZM1091.2,1231.22h-207.54l2.52,3.41,180.43.08,24.59-3.48ZM1157.54,1272.9c1.33-7.94-.97-18.86,0-27.22,0-5-29.72-.76-34.87-3.92-80.74,3.47-162.39-1.23-243.35,1.46-5.11.17-12.84-3.98-15.71,2.84-1.84,4.38-3.59,29.5-1.08,31.28,5.29,3.25,10.21-.11,15.06.05,31.12,1.05,62.22.27,93.73,1.59l184.23-2.09c.3-1.33,1.83-3.06,1.99-3.98ZM1159.24,1285.65h-224.55v3.4h224.55v-3.4Z"/>
  <path d="M1323.54,1051.57c-35.34-55.13,51.91-100.43,81.02-46.11,27.36,51.06-47.36,98.61-81.02,46.11ZM1386.2,1058.41c39.13-31.85-4.58-92.72-46.53-62.69-40.53,29.02,4.52,96.88,46.53,62.69Z"/>
  <path d="M905.77,669.84v28.07c8.15,2.12,7.53,8.56,13.58,13.61-5.61,4.01-5.57,11.42-13.58,9.36l.08,16.94c5.33-1.14,12.03,3.66,11.48,9.17-.28,2.85-7.43,14.52-11.68,13.98v54.13c13.1,4.82,16.45,19.9.37,23.4l-.36,14.02,13.74,8.73c-4.21,6-6.25,13.59-13.75,15.48l.12,55.11,5.19-.99,8.4,12.02c-4.28,5.14-6.45,9.9-13.67,10.32l.07,16.06c13.84-.13,12.84,12.35,5.18,21.33l-5.18-.92v57.85s5.93-.12,5.93-.12l5.94,12.92c-.08,4.96-7.55,7.41-11.69,7.79l-.3,15.78,13.72,7.89c-5.24,6.2-4.99,14.34-13.72,16.32l.1,17.68,10.14-.09c-.17-5.45,5.35-21.22,11.12-22.06l8.87,16.47-1.2,5.66,15.23-.07,9.43-23.7c6.48,2.88,8.4,22.28,12.12,23.57l12.54.21c-1.89-3.76,7.5-23.73,9.37-23.77,6.38,6.01,9.69,15.1,9.37,23.77h15.3s.8-8.54.8-8.54l8.54-15.28c5.87,6.46,9.16,14.93,9.45,23.75l12.5.19c1.13-.31,5.95-15.81,7.26-18.62,1.02-2.18,1.83-5.91,4.83-5.33,3.65.71,8.13,19.47,9.59,23.62h13.17c1.68-5.83,3.19-11.63,5.87-17.13,1.02-2.09,2.47-7.27,5.39-6.48,2.33.63,9.88,19.87,7.67,23.84h13.63s-.02-20.42-.02-20.42l-6.77,3.39-6.92-16.07c1.82-6.33,7.73-8.59,13.69-6.04v-20.4s-6.79,2.67-6.79,2.67l-6.89-8.71,9.45-16.07,4.25,6.8v-62.94l-6.77,3.39-7.01-14.49,8.61-8.64,5.16,2.73v-20.41c-19.75,4.66-13.4-12.38-4.23-22.11l4.25,5.1v-59.54l-6.78,3.4-6.86-14.48c2.57-5.97,7.07-11.02,13.62-7.63v-18.7c-3.53.8-13.69-1.39-13.76-5.92l9.53-17.89,4.24,5.1v-61.24l-6.78,5.1-7-16.21c3.12-5.41,7.1-9.06,13.8-7.61l-.8-17.17c-.67-1.15-12.24.54-12.91-7.59l6.92-16.07c4.91-1.5,2.94,4.13,6.78,5.1v-29.77c0-1.8,4.83-3.24,6.8-2.55v462.71h-226.26s.12-460.89.12-460.89l8.4-1.82Z"/>
  <path d="M1062.21,986.33c5.62,8.63,10.56,20.86,10.4,31.38-.07,4.65-7.11,35.97-13.71,31.47-11.15-21.25-14.72-39.91-.42-60.72,1-1.46-.21-3.25,3.72-2.13Z"/>
  <path d="M1062.24,754.91c12.9,19.14,14.71,48.53-3.35,64.63-10.39-22.55-14.86-40.15-.43-62.45,1.06-1.64-.18-3.06,3.78-2.18Z"/>
  <path d="M1028.22,1050.88c-4.41.83-2.62-.65-3.52-2.4-11.54-22.42-11.8-40,.17-62.23,6.05-4.39,13.23,22.66,13.59,26.34,1.41,14.22-3.77,26.14-10.25,38.28Z"/>
  <path d="M1024.88,817.83c-11.35-21.25-14.52-43.54,2.52-62.9,12.15,15.14,14.87,38.97,5.19,56.19-1.7,3.02-3.61,7.24-7.71,6.71Z"/>
  <path d="M1024.87,933.51c-7.26-17.51-12.65-30.67-6.32-49.67,2.42-1.94,5.64-14.49,8.83-13.25,7.22,2.81,11.5,26.06,11.16,33.2-.19,4.02-7.09,34.51-13.67,29.72Z"/>
  <path d="M1096.27,754.91c10.76,20.15,14.73,47.38-3.35,64.63-9.17-20.18-14.75-33.56-4.95-55.1.82-1.8,5.6-11.77,8.3-9.52Z"/>
  <path d="M956.83,817.84c-9.73-21.37-12.75-43.11,2.53-62.91,12.4,12.56,13.79,33.37,8.88,49.68-.96,3.19-6.69,17.16-11.41,13.23Z"/>
  <path d="M1062.24,870.59c13.45,20.48,12.43,42.23,0,62.93-17.7-17-15.96-42.01-3.52-61.88l3.51-1.05Z"/>
  <path d="M924.51,1049.19c-4.43-10.2-10.37-19.64-10.28-31.39.04-4.96,6.85-33.05,12.79-31.55,8.68,2.19,10.44,36.02,9.45,43.45-.42,3.14-8.14,22.38-11.96,19.48Z"/>
  <path d="M990.85,933.52c-9.23-21.21-14.68-43.88,2.53-62.91,9.38,8.69,12.34,26.04,11.06,38.26-.39,3.74-8.34,29.37-13.6,24.65Z"/>
  <path d="M990.85,817.83c-10.46-20.12-13.28-44.93,2.53-62.9,12.22,14.53,14.45,37.04,6.63,54.23-.95,2.1-6.41,10.67-9.16,8.67Z"/>
  <path d="M1096.27,986.27c13.11,20.8,10.39,43.4.01,64.63-16.89-16.59-17.04-44.38-3.52-63.57l3.51-1.06Z"/>
  <path d="M990.84,1049.19c.39-6.43-4.9-10.63-6.66-16.32-3.54-11.48-2.18-24.11,1.92-35.18,4.23-8.58,5.17-18.18,12.47-4.72,7.72,14.22,7.99,32.52,1.07,47.17-.86,1.81-6.34,11.3-8.8,9.05Z"/>
  <path d="M961.88,933.51c-3.39,2.53-10.04-12.69-10.89-15.46-4.9-16.08-2.76-34.47,8.36-47.45,16.35,17.62,13.48,43.28,2.53,62.91Z"/>
  <path d="M961.88,1049.19c-3.52,2.73-10.21-14.59-10.95-17.09-5.83-19.54-.16-27.91,5.89-45.85,8.07,1.46,12.8,15.58,13.61,22.96,1.7,15.42-1.62,26.6-8.54,39.98Z"/>
  <path d="M1096.27,870.59c10.65,16.59,13.07,44.86.52,60.78-1.08,1.37.03,3.14-3.86,2.13-11.51-20.58-14.25-41.63-.17-61.86l3.51-1.06Z"/>
  <path d="M924.51,817.83c-4.98-10.6-10.39-20.94-10.36-33.16.01-5.11,7.46-29.17,12.86-28.06,6.03,1.23,10.11,24.38,10.12,29.76,0,9.69-2.38,27.96-12.62,31.47Z"/>
  <path d="M929.5,872.36c8.71,17.23,12.82,46.14-4.14,59.46-12.4-14.27-14.46-40.8-3.27-55.98,2.08-2.82,3.47-4.3,7.41-3.47Z"/>
  <path d="M1062.24,702.15l-7.01-7.48-6.57-24.82c19.96.57,28.34-5.57,20.31,17.74-1.75,5.09-5.31,9.34-6.72,14.56Z"/>
  <path d="M970.42,669.83c.95,11.43-2.52,24.55-11.06,32.3-2.65-.02-13.91-29.47-11.05-32.29h22.12Z"/>
  <path d="M1096.27,702.15c-3.82.92-2.75-.58-3.87-2.11-2.89-3.93-12.12-26.96-9.69-30.2l23.06,1.65c-.17,11.14-5.16,20.75-9.5,30.66Z"/>
  <path d="M1004.45,669.83c.97,8.19-1.58,15.76-5.11,22.98-1.76,3.6-2.79,8.87-7.56,7.71-3.3-.99-11.52-28.6-9.46-30.68h22.13Z"/>
  <path d="M1029.78,700.28l-4.67-.14c-2.18-1.28-9.71-23.37-9.82-26.79-.17-5.04,15.13-4.22,18.91-3.51,10.94,2.04-2.84,24.39-4.43,30.44Z"/>
  <path d="M936.4,669.83c.77,8.49-.5,16.37-4,24.11-1.44,3.17-2.59,8.21-6.91,6.39-7.08-7.71-9.11-18.12-10.77-28.01.81-4.53,17.44-1.74,21.68-2.48Z"/>
  <path d="M1079.27,761.7c-2.19.36-2.17.46-3.52-1.06-5.4-6.07-10.86-20.13.95-22.72l10.97,7.86-8.4,15.92Z"/>
  <path d="M1079.27,812.74l8.08,14.44c-.46,2.01-1.66,3.64-2.98,5.17-.64.74-6.63,6.26-7.57,5.86-14.22-10.2-4.2-12.64-.91-24.37l3.38-1.1Z"/>
  <path d="M1079.26,993.05l-3.52-1.06c-2.37-6.48-9.32-9.87-5.78-17.61,3.56-7.79,10.62-5.25,14.54.74,4.22,6.46-5.01,10.65-5.23,17.92Z"/>
  <path d="M1011.21,759.99l-3.48-1.04-6.79-11.79c-.46-4.61,4.75-8.1,7.98-10.85l10.7,9.47-8.42,14.21Z"/>
  <polygon points="1011.21 1045.81 1019.63 1060.02 1008.92 1069.48 1001.06 1060.29 1007.73 1046.85 1011.21 1045.81"/>
  <path d="M1045.23,1108.72c-4.43.85-2.62-.7-3.52-2.41-2.41-4.57-7.46-11.81-5.09-15.47,6.07-9.37,11.66-5.95,16.89,1.98l-8.28,15.9Z"/>
  <path d="M977.2,928.41l6.91,16.08-9.26,9.37-7.82-10.98c0-1.06,5.37-9.94,6.62-12.02.91-1.52-.88-3.36,3.55-2.44Z"/>
  <path d="M1079.27,1044.09l6.95,16.12c-3.06,9.99-18.16,9.03-17.2-1.54.08-.92,5.42-10.8,6.46-12.39,1.07-1.66-.18-3.03,3.79-2.19Z"/>
  <path d="M950.7,825.73c.68.92,3.74-.14,2.66,3.09l-11.03,9.01-9.04-8.93,9.06-14.44c3.7,3.08,5.59,7.49,8.35,11.26Z"/>
  <path d="M1045.24,993.05c-4.43.82-2.62-.67-3.53-2.41-6.49-12.49-10.37-12.27,2.7-23.06,13.62,10,5.55,13.85.83,25.48Z"/>
  <path d="M983.48,982.39c-.16.38-2.06.65-2.66,1.87-.75,1.54-3.81,11.74-6.98,8.8l-6.43-15.85c3.68-13.56,20.76-5.93,16.07,5.18Z"/>
  <path d="M949.2,716.73c-7.77,10.11-9.78.88-15.95-5.2l9.11-12.77,10.21,11.92c.72,2.06-2.19,4.5-3.38,6.05Z"/>
  <path d="M949.25,857.75c1.13.83,4.65,3.25,3.97,4.91l-11.71,14.71-6.51-13.17c2.27-10.18,5.21-13.13,14.25-6.45Z"/>
  <path d="M1015.28,1089.38c1.31,1.29,3.32,1.69,4.47,3.22l-.06,1.57c-4.23,3.24-5.72,7.86-8.28,12.12-.91,1.52.87,3.36-3.55,2.44l-6.71-18.63,4.7-.37,1.13-4.85c6.12-1.25,5.68,1.92,8.3,4.5Z"/>
  <path d="M977.2,1044.09l6.81,14.46-9.11,10.94-7.86-9.2c-.03-1.33,5.36-11.36,6.64-13.78.9-1.7-.92-3.25,3.53-2.42Z"/>
  <polygon points="977.19 814.45 984.11 828.81 974.9 838.13 967.03 828.94 973.71 815.5 977.19 814.45"/>
  <path d="M1045.23,814.45l7.91,14.45c.48,2.99-8.54,9.5-10.2,9.23l-7.91-9.21,6.84-13.31,3.36-1.16Z"/>
  <path d="M977.19,759.99l-3.51-1.06-6.63-13.44,7.85-9.18c14.54,6.75,7.22,13.09,2.28,23.68Z"/>
  <path d="M977.19,697.06l6.87,14.48c-2,3.44-4.66,10.51-9.36,9.42l-7.87-7.7c.12-3.19,4.87-10.52,6.81-13.77.91-1.52-.87-3.37,3.54-2.43Z"/>
  <path d="M977.19,877.37c-3.95.87-2.71-.51-3.78-2.17-6.07-9.48-9.69-14.31,1.49-21.51,14.7,7.12,7.67,13,2.28,23.68Z"/>
  <path d="M1013.9,971.68c1.66,1.21,3.44,3.89,5.39,5.11l-8.89,16.27-9.47-17.68,7.75-7.64c1.78,1.26,3.47,2.67,5.22,3.95Z"/>
  <path d="M977.19,1108.73c-3.01,2.88-2.86-1.12-3.53-2.41-1.71-3.29-6.8-11.32-6.84-13.76l9.54-7.7c2.86-.03,7.5,4.97,7.75,7.81.07.87-6.28,15.46-6.92,16.07Z"/>
  <path d="M1045.23,697.07l8.2,14.47-8.99,9.44c-14.2-7.32-8.23-10.9-2.73-21.51.9-1.74-.89-3.23,3.52-2.4Z"/>
  <path d="M1079.26,697.06l6.82,14.5-9.28,9.27c-11.84-8.61-7.43-12.35-1.06-22.7l3.52-1.06Z"/>
  <path d="M1011.21,877.37c-4.41.95-2.63-.9-3.54-2.42-2.31-3.86-4.52-8.08-6.66-12.05,3.24-7.44,9.02-12.45,15.3-5.04,5.43,6.41-3.81,13.21-5.11,19.51Z"/>
  <path d="M947.22,740.66c2.09,2.1,5.22,1.47,4.28,6.22-.19.98-4.4,8.74-5.32,10.16-5.06,7.81-6.69-3.33-9.79-7.74-1.26-1.8-4.78-.18-3.37-4.57l9.33-8.54c2.82-.75,3.36,2.97,4.86,4.47Z"/>
  <path d="M1079.27,928.41l6.55,15.92c-4.04,5.95-9.78,11.94-15.13,3.73-3.36-5.15,1.62-12.54,4.79-17.47,1.07-1.66-.18-3.04,3.79-2.19Z"/>
  <path d="M950.67,941.43c.69,1,3.27.05,2.72,1.43l-7.97,9.39c-5.86,1.03-8.8-4.08-12.39-7.75l8.48-14.39c3.09-2.31,7.36,8.71,9.16,11.32Z"/>
  <path d="M1037.3,1064c-5.45-6.5,3.68-14.61,7.95-19.9l6.59,17.47c-3.15,6.69-9.6,8.32-14.53,2.43Z"/>
  <path d="M1011.21,814.45l6.92,14.36-9.21,9.32-7.91-9.2c2.14-3.98,4.35-8.19,6.66-12.05.91-1.52-.87-3.37,3.54-2.42Z"/>
  <path d="M1079.26,877.37c-4.05.94-2.74-.72-3.77-2.21-6.49-9.38-9.72-14.05,1.48-21.47,15.24,7.3,6.32,12.63,2.29,23.69Z"/>
  <path d="M1079.26,1108.73c-3.12,2.92-5.89-7.26-6.83-8.97-.61-1.11-3.18-1.12-3.4-2.34-1.04-5.66,4.11-9.26,7.95-12.38,15.49,7.4,5.69,12.34,2.29,23.68Z"/>
  <path d="M1045.25,928.42l8.09,14.44c-3.33,8.97-10.97,13.33-16.67,3.49-3.41-5.87,4.56-12.93,8.58-17.93Z"/>
  <path d="M949.46,1088.83c1.56,1.87,2.48,4.27,1.92,6.73l-9.02,11.46-8.51-13.59c3.47-6.21,9.81-11.53,15.61-4.6Z"/>
  <path d="M949.29,1063.87c-.44.76-3.17,2.75-3.87,4.06-5.65,1.02-8.95-3.94-12.14-7.66l9.09-14.47c2.9-.78,10.63,11.7,6.92,18.07Z"/>
  <path d="M1045.23,759.99l-3.48-1.05-6.72-13.47c5.34-9.59,12.52-9.46,18.33.06l-8.13,14.47Z"/>
  <path d="M946.25,969.63c.44.25,5.27,7.73,5.19,8.65-.08.99-4.17,9.02-5.09,10.27-5.63,7.64-8.56-6.14-13.1-9.97l6.88-8.96h6.12Z"/>
  <path d="M1011.21,697.07c.61.52,6.78,13.65,6.78,14.45-.02,6.93-9.05,12.23-14.72,5.44-4.6-5.5,1.25-11.39,4.42-17.49.7-1.36.4-5.08,3.52-2.4Z"/>
  <path d="M1011.21,930.13l6.98,14.44c-10.52,17.69-23.31.71-10.5-13.38l3.51-1.06Z"/>
  <path d="M1045.24,877.38l-10.21-14.48,7.92-9.21c15.24,7.3,6.31,12.62,2.3,23.69Z"/>
  <path d="M968.7,1074.74c-5.01,12.81-10.66,11.98-18.69,2.5l6.82-9.32,11.87,6.83Z"/>
  <path d="M923.11,968.82c-.46-.2-5.9-7.01-5.13-8.68l8.82-7.79,7.76,9c-2.62,2.95-6.78,9.54-11.46,7.47Z"/>
  <path d="M964.56,956.42c1.28,1.01,4.8,3.32,4.09,5.07l-7.82,7.56-10.78-6.65c-2.13-3.3,7.17-5.95,6.95-9.97,2.5-.92,5.76,2.56,7.57,3.99Z"/>
  <path d="M1062.24,836.56l6.47,9.3-8.92,9.35-7.47-8.97c1.08-1.78,7.54-11.67,9.92-9.68Z"/>
  <path d="M936.39,731.05l-9.33,6.44c-11.61-5.14-11.63-10.91-.26-16.49l9.59,10.05Z"/>
  <path d="M1096.27,952.24l6.81,9.35-9.3,9.34-7.45-9.02c1.38-2.04,6.92-11.8,9.95-9.66Z"/>
  <path d="M956.85,737.86l-6.84-10.15,10.8-6.71c10.36,6.6,6.94,14.19-3.96,16.86Z"/>
  <path d="M1062.9,966.54c-.96.74.12,3.71-3.11,2.65l-7.6-7.84,7.77-9,9.01,7.74c.63,2.78-4.1,4.93-6.07,6.45Z"/>
  <path d="M929.36,1084.68c-3.94,2.29-9.12-4.87-11.61-7.51l9.31-8.89,7.52,7.52-5.21,8.88Z"/>
  <path d="M1032.36,958.41c.73.96,3.71-.12,2.66,3.11l-7.67,7.67-9.25-7.77,7.82-9.08c2.78-.63,4.93,4.1,6.45,6.07Z"/>
  <path d="M1018.19,843.54l10.04-6.99,6.71,10.82c-5.42,9.83-15.42,6.58-16.74-3.82Z"/>
  <path d="M994.84,735.16c-.6.51-.63,1.85-.63,2.69h-3.34l-6.79-7.78,7.84-9.07,9.01,7.74c.66,2.92-4.14,4.78-6.09,6.42Z"/>
  <path d="M1062.18,720.98l6.79,9.04-9.23,7.9-7.7-9.39c4.75-1.49,4.93-8.19,10.14-7.56Z"/>
  <path d="M1022.54,733.39c-1.91-1.8-5.35-1.87-4.45-5.67l9.21-6.78,7.63,9.05-7.6,7.85c-2.99.64-3.25-3.01-4.79-4.46Z"/>
  <polygon points="1096.27 720.91 1103.07 731.05 1093.98 737.76 1086 730.26 1092.9 721.91 1096.27 720.91"/>
  <polygon points="994.2 1067.92 1001.01 1077.22 991.91 1084.8 984.07 1075.72 990.86 1067.94 994.2 1067.92"/>
  <path d="M1062.24,1067.95l6.76,9.22-9.05,7.63-7.93-9.22c3.55-.54,7.25-9.55,10.22-7.63Z"/>
  <path d="M964.37,842.67c.76,1.08,4.07.18,2.39,4.61-3.5,9.19-10.29,6.5-14.92.17l4.98-10.9c3.7-.57,5.66,3.43,7.55,6.12Z"/>
  <polygon points="994.12 952.31 1001 962.4 991.8 969.2 985.07 962.43 984.06 959.06 994.12 952.31"/>
  <path d="M1028.22,1067.94l6.45,9.36-8.73,7.49c-1.88-1.45-9.53-7.72-7.88-10.05l10.17-6.8Z"/>
  <path d="M934.52,843.59c-1.72,11.06-11.58,13.44-16.37,2.3l7.42-7.53,8.95,5.22Z"/>
  <path d="M1000.97,846.66l-9.08,6.79-7.9-9.23,7.68-7.64c3.48,3.08,8.11,5.13,9.3,10.09Z"/>
  <path d="M1096.27,855.25c-11.2-4.23-12.9-9.79-2.4-16.94,9.95,5.63,7.04,9.16,2.4,16.94Z"/>
  <path d="M1096.29,1067.91c-1.33,5.8,3.78,5.65,6.78,9.35l-9.24,7.59-7.8-5.95c.05-2.16,8.26-13.18,10.26-11Z"/>
  <path d="M771.38,601.79v30.62l4.23-.14c2.51,10.68,17.6,25.05-4.22,20.55-3.35,13.62,7.36,18.26,11.72,29.52l-11.84,8.95c-.64,2.27-.55,44.65.08,47.08.4,1.56,3.63,1.77,4.76,4.05,1.21,2.43,7.34,17.02,7.19,18.4l-11.92.88c.34,3.53-.66,7.73-.04,11.1.74,4.03,3.93,3.45,5.17,5.46,5.78,9.37,11.07,14.51-.92,20.83l-4.2-3.37-.16,48.54c6.7,6.67,8.3,15.13,12.11,23.68l-11.95,2.64-.12,12.64c7.06,1.06,9.34,10.67,12.16,16.96l-8.03,5.99-5.7-3.28,1.56,51.8,4.88,1.17,7.13,19.27c-3.05,4.29-7.76,2.84-11.88.91.5,4.02-.74,9.05-.15,12.81.36,2.34,13.1,13.64,12.19,20.18l-7.82,6.12-5.93-3.38c2.78,8.88,3.34,18.6-.02,27.2-11.15-2.97-5.32-18.59-5.25-26.18.99-105.51-1.81-210.78-1.61-316.67.04-23.6,2.24-47.41,1.77-71.37-.16-8.28-7.71-24.98,6.82-22.97Z"/>
  <path d="M793.47,970.94c-5.95,4.48-13.25-26.29-13.57-29.78-1.08-11.66-.38-22.13,9.35-29.75,9.48,19.29,16.01,39.64,4.22,59.53Z"/>
  <path d="M793.3,861.86l-4.79.12c-5-14.29-10.03-25.75-8.44-41.41.65-6.36,5.44-24.37,11.82-12.17,8.87,16.98,11.47,36.5,1.41,53.46Z"/>
  <path d="M851.32,846.76c3.45,15.15,8.86,27.17,6.86,43.42-.41,3.31-6.27,19.04-10.22,16.11-5.7-16.05-19.01-52.71,3.37-59.54Z"/>
  <path d="M851.32,736.17c3.24,14.8,8.64,25.78,6.82,41.69-.37,3.23-5.65,21.28-10.19,17.85-5.04-14-9.91-28.01-8.49-43.36.68-7.41,2.95-16.74,11.87-16.19Z"/>
  <path d="M851.3,1018.56c-3.21,2.77-5.15-6.83-5.82-8.59-5.74-15.16-12.35-42.43,3.31-52.59,9.55,19,14.9,42.38,2.51,61.19Z"/>
  <path d="M820.7,714.07c5.15,20.41,15.63,42.11.84,61.23-5.1,1.33-10.7-21.87-11.11-26.29-1.16-12.43-1.94-27.99,10.26-34.95Z"/>
  <path d="M787.56,695.36c3.09-.66,3.33,2.4,4.17,4.31,7.78,17.84,13.23,39.01-.79,55.19-11.45-7.48-15.5-56.91-3.38-59.5Z"/>
  <path d="M820.7,824.64c4.5,17.34,12.61,32.76,5.92,50.98-7.97,21.7-15.29-8.13-16.18-17.74-.95-10.22-1.92-30.11,10.27-33.25Z"/>
  <path d="M820.69,935.22c6.24,18.93,15.88,43.28-.83,59.51-8.26-13.52-11.51-32.99-9.45-48.54.65-4.92,4.94-10.31,10.28-10.97Z"/>
  <path d="M790.07,1020.28c4.34,13.3,9.98,26.52,10.22,40.81l-19.53-11.94c-3.95-3.74-1.34-29.4,9.3-28.87Z"/>
  <path d="M829.21,1083.21c-2.84-.86-18.17-10.47-18.74-11.41-6.07-9.92,3.48-37.06,9.85-24.76,2.15,4.15,10.66,34.13,8.89,36.17Z"/>
  <path d="M851.3,683.44c-4.39.81-2.62-.6-3.53-2.39-2.49-4.93-11.5-29.78-8.34-33.31l20.15,11.36c0,9.27-4.51,16.39-8.28,24.34Z"/>
  <path d="M851.32,1069.6l6.81,35.72-12.71-8.54c-13.14-7.15-7.95-27.18,5.91-27.18Z"/>
  <path d="M820.68,664.72c-3.34,2.91-2.76-1.22-3.36-2.55-4.91-10.84-8.03-22.94-8.5-34.87l20.15,13.08c.79,3.21-6.02,22.36-8.29,24.34Z"/>
  <path d="M798.1,621.02c4.25,5.55-3.1,17.18-4.81,23.09l-4.79.12c-2.66-10.77-9.47-20.83-8.61-32.22.92-1.05,17.01,7.44,18.21,9.01Z"/>
  <path d="M864.92,800.83l6.83,19.65c-7.86,13-11.89-5.48-17-10.3l10.16-9.35Z"/>
  <path d="M809.41,925.62c-1.85,1.96-1.82,5.33-5.7,4.49l-6.82-22.09,7.5-1.44,9.37,14.43-.68,2.35c-1.11.86-2.74,1.27-3.68,2.27Z"/>
  <path d="M861.55,749.78c2.82-5.61-11.4-21.26-.83-22.22,6.7-.61,8.45,8.07,11.03,12.92.11,2.9-8.7,11.12-10.2,9.3Z"/>
  <path d="M807.1,979.46c-1.07,7.33,3.91,13.16,6.54,19.59l-9.93,4.23-6.95-17.71,10.34-6.11Z"/>
  <path d="M807.1,651.12c-1.4,8.31,5.68,14.23,6.81,22.11-10.53,4.11-13.84-6.03-17.15-14.31,5.73-1.53,5.46-8.32,10.34-7.8Z"/>
  <path d="M864.93,688.54c-1.4,7.4,7.97,14.48,6.91,21.19l-7.59,2.36-9.5-15,10.18-8.55Z"/>
  <polygon points="806.77 799.37 813.71 813.35 803.71 821.23 796.88 801.72 806.77 799.37"/>
  <path d="M834.3,890.99c.87,8.11,12.13,18.06,2.37,23.72-4.43.77-8.72-11.39-10.59-14.68l8.22-9.04Z"/>
  <path d="M871.27,856.57c-.2.54-7.9,6.83-9.72,5.49l-5.11-20.39,8.52-1c2.3,4.89,8.34,10.4,6.31,15.9Z"/>
  <polygon points="806.88 1017.14 814.02 1032.92 803.71 1038.98 796.89 1019.47 806.88 1017.14"/>
  <path d="M806.95,688.66l6.39,12.63c-.21,2.21-7.82,11.07-9.63,9.38l-6.82-20.4,10.06-1.61Z"/>
  <path d="M807.09,870.58l6.88,19.48c-11.1,9.52-10.26-3.5-16.86-10.45-.42-2.79,8.48-10.65,9.98-9.04Z"/>
  <path d="M864.85,1062.83c.43,6.31,8.09,11.78,6.99,17.79-.14.76-8.05,2.04-7.75,5.99l-9.33-19.56,10.08-4.22Z"/>
  <path d="M871.75,1047.48l-9.07.18c-6.12-10.87-8.26-14.63,1.42-23.98l7.65,23.8Z"/>
  <path d="M840.65,836.13c-.1.25-3.53,3.23-4,3.59-1.33,1.02-.79,3.26-3.19.24-1.37-1.72-7.62-17.98-6.94-18.8l7.66-3.27c1.54,6.39,9.58,10.91,6.48,18.23Z"/>
  <path d="M864.92,913.1l6.83,22.11-9.96-.26-4.74-11.59c-.49-2.55,3.72-10.84,7.88-10.26Z"/>
  <path d="M832.63,729.38l-6.26-17.89,5.43-4.31,9.51,12.85c1.28,3-6.56,11.31-8.68,9.36Z"/>
  <polygon points="813.87 782.05 807.96 784.83 804.78 783.9 797.12 770.7 804.55 761.73 813.87 782.05"/>
  <path d="M834.3,669.84c.87,8.11,12.12,18.06,2.38,23.72-8.85-5.88-14.88-17.8-2.38-23.72Z"/>
  <path d="M841.12,802.51l-9.05.16-5.61-10.32,4.49-10.22c4.69-3.44,10,17.36,10.17,20.38Z"/>
  <path d="M832.64,950.52l-6.87-19.41c9.62-7.78,12.22,4.29,15.33,11.81.17,2.57-6.3,9.16-8.45,7.6Z"/>
  <path d="M871.5,968.97c-.22.38-6.9,4.51-8.31,2.9l-6.74-19.63c8.58-5.02,17.24,12.98,15.05,16.73Z"/>
  <path d="M834.29,1003.28l8.49,17.86-6.22,3.99c-2.41.26-3.44-1.61-4.71-3.23-4.69-6-7.61-13-.93-17.59l3.37-1.02Z"/>
  <path d="M840.64,1057.27c-.39,1.05-6.12,5.36-8,3.83l-6.12-16.89,2.69-4.46c5.38-2.61,13.45,12.07,11.43,17.53Z"/>
  <path d="M813.24,799.72c-.67-.98-4.16.24-2.73-3.98l8.52-2.7,8.46,13.74c-7.5,7.42-10.42-1.48-14.25-7.06Z"/>
  <path d="M783.3,773.62c9.05-5.11,17.7,13.89,11.01,15.31-5.26,1.11-11.9-10.31-11.01-15.31Z"/>
  <path d="M794.12,888.76c.22.51,8.01,5.53-1.52,7.39-4.52.88-10.04-10.07-9.31-12.74.68-2.48,5.21-3.34,7.5-2.51,3.02,1.1,2.18,5.24,3.32,7.86Z"/>
  <path d="M820.56,903.01l6.95,15.18-9.96-.25c-2.39-9.01-12.27-14.16,3.01-14.93Z"/>
  <path d="M841.13,703.87l8.51-.99,6.76,12.05c-8.04,8.06-13.16-3.9-15.27-11.06Z"/>
  <path d="M827.52,1027.06l-10.13,1.67-5.19-15.25,8.5-1.72c-1.01,6.44,3.94,10.34,6.82,15.3Z"/>
  <path d="M796.89,1004.97l-5.15.93c-4.44-5.69-15.18-18.86.14-15.48l5,14.55Z"/>
  <path d="M824.81,693.06c.38.71,5.35.62.95,3.09-1.4.79-7.79,3.22-8.43,2.61l-5.13-15.31,8.49-1.73c.24,3.92,2.29,7.93,4.12,11.33Z"/>
  <path d="M851.16,814.64c8.8,19.83-.8,20.52-9.84,4.04,2.23-3.54,5.7-5.18,9.84-4.04Z"/>
  <polygon points="788.59 678.12 783.22 665.72 789 663.36 796.89 675.75 788.59 678.12"/>
  <path d="M854.71,940.29l-5.12.96c-1.75-2.66-10.8-12.59-6.77-15.43,8.91-2.36,11.51,6.89,11.89,14.47Z"/>
  <path d="M851.08,1037.57l3.77,12.24c-5.87,8.55-14.57-11.76-13.71-12.51l9.94.27Z"/>
  <path d="M871.75,1016.87c-3.71-.8-3.4-8.06-3.48-10.98-.12-4.46-1.09-13.96,3.48-16.24v27.22Z"/>
  <path d="M871.75,792.32c-3.73-1.49-2.92-9.49-3.56-12.76l3.56-14.46v27.22Z"/>
  <path d="M1254.51,1039.84c-14.24,9.71-6.26-15-7.52-19.64-1.61-5.93-10.18-5.24-10.96-9.5,2.76-11.67,12.99-18.22,9.96-31.24l-10.26-.97c-.39-4.73,9.27-18.83,10.2-23.78,2.25-11.99-2.19-28.32,1-40.83l-11.23-13.62c.76-3.35,10.08-13.02,10.27-13.88.9-4.12-.5-9.71.03-14.1-5.09,1.12-8.86,2.15-10.2-4.23l11.69-23.75-.06-40.77-11.47-8.87c3.7-11.79,13.27-17.54,10.03-31.25l-7.43,1.6-2.79-4.1,11.4-24.09-1.16-44.86c-21.41-2.28-2.35-15.94-.4-23.37,1.05-4.02.24-8.3.41-12.35l-7.36-.26-2.86-3.91c-.03-5.02,8.66-14.7,9.81-19.21,2.19-8.56-4.12-24.99,7.2-27.65-.49,1.67,1.72,3.57,1.72,4.24v430.39Z"/>
  <path d="M1171.13,909.7c-3.92.97-2.79-.77-3.88-2.15-8.12-10.3-8.34-23.33-5.88-35.7.73-3.65,4.89-17.59,6.42-20.36,3.78-6.85,7.61,1.02,9.25,5.52,6.51,17.79-.91,35.67-5.92,52.68Z"/>
  <path d="M1171.13,1020.27c-2.67,1.97-6.83-4.85-7.74-6.69-9.33-18.84,1.65-34.3,4.37-52.85,3.96-.59,6.42,1.12,8.29,4.47,8.47,15.2.02,39.74-4.92,55.08Z"/>
  <path d="M1172.82,737.9c12.28,18.72,5.39,42.01-2.51,61.22-14.07-11.35-11.07-33.16-6.02-48.53.8-2.43,4.91-15.32,8.53-12.69Z"/>
  <path d="M1224.82,861.14c-12.05-13.52-3.02-40.58,5.02-55.18,16.3,14.34,8.61,43.82-1.71,59.48-1.31-1.3-2.09-2.92-3.32-4.3Z"/>
  <path d="M1196.69,778.71c-8.23-14.93-9.19-30.42-3.05-46.4l7.25-14.82c12.63,12.61,8.61,43.81.4,58.2-1.26,2.21-1.45,3.65-4.61,3.02Z"/>
  <path d="M1228.97,974.34c-16.06-11.9-9.52-39.73-1.63-55.32.87-1.73,1.56-5.39,4.19-4.2,1.31.59,6.83,11.46,7.22,13.2,3.2,14.03-4.06,33.57-9.77,46.33Z"/>
  <path d="M1230.67,756.59c-9.84-1.66-12.59-18.04-12-26.44.33-4.6,6.12-23.41,8.24-27.52.89-1.74,2.15-4.46,4.61-3.87,14.35,16.99,5.17,39.39-.85,57.83Z"/>
  <path d="M1196.7,887.58c-11.09-16.99-6.93-34.74-.85-52.71.67-1.99,2-7.59,5.04-6.79,13.96,5.31,6.54,45.74.42,56.5-1.25,2.2-1.46,3.65-4.61,3.01Z"/>
  <path d="M1203.2,938.95c6.22,3.65,6.12,26.01,5.39,32.86-.88,8.21-5.54,15.43-6.88,23.49-3.07,6.58-9.67-6.86-10.43-9.61-4.72-17.02,2.34-31.21,7.2-46.97,1.5-.06,3.34-.58,4.72.23Z"/>
  <path d="M1218.8,1064.51c.08-10.28,3.34-24.78,7.35-34.33,1.4-3.34,2.62-7.96,6.93-6.36,6.17,2.61,7.48,20.35,5.79,25.91-1.14,3.75-16.14,11.95-20.07,14.78Z"/>
  <path d="M1188.16,1086.6l10.22-39.12c12.56-2.15,13.59,15.7,9.73,24.22-1.74,3.85-17.53,16.85-19.95,14.9Z"/>
  <path d="M1175.79,1073.5c2.29,2.21,6.21,15.57,5.34,18.73l-20.18,14.8c-2.85-3.38,6.15-34.69,9.5-35.61,1.79.16,4.06.85,5.34,2.08Z"/>
  <path d="M1167.77,686.85c-1.45-6.9-9.42-17.42-8.1-24.46.78-4.17,15.63-10.96,19.97-12.96,2.34,3.14-5.04,34.63-11.87,37.42Z"/>
  <path d="M1210.27,630.72c1.5,1.68-4.73,24.56-6.46,28.4-.79,1.74-4.15,9.56-7.12,7.31l-6.67-24.42,20.25-11.29Z"/>
  <path d="M1239.19,613.71c-2.22,11.7-2.88,24.55-11.05,33.98-6.29-5.85-8.27-11.86-8.48-20.61.37-3.15,18.25-14.74,19.53-13.38Z"/>
  <path d="M1215.37,714.07c-2.02,2.24-7.63-7.39-10.29-7.88l6.91-15.94,10.2,4.3-6.83,19.53Z"/>
  <polygon points="1205.17 674.92 1212.82 652.84 1221.96 663.57 1213.65 675.9 1205.17 674.92"/>
  <path d="M1157.53,691.96c-2.04,5.21,4.44,5.82,4.95,7.76.91,3.48-5.95,17.53-12.39,14.22-7.17-2.26,3.33-17.18,3.95-20.94l3.5-1.04Z"/>
  <path d="M1215.34,872.29l6.69,9.08-8.35,14-8.52-1c.28-7.75,8.62-12.46,6.81-21.21l3.37-.87Z"/>
  <path d="M1187.86,673.6c.44.25,5.31,7.92,5.2,8.68l-6.73,12.97-8.21-1.77,4.96-20.24c1.55.14,3.34-.47,4.78.37Z"/>
  <polygon points="1222.18 911.41 1215.37 931.82 1205.3 926.54 1212.08 909.73 1222.18 911.41"/>
  <path d="M1162.59,955.72c1.16,1.62-4.84,14.34-5.99,16.91-.66,1.47-.2,4.66-3.28,3.4-10.27-4.18-3.56-15,.81-21.36l8.46,1.05Z"/>
  <path d="M1184.73,953.92c-3.32,2.87-6.99-7.31-6.5-10.58,1.1-7.32,8.85-18.16,14.38-7.99l-7.88,18.58Z"/>
  <path d="M1188.77,788.31c.89.99,2.62,1.37,3.7,2.25l.18,1.85c-4.09,7.68-6.46,21.44-16.15,11l8.28-19.59c1.14-.87,3.04,3.43,4,4.49Z"/>
  <path d="M1158.24,919.2c1.67,1.82,4.58,2.27,4.01,6.4l-8.94,14.66c-12.93-4.82,1.12-15.83.85-25.45,2.11.3,2.69,2.87,4.09,4.39Z"/>
  <path d="M1185.61,1005c10.44,4.84,4.67,25.09-6.63,21.92-3.65-2.13-2.08-1.99-1.32-4.33.9-2.77,5.95-17.59,7.95-17.58Z"/>
  <path d="M1193.27,822.96l-6.79,19.25-4.25,1.2c-7.01-7.54-3.84-14.67,2.54-21.41l8.5.96Z"/>
  <path d="M1155.7,827.94l-8.5-2.68c-.64-3.08,5.93-19.28,7.79-19.3l7.4,7.87-6.69,14.1Z"/>
  <path d="M1186.01,916.03c-11.9,11.61-7.04-17.37-.4-21.61,8.71,3.88,5.49,16.64.4,21.61Z"/>
  <polygon points="1222.18 1020.28 1215.38 1041.5 1212.01 1042.36 1205.43 1033.39 1213.6 1019.41 1222.18 1020.28"/>
  <path d="M1211.99,982.86c1.57-1.7,9.74,6.36,9.78,7.61.08,2.73-7.72,16.23-13.92,14.41-7.19-2.12,6.98-16.75,4.14-22.01Z"/>
  <path d="M1162.65,1067.93c.67.91-4.96,14.56-6.06,16.96-.66,1.46-.18,4.67-3.28,3.41-10.89-4.42-2.64-14.55.77-21.38l8.57,1.01Z"/>
  <path d="M1215.35,822.94c-5.54,1.4-5.61-3.9-10.28-6.04l9.37-15.64,7.69,3.8-6.78,17.88Z"/>
  <path d="M1155.82,863.77l-8.52-5.78c1.55-5.4,3.83-15.39,11.06-14.75,10.64.95-3.28,15.22-2.54,20.53Z"/>
  <path d="M1215.3,787.16l-10.12-1.65,6.81-20.4c16.03,5.71,5.73,10.67,3.31,22.06Z"/>
  <path d="M1193.26,1044.11l-9.36,20.36c-11.6-5.91-2.48-26.76,9.36-20.36Z"/>
  <path d="M1155.82,751.49c-20.07-3.67,3.48-30.93,6.69-17.68l-6.69,17.68Z"/>
  <path d="M1157.51,1028.79l4.93,9.03-6.87,12.8-8.23.27c-1.21-1.08,4.82-17.48,6.37-19.93,1.08-1.71-.11-3.01,3.79-2.16Z"/>
  <path d="M1180.6,728.42c-.57-.68-2.48-.72-2.69-1.91-1.11-6.53,9.07-23.24,14.91-11.61l-8.91,17.85c-1.26-1.35-2.13-2.92-3.31-4.33Z"/>
  <polygon points="1170.9 720.67 1162.58 718.23 1170.22 704.28 1177.92 708.11 1170.9 720.67"/>
  <polygon points="1206.88 1016.89 1200.12 1031.49 1191.57 1030.47 1198.46 1015.19 1206.88 1016.89"/>
  <polygon points="1171.02 833.05 1162.59 830.53 1170.23 816.39 1177.92 820.39 1171.02 833.05"/>
  <path d="M1206.88,686.87l-5.36,13.31c-3.56.9-7.61.94-9.92-2.27l6.86-12.74,8.42,1.7Z"/>
  <polygon points="1177.95 928.42 1171.02 943.63 1162.65 942 1167.93 928.6 1177.95 928.42"/>
  <path d="M1200.94,795.73c8.72-1.81.9,26.45-9.35,12.76l9.35-12.76Z"/>
  <path d="M1222.21,790.59c-1.87-2.5,5.15-22.57,12.82-11.91-.03,3.98-8.53,17.67-12.82,11.91Z"/>
  <polygon points="1235.79 668.16 1229 681.03 1220.48 680.03 1227.23 667.15 1235.79 668.16"/>
  <polygon points="1177.95 1040.71 1169.51 1055.17 1162.65 1054.29 1169.4 1039.68 1177.95 1040.71"/>
  <path d="M1200.92,904.63c8.1,4.48,1.92,18.53-6.78,16.96-2.89-.75-2.04-2.45-1.17-4.5.73-1.72,7.21-12.45,7.95-12.46Z"/>
  <path d="M1235.79,884.19l-10.16,16.98-3.5-5.8c3.35-7.32,3.97-13.17,13.67-11.19Z"/>
  <path d="M1235.79,993.07l-7.01,15.18-6.56-1.62c1.27-8.04,4.09-15.88,13.57-13.56Z"/>
  <path d="M1147.31,799.11l-1.48-5.73,3.18-24.87c1.86,10.95,1.88,19.94-1.71,30.6Z"/>
  <path d="M1104.8,550.76h-188.83l28.9-79.23,129.33.12,30.6,79.11ZM922.78,547.36h176.92l-25.68-64.47c-42.84-.11-86.34-.58-128.82.13l-22.41,64.34Z"/>
  <path d="M1130.33,1268.64l6.78-1.69-2.8,4.91-10.8-1.52c1.02-6.69,1.9-10.88-4.27-15.29l-5.92,3.38.82-5.22c10.5-3.36,17.07,5.4,16.2,15.43Z"/>
  <path d="M929.59,1268.63l6.79-3.38c.42,10.85-7.49,6.16-13.6,3.37,5.66-5.84,2.28-7.48-.03-13.57l-8.44.84c7.48-10.33,19.99,3,15.28,12.75Z"/>
  <path d="M997.64,1268.65l5.08-1.71c.79,5.97-6.74,6.15-9.79,2.99-3.89-4.05,0-18.06-8.56-14.39-.25.11-2.05,8.18-3.74.37,9.45-9.75,17.28,2.48,17.01,12.74Z"/>
  <path d="M1101.39,1258.44l-8.47-3.39-2.72,15.47c-4.88,2.37-7.69,1.65-10.9-2.73l6.79.85c-5.34-10.41,11.39-24.84,15.3-10.2Z"/>
  <path d="M902.38,1253.34c-.23,1.4.37,4.59-.02,5.09-3,3.81-3.09-5.32-5.92-3.38-4.62,4.2-5.57,9.79-2.56,15.28-4.27-.1-8.64,3.94-11.9-.86l6.75-3.37-2.99-5.13c4.19-6.35,8.79-8.94,16.64-7.64Z"/>
  <path d="M1035.05,1258.43c-3.38,3.68-2.68-4.98-5.92-3.38l-5.85,16.28-8.62-1.85,6.78-.83c.63-.7-6.06-11.05,5.63-15.76,5.79-2.33,9.42,3.98,7.98,5.55Z"/>
  <path d="M1062.28,1268.63c3.84,2.62,3.65-7.08,6.79-3.38,4.84,5.7-10.9,9.93-11.45,1.2-.17-2.71,1.22-8.59-2.18-11.4-3.47-2.87-3.76,7.11-6.76,3.38-.38-.47.19-3.67,0-5.06,10.25-2.94,16.81,5.26,13.61,15.27Z"/>
  <path d="M984.01,1261.84c.6,4.45-6,5.49-7.62,10.17l-9.34-6.8.85-3.38,5.13.1.81-8.59,4.14,8.72,6.03-.21Z"/>
  <path d="M1110.25,1261.49c1.76,1.01,4.44.21,6.47.36.79,3.93-4.52,4.71-6.12,8.41-3,.98-8.1-3.65-9.18-5.89-1.85-3.86,8.22-.65,5.1-7.63,2.55-.05,2.57,4.09,3.73,4.75Z"/>
  <path d="M960.2,1255.04c1.41,1.29-2.33,5.23-2.63,6.75-.68,3.42,2.21,7.06-2.46,9.47-4.04,2.09-6.02-.69-8.47-3.48l3.35-2.55,3.41,3.4.82-11.94c.81-1.95,5.4-2.19,5.98-1.65Z"/>
  <path d="M915.97,1261.85c-3.33,12.25-7.14,9.62-15.3,3.35,3.17-5.91,10.18-4.37,15.3-3.35Z"/>
  <path d="M1050.37,1265.2c-5.26.7-4.62,7.36-11.05,5.21l-4.26-8.57c4.83-.71,12.51-2.07,15.31,3.35Z"/>
  <path d="M909.17,465.72l-29.06,81.51-91.68-36.45,81.27-54.9c13.53-.34,26.14,7.72,39.47,9.84ZM802.01,513.31l75.48,28.82,23.09-66.95c-.37-1.79-28.21-10.92-32.31-8.75l-59.03,39.58c.21,2.77-10.1,4.36-7.22,7.3Z"/>
  <path d="M1207.89,493.63c4.09,2.86,19.4,12.9,21.13,15.43,1.2,1.76,2.71,1.43-.08,3.37l-87.36,34.83-28.24-83.23c12.02.13,26.47-10.76,37.88-8.19,19.01,12.33,38.12,24.82,56.67,37.78ZM1215.03,508.51l-65.98-43.81-28.84,7.91,20.32,69.66c3.15,3.03,65.28-26.38,74.67-29.1.29-1.46.58-3.38-.17-4.65Z"/>
  <path d="M806.96,1212.55l5.24,11.85c-7.98-.18-10.18-8.33-15.29-12.76,3.65-1.72,5.52,3.68,10.06.91Z"/>
  <path d="M766.28,1186.97l-10.17-6.82.18-3.24,3.25-.99-3.44-9.35c8.29,4.56,4.96,14.12,10.19,20.4Z"/>
  <path d="M795.2,1197.21c1.49,5.33-4.15,2.48-6.1,5.01l.99,5.18-6.63-3.66,1.56-8.24,10.18,1.71Z"/>
  <path d="M1218.77,1210.81c1.22,1.1-2.77,9.71-4.6,10.22l-14.09-1.74c2.74-10.45,3.58-1.73,4.25-1.6,5.91,1.12,9.16-11.64,14.45-6.88Z"/>
  <path d="M1195.37,1230.92l3.01,1.12-7.68,7.67c-4.91-7.12,3.43-14.54,7.65-20.4l-2.98,11.61Z"/>
  <path d="M1242.6,1193.81l-9.37,10.18-7.61-7.65c4.31-5.27,11.03.76,16.98-2.54Z"/>
  <path d="M1264.71,1164.89c-5.51,5.71-1.78,14.89-8.49,18.69-2.18-7.6.07-16.39,8.49-18.69Z"/>
  <path d="M1344.67,1002.41c1.32-1.89,1.57-1.77,3.52-1.82,8.19-.19,26.56-.44,32.26,5.15,8.99,8.81,2.81,21.85-8.38,24.93l-.24,2.25,13.65,21.35c-12.93,5.24-18.54-23.13-24.61-23.92-2.36-.31-5.22.37-7.72.12l-.16,21.03-8.33,2.79v-51.89ZM1353.33,1023.52c11.31,1.89,26.07,2.83,21.12-13.48-2.54-4.3-15.13-4.11-19.68-2.63l-1.44,16.11Z"/>
</svg>