<?xml version="1.0" encoding="iso-8859-1"?>
<!-- Generator: Adobe Illustrator 26.0.1, SVG Export Plug-In . SVG Version: 6.00 Build 0)  -->
<svg version="1.1" id="Layer_1" xmlns="http://www.w3.org/2000/svg" xmlns:xlink="http://www.w3.org/1999/xlink" x="0px" y="0px"
	 viewBox="0 0 1000 1000" style="enable-background:new 0 0 1000 1000;" xml:space="preserve">
<g id="watermark_1_">
	<g>
		<g id="watermark" style="opacity:0.61;">
			<g>
				<g>
					<g>
						<g>
							<polygon style="fill:#FFFFFF;" points="421.112,924.528 409.007,952.493 402.615,952.493 390.55,924.528 397.541,924.528 
								406.051,944.503 414.68,924.528 							"/>
						</g>
						<g>
							<path style="fill:#FFFFFF;" d="M442.323,943.185h-16.26c0.599,2.677,2.876,4.315,6.153,4.315
								c2.277,0,3.915-0.679,5.393-2.077l3.316,3.595c-1.997,2.278-4.994,3.476-8.868,3.476c-7.431,0-12.265-4.674-12.265-11.067
								c0-6.432,4.914-11.066,11.466-11.066c6.312,0,11.186,4.235,11.186,11.146C442.443,941.987,442.363,942.666,442.323,943.185
								 M425.983,939.55h10.587c-0.44-2.717-2.478-4.475-5.274-4.475C428.46,935.075,426.422,936.793,425.983,939.55"/>
						</g>
						<g>
							<path style="fill:#FFFFFF;" d="M444.997,941.427c0-6.471,4.994-11.066,11.985-11.066c4.514,0,8.07,1.958,9.628,5.473
								l-4.834,2.597c-1.159-2.038-2.877-2.956-4.834-2.956c-3.156,0-5.633,2.198-5.633,5.952c0,3.756,2.477,5.953,5.633,5.953
								c1.958,0,3.675-0.879,4.834-2.956l4.834,2.637c-1.558,3.436-5.114,5.433-9.628,5.433
								C449.991,952.493,444.997,947.899,444.997,941.427"/>
						</g>
						<g>
							<path style="fill:#FFFFFF;" d="M484.386,951.135c-1.279,0.919-3.157,1.358-5.074,1.358c-5.073,0-8.03-2.597-8.03-7.711
								v-8.829h-3.316v-4.794h3.316v-5.233h6.232v5.233h5.353v4.794h-5.353v8.749c0,1.837,0.998,2.836,2.677,2.836
								c0.918,0,1.837-0.279,2.517-0.799L484.386,951.135z"/>
						</g>
					</g>
					<g>
						<path style="fill:#FFFFFF;" d="M527.157,930.68v5.753c-0.519-0.04-0.918-0.08-1.398-0.08c-3.435,0-5.713,1.877-5.713,5.993
							v10.147h-6.232V931h5.953v2.836C521.284,931.759,523.841,930.68,527.157,930.68"/>
					</g>
					<g>
						<path style="fill:#FFFFFF;" d="M528.954,949.257l2.197-4.874c2.357,1.718,5.873,2.916,9.229,2.916
							c3.836,0,5.393-1.278,5.393-2.996c0-5.233-16.26-1.638-16.26-12.025c0-4.754,3.835-8.709,11.785-8.709
							c3.516,0,7.112,0.839,9.708,2.477l-1.998,4.914c-2.597-1.478-5.273-2.197-7.75-2.197c-3.835,0-5.313,1.438-5.313,3.196
							c0,5.154,16.259,1.598,16.259,11.865c0,4.675-3.875,8.67-11.865,8.67C535.905,952.493,531.43,951.175,528.954,949.257"/>
					</g>
					<g>
						<path style="fill:#FFFFFF;" d="M577.131,943.185h-16.26c0.599,2.677,2.876,4.315,6.153,4.315c2.277,0,3.915-0.679,5.393-2.077
							l3.316,3.595c-1.998,2.278-4.994,3.476-8.869,3.476c-7.431,0-12.265-4.674-12.265-11.067c0-6.432,4.914-11.066,11.466-11.066
							c6.312,0,11.187,4.235,11.187,11.146C577.251,941.987,577.171,942.666,577.131,943.185 M560.791,939.55h10.587
							c-0.439-2.717-2.477-4.475-5.273-4.475C563.268,935.075,561.231,936.793,560.791,939.55"/>
					</g>
					<g>
						<path style="fill:#FFFFFF;" d="M602.337,943.185h-16.26c0.599,2.677,2.876,4.315,6.152,4.315c2.277,0,3.915-0.679,5.393-2.077
							l3.316,3.595c-1.998,2.278-4.994,3.476-8.869,3.476c-7.431,0-12.265-4.674-12.265-11.067c0-6.432,4.914-11.066,11.466-11.066
							c6.312,0,11.186,4.235,11.186,11.146C602.457,941.987,602.377,942.666,602.337,943.185 M585.997,939.55h10.587
							c-0.439-2.717-2.477-4.475-5.273-4.475C588.474,935.075,586.437,936.793,585.997,939.55"/>
					</g>
					<g>
						<polygon style="fill:#FFFFFF;" points="615.838,944.064 612.841,947.02 612.841,952.493 606.61,952.493 606.61,922.85 
							612.841,922.85 612.841,939.629 621.95,931 629.381,931 620.432,940.108 630.18,952.493 622.63,952.493 						"/>
					</g>
					<g>
						<path style="fill:#FFFFFF;" d="M514.371,955.416L514.371,955.416l-6.226-6.226c-0.947,1.107-2.075,2.054-3.339,2.796
							c-0.201,0.15-0.406,0.296-0.616,0.433l6.589,6.589c0.992,0.992,2.601,0.992,3.592,0
							C515.363,958.017,515.363,956.408,514.371,955.416"/>
					</g>
					<g>
						<path style="fill:#FFFFFF;" d="M499.965,929.04c0.48-0.377,1.077-0.612,1.735-0.612c0.091,0,0.181,0.005,0.27,0.013
							c-0.466-0.34-1.041-0.542-1.663-0.542c-0.859,0-1.619,0.392-2.137,0.998c-0.111,0-0.218,0.013-0.328,0.016
							c0.086-0.167,0.139-0.354,0.139-0.555c0-0.509-0.311-0.945-0.752-1.13c0.19,0.275,0.301,0.608,0.301,0.968
							c0,0.267-0.066,0.517-0.176,0.742c-6.119,0.437-10.95,5.527-10.95,11.757c0,6.516,5.283,11.799,11.799,11.799
							c6.517,0,11.8-5.283,11.8-11.799C510.004,934.777,505.644,929.892,499.965,929.04 M495.61,932.114
							c0.947,0,1.837,0.244,2.611,0.674c0.813-0.532,1.785-0.842,2.828-0.842c1.547,0,2.934,0.68,3.883,1.756
							c-0.948-0.826-2.186-1.328-3.541-1.328c-0.977,0-1.895,0.261-2.686,0.716c-0.172,0.1-0.34,0.208-0.499,0.326
							c-0.142-0.104-0.29-0.203-0.444-0.292c-0.803-0.476-1.741-0.749-2.743-0.749c-0.653,0-1.279,0.117-1.86,0.331
							C493.895,932.328,494.727,932.114,495.61,932.114 M503.858,941.785c0.25,0.664,0.394,1.38,0.394,2.131
							c0,3.34-2.707,6.047-6.047,6.047c-3.339,0-6.047-2.707-6.047-6.047c0-0.751,0.143-1.467,0.394-2.131
							c-1.35-0.831-2.253-2.317-2.253-4.019c0-2.607,2.114-4.72,4.72-4.72c1.23,0,2.346,0.474,3.186,1.244
							c0.84-0.77,1.956-1.244,3.186-1.244c2.607,0,4.72,2.113,4.72,4.72C506.111,939.467,505.208,940.954,503.858,941.785"/>
					</g>
					<g>
						<path style="fill:#FFFFFF;" d="M503.627,937.351c0,1.082-0.879,1.961-1.961,1.961c-1.082,0-1.961-0.879-1.961-1.961
							s0.879-1.961,1.961-1.961c0.22,0,0.428,0.037,0.625,0.102c-0.065,0.135-0.099,0.287-0.099,0.445
							c0,0.595,0.482,1.076,1.077,1.076c0.11,0,0.217-0.017,0.318-0.048C503.613,937.089,503.627,937.218,503.627,937.351"/>
					</g>
					<g>
						<path style="fill:#FFFFFF;" d="M496.201,937.351c0,0.818-0.665,1.482-1.483,1.482c-0.818,0-1.483-0.664-1.483-1.482
							s0.665-1.483,1.483-1.483c0.166,0,0.324,0.027,0.473,0.077c-0.049,0.102-0.075,0.217-0.075,0.337
							c0,0.449,0.364,0.814,0.814,0.814c0.083,0,0.164-0.013,0.241-0.036C496.191,937.153,496.201,937.251,496.201,937.351"/>
					</g>
					<g>
						<g>
							<g>
								<rect x="484.56" y="939.024" style="fill:#FFFFFF;" width="1.34" height="1.34"/>
							</g>
							<g>
								<rect x="510.51" y="939.024" style="fill:#FFFFFF;" width="1.34" height="1.34"/>
							</g>
							<g>
								<path style="fill:#FFFFFF;" d="M511.332,939.572h-0.304c0-7.07-5.752-12.823-12.823-12.823
									c-7.07,0-12.823,5.753-12.823,12.823h-0.305c0-3.506,1.365-6.803,3.845-9.282c2.479-2.48,5.776-3.845,9.282-3.845
									c3.507,0,6.803,1.365,9.283,3.845C509.966,932.769,511.332,936.065,511.332,939.572"/>
							</g>
						</g>
						<g>
							<rect x="497.534" y="925.927" style="fill:#FFFFFF;" width="1.34" height="1.34"/>
						</g>
						<g>
							<rect x="489.006" y="926.445" style="fill:#FFFFFF;" width="18.397" height="0.304"/>
						</g>
						<g>
							<path style="fill:#FFFFFF;" d="M489.494,926.658c0,0.235-0.191,0.427-0.427,0.427c-0.235,0-0.426-0.191-0.426-0.427
								s0.191-0.427,0.426-0.427C489.303,926.231,489.494,926.422,489.494,926.658"/>
						</g>
						<g>
							<path style="fill:#FFFFFF;" d="M507.829,926.658c0,0.235-0.191,0.427-0.427,0.427c-0.235,0-0.426-0.191-0.426-0.427
								s0.191-0.427,0.426-0.427C507.639,926.231,507.829,926.422,507.829,926.658"/>
						</g>
					</g>
				</g>
				<g>
					<path style="fill:#FFFFFF;" d="M640.109,951.171c0,3.395-5.146,3.395-5.146,0C634.963,947.779,640.109,947.779,640.109,951.171
						z"/>
				</g>
				<g>
					<g>
						<g>
							<path style="fill:#FFFFFF;" d="M307.849,936.236l3.859,13.253l4.038-13.253h4.823l-6.145,17.721h-5.073l-1.822-5.216
								l-1.572-5.896l-1.571,5.896l-1.822,5.216h-5.073l-6.18-17.721h4.858l4.038,13.253l3.822-13.253H307.849z"/>
						</g>
						<g>
							<path style="fill:#FFFFFF;" d="M340.449,936.236l3.859,13.253l4.038-13.253h4.823l-6.145,17.721h-5.073l-1.822-5.216
								l-1.571-5.896l-1.572,5.896l-1.822,5.216h-5.073l-6.18-17.721h4.858l4.038,13.253l3.822-13.253H340.449z"/>
						</g>
						<g>
							<path style="fill:#FFFFFF;" d="M373.048,936.236l3.859,13.253l4.038-13.253h4.823l-6.145,17.721h-5.073l-1.822-5.216
								l-1.572-5.896l-1.571,5.896l-1.822,5.216h-5.073l-6.18-17.721h4.858l4.038,13.253l3.822-13.253H373.048z"/>
						</g>
					</g>
					<g>
						<path style="fill:#FFFFFF;" d="M393.123,951.412c0,3.395-5.146,3.395-5.146,0C387.977,948.02,393.123,948.02,393.123,951.412z
							"/>
					</g>
					<g>
						<path style="fill:#FFFFFF;" d="M658.296,951.171c-2.036,2.001-4.177,2.787-6.787,2.787c-5.108,0-9.361-3.072-9.361-9.323
							c0-6.251,4.253-9.326,9.361-9.326c2.502,0,4.43,0.716,6.359,2.609l-2.752,2.894c-1.036-0.931-2.321-1.393-3.534-1.393
							c-2.929,0-5.073,2.144-5.073,5.216c0,3.357,2.286,5.143,5,5.143c1.393,0,2.787-0.393,3.857-1.463L658.296,951.171z"/>
					</g>
					<g>
						<path style="fill:#FFFFFF;" d="M678.097,944.777c0,5.073-3.465,9.181-9.181,9.181c-5.716,0-9.146-4.107-9.146-9.181
							c0-5.038,3.502-9.181,9.111-9.181S678.097,939.739,678.097,944.777z M664.128,944.777c0,2.679,1.609,5.181,4.788,5.181
							c3.179,0,4.788-2.502,4.788-5.181c0-2.644-1.859-5.216-4.788-5.216C665.772,939.561,664.128,942.133,664.128,944.777z"/>
					</g>
					<g>
						<path style="fill:#FFFFFF;" d="M692.828,953.958v-9.431c0-2.324-1.216-4.43-3.61-4.43c-2.356,0-3.75,2.106-3.75,4.43v9.431
							h-4.36v-17.649h4.038l0.323,2.144c0.928-1.786,2.964-2.429,4.643-2.429c2.109,0,4.218,0.858,5.216,3.287
							c1.574-2.502,3.61-3.217,5.896-3.217c5,0,7.467,3.075,7.467,8.36v9.504h-4.361v-9.504c0-2.321-0.963-4.288-3.322-4.288
							c-2.356,0-3.822,2.036-3.822,4.36v9.431H692.828z"/>
					</g>
				</g>
			</g>
		</g>
		<g style="opacity:0.61;">
			<g>
				<g>
					<path style="fill:#FFFFFF;" d="M708.973,859.493c-0.013-2.665-2.087-4.618-4.766-4.659c-2.011-0.031-1.81,0.261-1.815-1.887
						c-0.006-2.389-0.015-4.778,0.006-7.166c0.007-0.824-0.243-1.505-0.787-2.125c-5.098-5.81-10.184-11.63-15.281-17.441
						c-0.262-0.299-0.599-0.532-0.901-0.796c-13.528,0-27.055,0-40.583,0c-1.729,0.639-2.482,1.889-2.478,3.72
						c0.021,8.159,0.009,16.318,0.008,24.478c0,1.21-0.007,1.281-1.197,1.201c-3.258-0.221-5.477,2.147-5.436,5.426
						c0.096,7.568,0.028,15.137,0.031,22.706c0.001,3.44,1.887,5.32,5.333,5.331c1.267,0.004,1.268,0.004,1.268,1.306
						c0.001,4.831-0.002,9.662,0.002,14.493c0.002,2.595,1.262,3.855,3.85,3.855c17.446,0.001,34.891,0.001,52.337,0
						c2.543,0,3.822-1.268,3.824-3.799c0.005-4.912,0.001-9.823,0.003-14.735c0-1.115,0.005-1.112,1.131-1.121
						c0.589-0.005,1.177,0.017,1.761-0.127c2.169-0.535,3.68-2.273,3.689-4.503C709.007,875.597,709.011,867.545,708.973,859.493z
						 M647.034,828.716c11.619-0.001,23.237-0.001,34.856,0c1.193,0,1.206,0.015,1.207,1.222c0.001,4.884-0.002,9.767,0.002,14.651
						c0.001,1.765,0.543,2.305,2.307,2.306c4.159,0.003,8.318,0,12.477,0.003c0.997,0.001,1.044,0.046,1.046,1.052
						c0.006,1.932,0.005,3.864,0,5.796c-0.003,1.038-0.051,1.085-1.098,1.085c-8.479,0.002-16.958,0.001-25.438,0.001
						c-8.452,0-16.905,0-25.357,0c-1.198,0-1.202-0.003-1.202-1.221c-0.001-7.889-0.001-15.778,0-23.667
						C645.835,828.724,645.844,828.716,647.034,828.716z M697.728,903.645c-8.454,0.001-16.908,0.001-25.362,0.001
						c-8.427,0-16.854,0.001-25.281,0c-1.245,0-1.249-0.003-1.249-1.262c-0.001-4.348-0.003-8.696,0.001-13.043
						c0.001-1.01,0.051-1.059,1.041-1.059c16.989-0.002,33.977-0.002,50.966,0c1.041,0,1.086,0.044,1.087,1.094
						c0.003,4.348,0.003,8.696,0.001,13.043C698.931,903.634,698.92,903.645,697.728,903.645z"/>
				</g>
				<g>
					<g>
						<rect x="668.546" y="828.478" style="fill:#FFFFFF;" width="3.825" height="2.295"/>
					</g>
					<g>
						<rect x="664.722" y="830.773" style="fill:#FFFFFF;" width="3.825" height="2.295"/>
					</g>
					<g>
						<rect x="668.546" y="833.068" style="fill:#FFFFFF;" width="3.825" height="2.295"/>
					</g>
					<g>
						<rect x="664.722" y="835.363" style="fill:#FFFFFF;" width="3.825" height="2.295"/>
					</g>
					<g>
						<rect x="668.546" y="837.658" style="fill:#FFFFFF;" width="3.825" height="2.295"/>
					</g>
					<g>
						<rect x="664.722" y="839.953" style="fill:#FFFFFF;" width="3.825" height="2.295"/>
					</g>
					<g>
						<rect x="668.546" y="842.247" style="fill:#FFFFFF;" width="3.825" height="2.295"/>
					</g>
					<g>
						<rect x="664.722" y="844.542" style="fill:#FFFFFF;" width="3.825" height="2.295"/>
					</g>
					<g>
						<rect x="668.546" y="846.837" style="fill:#FFFFFF;" width="3.825" height="2.295"/>
					</g>
					<g>
						<rect x="664.722" y="849.132" style="fill:#FFFFFF;" width="3.825" height="2.295"/>
					</g>
					<g>
						<rect x="668.546" y="851.427" style="fill:#FFFFFF;" width="3.825" height="2.295"/>
					</g>
					<g>
						<rect x="664.722" y="853.722" style="fill:#FFFFFF;" width="3.825" height="2.295"/>
					</g>
				</g>
			</g>
			<g>
				<path style="fill:#FFFFFF;" d="M364.231,859.493c-0.013-2.665-2.087-4.618-4.766-4.659c-2.011-0.031-1.81,0.261-1.815-1.887
					c-0.006-2.389-0.015-4.778,0.006-7.166c0.007-0.824-0.243-1.505-0.787-2.125c-5.098-5.81-10.184-11.63-15.281-17.441
					c-0.262-0.299-0.599-0.532-0.901-0.796c-13.528,0-27.055,0-40.583,0c-1.729,0.639-2.482,1.889-2.478,3.72
					c0.021,8.159,0.009,16.318,0.008,24.478c0,1.21-0.007,1.281-1.197,1.201c-3.258-0.221-5.477,2.147-5.436,5.426
					c0.096,7.568,0.028,15.137,0.031,22.706c0.001,3.44,1.887,5.32,5.333,5.331c1.267,0.004,1.268,0.004,1.268,1.306
					c0.001,4.831-0.002,9.662,0.002,14.493c0.002,2.595,1.262,3.855,3.85,3.855c17.446,0.001,34.891,0.001,52.337,0
					c2.543,0,3.822-1.268,3.824-3.799c0.005-4.912,0.001-9.823,0.003-14.735c0-1.115,0.004-1.112,1.131-1.121
					c0.589-0.005,1.177,0.017,1.761-0.127c2.169-0.535,3.68-2.273,3.689-4.503C364.264,875.597,364.269,867.545,364.231,859.493z
					 M302.292,828.716c11.619-0.001,23.237-0.001,34.856,0c1.192,0,1.206,0.015,1.207,1.222c0.001,4.884-0.001,9.767,0.002,14.651
					c0.001,1.765,0.543,2.305,2.307,2.306c4.159,0.003,8.318,0,12.477,0.003c0.997,0.001,1.044,0.046,1.046,1.052
					c0.006,1.932,0.005,3.864,0,5.796c-0.003,1.038-0.051,1.085-1.098,1.085c-8.479,0.002-16.958,0.001-25.438,0.001
					c-8.452,0-16.905,0-25.357,0c-1.198,0-1.202-0.003-1.202-1.221c-0.001-7.889-0.001-15.778,0-23.667
					C301.093,828.724,301.102,828.716,302.292,828.716z M352.985,903.645c-8.454,0.001-16.908,0.001-25.362,0.001
					c-8.427,0-16.854,0.001-25.281,0c-1.245,0-1.249-0.003-1.249-1.262c-0.001-4.348-0.003-8.696,0.001-13.043
					c0.001-1.01,0.051-1.059,1.041-1.059c16.989-0.002,33.977-0.002,50.966,0c1.041,0,1.086,0.044,1.087,1.094
					c0.003,4.348,0.003,8.696,0.001,13.043C354.188,903.634,354.177,903.645,352.985,903.645z"/>
			</g>
			<g>
				<path style="fill:#FFFFFF;" d="M303.581,879.891v-17.193h6.051c0.816,0,1.581,0.132,2.293,0.396
					c0.712,0.264,1.333,0.636,1.861,1.117c0.527,0.48,0.944,1.053,1.248,1.717c0.304,0.665,0.456,1.397,0.456,2.198
					c0,0.816-0.152,1.557-0.456,2.221s-0.721,1.236-1.248,1.717c-0.529,0.48-1.149,0.852-1.861,1.117
					c-0.713,0.264-1.477,0.396-2.293,0.396h-2.809v6.315H303.581z M309.68,870.503c0.848,0,1.489-0.241,1.921-0.721
					c0.432-0.48,0.648-1.032,0.648-1.656c0-0.304-0.052-0.601-0.156-0.889c-0.105-0.288-0.264-0.54-0.48-0.756
					c-0.216-0.217-0.484-0.388-0.805-0.516c-0.32-0.129-0.696-0.193-1.128-0.193h-2.857v4.731H309.68z"/>
				<path style="fill:#FFFFFF;" d="M317.796,862.699h3.77l6.916,11.526h0.191l-0.191-3.314v-8.212h3.217v17.193h-3.409l-7.3-12.174
					h-0.191l0.191,3.314v8.86h-3.193V862.699z"/>
				<path style="fill:#FFFFFF;" d="M343.08,870.454h8.429c0.048,0.193,0.087,0.425,0.12,0.697c0.031,0.272,0.048,0.544,0.048,0.816
					c0,1.104-0.167,2.145-0.504,3.121c-0.336,0.977-0.865,1.849-1.585,2.618c-0.768,0.817-1.69,1.449-2.761,1.897
					c-1.073,0.448-2.298,0.672-3.674,0.672c-1.249,0-2.426-0.224-3.53-0.672c-1.104-0.447-2.065-1.072-2.881-1.873
					c-0.816-0.8-1.465-1.749-1.945-2.845c-0.48-1.097-0.72-2.293-0.72-3.59c0-1.296,0.24-2.493,0.72-3.589s1.129-2.045,1.945-2.845
					c0.816-0.8,1.777-1.425,2.881-1.873c1.104-0.448,2.281-0.672,3.53-0.672c1.392,0,2.637,0.24,3.734,0.72
					c1.097,0.48,2.036,1.144,2.821,1.993l-2.232,2.185c-0.562-0.592-1.185-1.044-1.874-1.357s-1.513-0.468-2.473-0.468
					c-0.786,0-1.53,0.14-2.234,0.421c-0.705,0.28-1.321,0.676-1.85,1.188c-0.527,0.512-0.949,1.133-1.259,1.861
					c-0.312,0.728-0.469,1.541-0.469,2.437c0,0.897,0.157,1.709,0.469,2.438c0.311,0.728,0.735,1.349,1.271,1.861
					c0.536,0.512,1.156,0.909,1.862,1.188c0.704,0.281,1.457,0.421,2.258,0.421c0.911,0,1.684-0.132,2.317-0.396
					c0.632-0.264,1.171-0.604,1.62-1.021c0.321-0.288,0.598-0.652,0.829-1.092s0.412-0.932,0.541-1.477h-5.404V870.454z"/>
			</g>
			<g>
				<path style="fill:#FFFFFF;" d="M443.437,859.493c-0.013-2.665-2.087-4.618-4.766-4.659c-2.011-0.031-1.81,0.261-1.815-1.887
					c-0.006-2.389-0.015-4.778,0.006-7.166c0.007-0.824-0.243-1.505-0.787-2.125c-5.098-5.81-10.184-11.63-15.281-17.441
					c-0.262-0.299-0.599-0.532-0.901-0.796c-13.528,0-27.055,0-40.583,0c-1.729,0.639-2.482,1.889-2.478,3.72
					c0.021,8.159,0.009,16.318,0.008,24.478c0,1.21-0.007,1.281-1.197,1.201c-3.258-0.221-5.477,2.147-5.436,5.426
					c0.096,7.568,0.028,15.137,0.031,22.706c0.001,3.44,1.887,5.32,5.333,5.331c1.267,0.004,1.268,0.004,1.268,1.306
					c0.001,4.831-0.002,9.662,0.002,14.493c0.002,2.595,1.262,3.855,3.85,3.855c17.446,0.001,34.891,0.001,52.337,0
					c2.543,0,3.822-1.268,3.824-3.799c0.005-4.912,0.001-9.823,0.003-14.735c0-1.115,0.004-1.112,1.131-1.121
					c0.589-0.005,1.177,0.017,1.761-0.127c2.169-0.535,3.68-2.273,3.689-4.503C443.47,875.597,443.475,867.545,443.437,859.493z
					 M381.498,828.716c11.619-0.001,23.237-0.001,34.856,0c1.192,0,1.206,0.015,1.207,1.222c0.001,4.884-0.001,9.767,0.002,14.651
					c0.001,1.765,0.543,2.305,2.307,2.306c4.159,0.003,8.318,0,12.477,0.003c0.997,0.001,1.044,0.046,1.046,1.052
					c0.006,1.932,0.005,3.864,0,5.796c-0.003,1.038-0.051,1.085-1.098,1.085c-8.479,0.002-16.958,0.001-25.438,0.001
					c-8.452,0-16.905,0-25.357,0c-1.198,0-1.202-0.003-1.202-1.221c-0.001-7.889-0.001-15.778,0-23.667
					C380.299,828.724,380.308,828.716,381.498,828.716z M432.192,903.645c-8.454,0.001-16.908,0.001-25.362,0.001
					c-8.427,0-16.854,0.001-25.281,0c-1.245,0-1.249-0.003-1.249-1.262c-0.001-4.348-0.002-8.696,0.001-13.043
					c0.001-1.01,0.051-1.059,1.041-1.059c16.989-0.002,33.977-0.002,50.966,0c1.041,0,1.086,0.044,1.087,1.094
					c0.003,4.348,0.003,8.696,0.001,13.043C433.394,903.634,433.384,903.645,432.192,903.645z"/>
			</g>
			<g>
				<path style="fill:#FFFFFF;" d="M402.272,862.699h3.698l6.46,17.193h-3.578l-1.416-4.106h-6.628l-1.417,4.106h-3.578
					L402.272,862.699z M406.379,872.808l-1.537-4.298l-0.625-2.089h-0.192l-0.625,2.089l-1.537,4.298H406.379z"/>
				<path style="fill:#FFFFFF;" d="M415.815,866.541c-0.273,0-0.533-0.052-0.781-0.156c-0.248-0.104-0.465-0.248-0.648-0.432
					c-0.184-0.184-0.328-0.396-0.432-0.636c-0.105-0.241-0.156-0.504-0.156-0.793s0.052-0.552,0.156-0.793
					c0.104-0.24,0.248-0.452,0.432-0.636c0.184-0.184,0.4-0.328,0.648-0.432c0.248-0.104,0.508-0.156,0.781-0.156
					c0.56,0,1.041,0.196,1.441,0.588c0.4,0.393,0.601,0.869,0.601,1.429c0,0.56-0.201,1.037-0.601,1.428
					C416.856,866.345,416.375,866.541,415.815,866.541z M414.255,879.891v-11.766h3.145v11.766H414.255z"/>
			</g>
			<g>
				<path style="fill:#FFFFFF;" d="M524.043,859.493c-0.013-2.665-2.087-4.618-4.766-4.659c-2.011-0.031-1.81,0.261-1.815-1.887
					c-0.006-2.389-0.015-4.778,0.006-7.166c0.007-0.824-0.243-1.505-0.787-2.125c-5.098-5.81-10.184-11.63-15.281-17.441
					c-0.262-0.299-0.599-0.532-0.901-0.796c-13.528,0-27.055,0-40.583,0c-1.729,0.639-2.482,1.889-2.478,3.72
					c0.021,8.159,0.009,16.318,0.008,24.478c0,1.21-0.007,1.281-1.197,1.201c-3.258-0.221-5.477,2.147-5.436,5.426
					c0.096,7.568,0.028,15.137,0.031,22.706c0.001,3.44,1.887,5.32,5.333,5.331c1.267,0.004,1.268,0.004,1.268,1.306
					c0.001,4.831-0.002,9.662,0.002,14.493c0.002,2.595,1.262,3.855,3.85,3.855c17.446,0.001,34.891,0.001,52.337,0
					c2.543,0,3.822-1.268,3.824-3.799c0.005-4.912,0.001-9.823,0.003-14.735c0-1.115,0.004-1.112,1.131-1.121
					c0.589-0.005,1.177,0.017,1.761-0.127c2.169-0.535,3.68-2.273,3.689-4.503C524.076,875.597,524.081,867.545,524.043,859.493z
					 M462.104,828.716c11.619-0.001,23.237-0.001,34.856,0c1.192,0,1.206,0.015,1.207,1.222c0.001,4.884-0.001,9.767,0.002,14.651
					c0.001,1.765,0.543,2.305,2.307,2.306c4.159,0.003,8.318,0,12.477,0.003c0.997,0.001,1.044,0.046,1.046,1.052
					c0.006,1.932,0.005,3.864,0,5.796c-0.003,1.038-0.051,1.085-1.098,1.085c-8.479,0.002-16.958,0.001-25.438,0.001
					c-8.452,0-16.905,0-25.357,0c-1.198,0-1.202-0.003-1.202-1.221c-0.001-7.889-0.001-15.778,0-23.667
					C460.905,828.724,460.914,828.716,462.104,828.716z M512.798,903.645c-8.454,0.001-16.908,0.001-25.362,0.001
					c-8.427,0-16.854,0.001-25.281,0c-1.245,0-1.249-0.003-1.249-1.262c-0.001-4.348-0.002-8.696,0.001-13.043
					c0.001-1.01,0.051-1.059,1.041-1.059c16.989-0.002,33.977-0.002,50.966,0c1.041,0,1.086,0.044,1.087,1.094
					c0.003,4.348,0.003,8.696,0.001,13.043C514,903.634,513.989,903.645,512.798,903.645z"/>
			</g>
			<g>
				<path style="fill:#FFFFFF;" d="M470.308,880.275c-0.737,0-1.441-0.104-2.113-0.312c-0.672-0.208-1.289-0.52-1.849-0.936
					c-0.56-0.416-1.048-0.925-1.464-1.525c-0.417-0.601-0.745-1.301-0.985-2.101l3.049-1.2c0.224,0.864,0.616,1.581,1.177,2.149
					s1.297,0.852,2.209,0.852c0.336,0,0.66-0.044,0.973-0.132c0.312-0.087,0.592-0.216,0.84-0.384
					c0.248-0.168,0.444-0.38,0.589-0.636c0.144-0.256,0.216-0.552,0.216-0.888c0-0.32-0.056-0.608-0.168-0.865
					c-0.112-0.255-0.3-0.495-0.564-0.72c-0.264-0.224-0.609-0.44-1.033-0.648c-0.424-0.208-0.948-0.424-1.572-0.648l-1.056-0.384
					c-0.465-0.16-0.933-0.376-1.405-0.648c-0.472-0.272-0.9-0.6-1.284-0.985c-0.385-0.384-0.701-0.836-0.949-1.357
					c-0.249-0.52-0.372-1.108-0.372-1.765c0-0.672,0.132-1.301,0.396-1.885c0.264-0.584,0.64-1.096,1.129-1.537
					c0.488-0.44,1.072-0.784,1.753-1.032c0.681-0.248,1.437-0.372,2.269-0.372c0.864,0,1.612,0.116,2.245,0.348
					c0.633,0.232,1.168,0.528,1.609,0.888c0.44,0.36,0.796,0.757,1.068,1.188c0.272,0.433,0.472,0.84,0.601,1.225l-2.857,1.2
					c-0.161-0.48-0.453-0.913-0.876-1.297c-0.425-0.384-1.005-0.576-1.741-0.576c-0.704,0-1.289,0.164-1.753,0.492
					c-0.465,0.329-0.697,0.757-0.697,1.285c0,0.512,0.224,0.949,0.672,1.309c0.448,0.36,1.161,0.708,2.137,1.044l1.081,0.36
					c0.688,0.241,1.316,0.517,1.885,0.828c0.568,0.312,1.056,0.684,1.465,1.117c0.408,0.433,0.72,0.925,0.936,1.477
					c0.217,0.552,0.324,1.189,0.324,1.909c0,0.897-0.18,1.669-0.54,2.317c-0.36,0.648-0.82,1.181-1.38,1.597
					c-0.561,0.416-1.193,0.728-1.897,0.936C471.668,880.172,470.98,880.275,470.308,880.275z"/>
				<path style="fill:#FFFFFF;" d="M477.175,862.699h3.506l3.554,10.349l0.625,2.209h0.192l0.672-2.209l3.698-10.349h3.506
					l-6.268,17.193h-3.409L477.175,862.699z"/>
				<path style="fill:#FFFFFF;" d="M502.388,870.454h8.428c0.048,0.193,0.088,0.425,0.12,0.697c0.033,0.272,0.049,0.544,0.049,0.816
					c0,1.104-0.169,2.145-0.505,3.121c-0.336,0.977-0.864,1.849-1.585,2.618c-0.768,0.817-1.688,1.449-2.761,1.897
					c-1.073,0.448-2.298,0.672-3.674,0.672c-1.249,0-2.425-0.224-3.529-0.672c-1.105-0.447-2.066-1.072-2.882-1.873
					c-0.816-0.8-1.465-1.749-1.945-2.845c-0.48-1.097-0.72-2.293-0.72-3.59c0-1.296,0.241-2.493,0.72-3.589
					c0.48-1.097,1.129-2.045,1.945-2.845c0.816-0.8,1.777-1.425,2.882-1.873c1.104-0.448,2.28-0.672,3.529-0.672
					c1.392,0,2.637,0.24,3.734,0.72c1.097,0.48,2.038,1.144,2.822,1.993l-2.234,2.185c-0.56-0.592-1.185-1.044-1.874-1.357
					c-0.687-0.312-1.512-0.468-2.473-0.468c-0.784,0-1.528,0.14-2.234,0.421c-0.704,0.28-1.321,0.676-1.848,1.188
					c-0.528,0.512-0.949,1.133-1.261,1.861c-0.312,0.728-0.468,1.541-0.468,2.437c0,0.897,0.156,1.709,0.468,2.438
					c0.312,0.728,0.737,1.349,1.273,1.861c0.536,0.512,1.156,0.909,1.86,1.188c0.705,0.281,1.457,0.421,2.258,0.421
					c0.913,0,1.685-0.132,2.317-0.396c0.632-0.264,1.173-0.604,1.621-1.021c0.32-0.288,0.596-0.652,0.828-1.092
					c0.233-0.44,0.412-0.932,0.541-1.477h-5.402V870.454z"/>
			</g>
			<g>
				<path style="fill:#FFFFFF;" d="M602.976,859.493c-0.013-2.665-2.087-4.618-4.766-4.659c-2.011-0.031-1.81,0.261-1.815-1.887
					c-0.006-2.389-0.015-4.778,0.006-7.166c0.007-0.824-0.243-1.505-0.787-2.125c-5.098-5.81-10.184-11.63-15.281-17.441
					c-0.262-0.299-0.599-0.532-0.901-0.796c-13.528,0-27.055,0-40.583,0c-1.729,0.639-2.482,1.889-2.478,3.72
					c0.021,8.159,0.009,16.318,0.008,24.478c0,1.21-0.007,1.281-1.197,1.201c-3.258-0.221-5.477,2.147-5.436,5.426
					c0.096,7.568,0.028,15.137,0.031,22.706c0.001,3.44,1.887,5.32,5.333,5.331c1.267,0.004,1.268,0.004,1.268,1.306
					c0.001,4.831-0.002,9.662,0.002,14.493c0.002,2.595,1.262,3.855,3.85,3.855c17.446,0.001,34.891,0.001,52.337,0
					c2.543,0,3.822-1.268,3.824-3.799c0.005-4.912,0.001-9.823,0.003-14.735c0-1.115,0.005-1.112,1.131-1.121
					c0.589-0.005,1.178,0.017,1.761-0.127c2.169-0.535,3.68-2.273,3.689-4.503C603.01,875.597,603.015,867.545,602.976,859.493z
					 M541.037,828.716c11.619-0.001,23.237-0.001,34.856,0c1.193,0,1.206,0.015,1.207,1.222c0.001,4.884-0.002,9.767,0.002,14.651
					c0.001,1.765,0.543,2.305,2.307,2.306c4.159,0.003,8.318,0,12.477,0.003c0.997,0.001,1.044,0.046,1.046,1.052
					c0.006,1.932,0.005,3.864,0,5.796c-0.003,1.038-0.051,1.085-1.098,1.085c-8.479,0.002-16.958,0.001-25.438,0.001
					c-8.452,0-16.905,0-25.357,0c-1.198,0-1.202-0.003-1.202-1.221c-0.001-7.889-0.001-15.778,0-23.667
					C539.838,828.724,539.847,828.716,541.037,828.716z M591.731,903.645c-8.454,0.001-16.908,0.001-25.362,0.001
					c-8.427,0-16.854,0.001-25.281,0c-1.245,0-1.249-0.003-1.249-1.262c-0.001-4.348-0.003-8.696,0.001-13.043
					c0.001-1.01,0.051-1.059,1.041-1.059c16.989-0.002,33.977-0.002,50.966,0c1.041,0,1.086,0.044,1.087,1.094
					c0.003,4.348,0.003,8.696,0.001,13.043C592.934,903.634,592.923,903.645,591.731,903.645z"/>
			</g>
			<g>
				<path style="fill:#FFFFFF;" d="M549.998,865.772v3.986h6.891v3.074h-6.891v3.986h7.659v3.073h-10.901v-17.193h10.901v3.073
					H549.998z"/>
				<path style="fill:#FFFFFF;" d="M560.635,879.891v-17.193h6.051c0.816,0,1.581,0.132,2.293,0.396
					c0.712,0.264,1.333,0.636,1.861,1.117c0.528,0.48,0.944,1.053,1.249,1.717c0.304,0.665,0.456,1.397,0.456,2.198
					c0,0.816-0.152,1.557-0.456,2.221c-0.305,0.664-0.721,1.236-1.249,1.717c-0.528,0.48-1.149,0.852-1.861,1.117
					c-0.713,0.264-1.477,0.396-2.293,0.396h-2.809v6.315H560.635z M566.735,870.503c0.848,0,1.489-0.241,1.921-0.721
					c0.432-0.48,0.648-1.032,0.648-1.656c0-0.304-0.052-0.601-0.156-0.889c-0.105-0.288-0.264-0.54-0.48-0.756
					c-0.216-0.217-0.484-0.388-0.805-0.516c-0.32-0.129-0.696-0.193-1.128-0.193h-2.857v4.731H566.735z"/>
				<path style="fill:#FFFFFF;" d="M580.109,880.275c-0.737,0-1.441-0.104-2.113-0.312c-0.672-0.208-1.289-0.52-1.849-0.936
					c-0.56-0.416-1.049-0.925-1.465-1.525c-0.416-0.601-0.744-1.301-0.985-2.101l3.049-1.2c0.224,0.864,0.616,1.581,1.177,2.149
					c0.56,0.568,1.296,0.852,2.209,0.852c0.336,0,0.66-0.044,0.973-0.132c0.312-0.087,0.592-0.216,0.84-0.384
					c0.248-0.168,0.444-0.38,0.588-0.636c0.144-0.256,0.217-0.552,0.217-0.888c0-0.32-0.057-0.608-0.168-0.865
					c-0.112-0.255-0.3-0.495-0.565-0.72c-0.264-0.224-0.608-0.44-1.032-0.648c-0.424-0.208-0.949-0.424-1.573-0.648l-1.056-0.384
					c-0.465-0.16-0.932-0.376-1.404-0.648c-0.473-0.272-0.901-0.6-1.285-0.985c-0.384-0.384-0.701-0.836-0.949-1.357
					c-0.248-0.52-0.372-1.108-0.372-1.765c0-0.672,0.132-1.301,0.396-1.885c0.264-0.584,0.64-1.096,1.129-1.537
					c0.489-0.44,1.073-0.784,1.753-1.032c0.68-0.248,1.437-0.372,2.269-0.372c0.865,0,1.613,0.116,2.246,0.348
					c0.632,0.232,1.168,0.528,1.609,0.888c0.44,0.36,0.796,0.757,1.068,1.188c0.272,0.433,0.472,0.84,0.601,1.225l-2.857,1.2
					c-0.161-0.48-0.453-0.913-0.877-1.297s-1.005-0.576-1.741-0.576c-0.705,0-1.289,0.164-1.753,0.492
					c-0.465,0.329-0.696,0.757-0.696,1.285c0,0.512,0.224,0.949,0.672,1.309c0.448,0.36,1.16,0.708,2.137,1.044l1.08,0.36
					c0.689,0.241,1.317,0.517,1.885,0.828c0.568,0.312,1.056,0.684,1.465,1.117c0.408,0.433,0.72,0.925,0.936,1.477
					c0.216,0.552,0.324,1.189,0.324,1.909c0,0.897-0.18,1.669-0.54,2.317c-0.36,0.648-0.821,1.181-1.38,1.597
					c-0.561,0.416-1.193,0.728-1.897,0.936C581.47,880.172,580.782,880.275,580.109,880.275z"/>
			</g>
			<g>
				<path style="fill:#FFFFFF;" d="M655.431,876.625l8.716-10.854h-8.332v-3.073h12.103v3.266l-8.621,10.854h8.716v3.073h-12.582
					V876.625z"/>
				<path style="fill:#FFFFFF;" d="M670.702,862.699h3.242v17.193h-3.242V862.699z"/>
				<path style="fill:#FFFFFF;" d="M677.402,879.891v-17.193h6.051c0.817,0,1.581,0.132,2.293,0.396
					c0.712,0.264,1.333,0.636,1.861,1.117s0.944,1.053,1.249,1.717c0.304,0.665,0.456,1.397,0.456,2.198
					c0,0.816-0.152,1.557-0.456,2.221c-0.305,0.664-0.721,1.236-1.249,1.717s-1.149,0.852-1.861,1.117
					c-0.713,0.264-1.477,0.396-2.293,0.396h-2.809v6.315H677.402z M683.501,870.503c0.848,0,1.489-0.241,1.921-0.721
					c0.433-0.48,0.648-1.032,0.648-1.656c0-0.304-0.052-0.601-0.156-0.889c-0.105-0.288-0.264-0.54-0.48-0.756
					c-0.216-0.217-0.484-0.388-0.805-0.516c-0.32-0.129-0.696-0.193-1.128-0.193h-2.857v4.731H683.501z"/>
			</g>
		</g>
		<g style="opacity:0.61;">
			<path style="fill:#FFFFFF;" d="M609.144,863.785h19.739v4.881h-19.739V863.785z M609.144,872.201h19.739v4.884h-19.739V872.201z"
				/>
		</g>
	</g>
	<g style="opacity:0.61;">
		<path style="fill:#FFFFFF;" d="M297,963.076h3.498c2.75,0,4.603,1.768,4.603,4.297s-1.854,4.296-4.603,4.296H297V963.076z
			 M300.449,970.883c2.283,0,3.756-1.448,3.756-3.51s-1.473-3.511-3.756-3.511h-2.541v7.021H300.449z"/>
		<path style="fill:#FFFFFF;" d="M315.251,967.373c0-2.504,1.915-4.37,4.517-4.37c2.577,0,4.505,1.853,4.505,4.37
			c0,2.516-1.927,4.369-4.505,4.369C317.166,971.742,315.251,969.877,315.251,967.373z M323.365,967.373
			c0-2.05-1.534-3.56-3.596-3.56c-2.075,0-3.621,1.51-3.621,3.56c0,2.049,1.546,3.559,3.621,3.559
			C321.831,970.932,323.365,969.422,323.365,967.373z"/>
		<path style="fill:#FFFFFF;" d="M346.724,963.076l-2.897,8.593h-0.957l-2.516-7.328l-2.529,7.328h-0.945l-2.897-8.593h0.933
			l2.479,7.389l2.566-7.389h0.847l2.529,7.426l2.516-7.426H346.724z"/>
		<path style="fill:#FFFFFF;" d="M364.435,963.076v8.593h-0.749l-5.524-6.972v6.972h-0.908v-8.593h0.749l5.536,6.973v-6.973H364.435
			z"/>
		<path style="fill:#FFFFFF;" d="M376.108,963.076h0.908v7.807h4.812v0.786h-5.72V963.076z"/>
		<path style="fill:#FFFFFF;" d="M391.279,967.373c0-2.504,1.915-4.37,4.517-4.37c2.577,0,4.505,1.853,4.505,4.37
			c0,2.516-1.927,4.369-4.505,4.369C393.194,971.742,391.279,969.877,391.279,967.373z M399.392,967.373
			c0-2.05-1.534-3.56-3.596-3.56c-2.075,0-3.621,1.51-3.621,3.56c0,2.049,1.546,3.559,3.621,3.559
			C397.858,970.932,399.392,969.422,399.392,967.373z"/>
		<path style="fill:#FFFFFF;" d="M416.478,969.374h-4.787l-1.031,2.295h-0.945l3.928-8.593h0.896l3.928,8.593h-0.957
			L416.478,969.374z M416.147,968.637l-2.062-4.615l-2.062,4.615H416.147z"/>
		<path style="fill:#FFFFFF;" d="M428.765,963.076h3.498c2.75,0,4.603,1.768,4.603,4.297s-1.854,4.296-4.603,4.296h-3.498V963.076z
			 M432.214,970.883c2.283,0,3.756-1.448,3.756-3.51s-1.473-3.511-3.756-3.511h-2.541v7.021H432.214z"/>
		<path style="fill:#FFFFFF;" d="M465.256,969.374h-4.787l-1.031,2.295h-0.945l3.928-8.593h0.896l3.928,8.593h-0.957
			L465.256,969.374z M464.925,968.637l-2.062-4.615l-2.062,4.615H464.925z"/>
		<path style="fill:#FFFFFF;" d="M477.543,963.076h0.908v7.807h4.812v0.786h-5.72V963.076z"/>
		<path style="fill:#FFFFFF;" d="M493.647,963.076h0.908v7.807h4.812v0.786h-5.72V963.076z"/>
		<path style="fill:#FFFFFF;" d="M522.749,963.862v3.376h4.443v0.786h-4.443v3.646h-0.909v-8.593h5.891v0.786H522.749z"/>
		<path style="fill:#FFFFFF;" d="M538.485,963.076h0.909v8.593h-0.909V963.076z"/>
		<path style="fill:#FFFFFF;" d="M551.067,963.076h0.909v7.807h4.811v0.786h-5.72V963.076z"/>
		<path style="fill:#FFFFFF;" d="M573.246,970.883v0.786h-6.076v-8.593h5.891v0.786h-4.983v3.056h4.443v0.774h-4.443v3.191H573.246z
			"/>
		<path style="fill:#FFFFFF;" d="M597.255,963.862v3.376h4.443v0.786h-4.443v3.646h-0.909v-8.593h5.891v0.786H597.255z"/>
		<path style="fill:#FFFFFF;" d="M612.119,967.373c0-2.504,1.915-4.37,4.517-4.37c2.577,0,4.505,1.853,4.505,4.37
			c0,2.516-1.927,4.369-4.505,4.369C614.034,971.742,612.119,969.877,612.119,967.373z M620.232,967.373
			c0-2.05-1.534-3.56-3.596-3.56c-2.075,0-3.622,1.51-3.622,3.56c0,2.049,1.547,3.559,3.622,3.559
			C618.698,970.932,620.232,969.422,620.232,967.373z"/>
		<path style="fill:#FFFFFF;" d="M637.919,971.669l-1.963-2.762c-0.222,0.024-0.442,0.037-0.688,0.037h-2.307v2.725h-0.909v-8.593
			h3.216c2.185,0,3.511,1.105,3.511,2.946c0,1.351-0.712,2.295-1.964,2.7l2.099,2.946H637.919z M637.871,966.022
			c0-1.375-0.909-2.161-2.627-2.161h-2.283v4.309h2.283C636.962,968.17,637.871,967.373,637.871,966.022z"/>
		<path style="fill:#FFFFFF;" d="M658.724,963.076v8.593h-0.871v-6.874l-3.376,5.782h-0.429l-3.376-5.745v6.837h-0.872v-8.593h0.749
			l3.732,6.371l3.695-6.371H658.724z"/>
		<path style="fill:#FFFFFF;" d="M675.787,969.374h-4.788l-1.031,2.295h-0.946l3.928-8.593h0.896l3.928,8.593h-0.957
			L675.787,969.374z M675.455,968.637l-2.062-4.615l-2.062,4.615H675.455z"/>
		<path style="fill:#FFFFFF;" d="M689.312,963.862h-3.02v-0.786h6.948v0.786h-3.02v7.807h-0.908V963.862z"/>
		<path style="fill:#FFFFFF;" d="M702.605,970.626l0.356-0.7c0.614,0.601,1.706,1.043,2.835,1.043c1.608,0,2.308-0.675,2.308-1.522
			c0-2.357-5.29-0.908-5.29-4.087c0-1.265,0.982-2.357,3.167-2.357c0.97,0,1.976,0.282,2.664,0.761l-0.307,0.724
			c-0.737-0.479-1.596-0.712-2.357-0.712c-1.571,0-2.271,0.7-2.271,1.559c0,2.357,5.29,0.933,5.29,4.063
			c0,1.265-1.006,2.344-3.204,2.344C704.508,971.742,703.243,971.288,702.605,970.626z"/>
	</g>
</g>
<g>
</g>
<path style="fill:#754C28;" d="M295.405,702.969c-0.603-0.256-1.192-0.782-1.768-1.576c-0.577-0.794-1.153-1.884-1.73-3.268
	c-0.577-1.384-1.263-3.178-2.057-5.382l-14.455-41.096l-5.382,4.152v0.538c0,1.051-0.077,2.076-0.231,3.076
	c-0.154,1-0.436,2.025-0.846,3.076l-11.341,31.486c-0.743,2.051-1.442,3.69-2.095,4.921c-0.654,1.23-1.307,2.179-1.961,2.845
	c-0.653,0.667-1.378,1.102-2.172,1.307c-0.795,0.205-1.718,0.307-2.768,0.307v1.576h17.338v-1.576h-2.998
	c-1.154,0-2.044-0.274-2.672-0.825c-0.629-0.549-0.942-1.297-0.942-2.244c0-0.306,0.025-0.658,0.077-1.055
	c0.051-0.396,0.154-0.825,0.307-1.285l3.96-11.968h16.839l4.498,12.581c0.102,0.154,0.192,0.428,0.269,0.825
	c0.077,0.396,0.115,0.799,0.115,1.208c0,0.947-0.275,1.643-0.826,2.091c-0.551,0.448-1.301,0.671-2.249,0.671h-2.191v1.576h19.03
	v-1.576h-1.5C296.757,703.354,296.007,703.226,295.405,702.969z M264.592,683.055l7.266-22.067l7.612,22.067H264.592z
	 M391.004,703.2c0.978,0.103,2.038,0.154,3.18,0.154v1.576h-22.49v-1.576c1.395,0,2.574-0.089,3.539-0.269
	c0.964-0.179,1.745-0.531,2.341-1.057c0.596-0.525,1.021-1.288,1.275-2.287c0.254-1,0.381-2.319,0.381-3.96l-0.462-32.908h-0.154
	l-21.198,42.057h-1.501c-0.461-1.153-0.878-2.191-1.25-3.114c-0.373-0.922-0.757-1.851-1.155-2.787
	c-0.398-0.936-0.847-1.942-1.346-3.018c-0.501-1.076-1.059-2.332-1.674-3.767l-12.927-28.49l-2.116,32.754
	c-0.025,0.359-0.038,0.705-0.038,1.038c0,1.077,0.128,1.975,0.384,2.692c0.333,0.923,0.814,1.609,1.442,2.058
	c0.628,0.449,1.377,0.737,2.249,0.865c0.871,0.129,1.833,0.192,2.883,0.192v1.576h-18.882v-1.576c1.05,0,2.076-0.077,3.076-0.231
	c1-0.154,1.909-0.532,2.729-1.134c0.82-0.602,1.505-1.512,2.057-2.729c0.551-1.217,0.929-2.864,1.134-4.94l2.509-28.461
	c0.106-1.2,0.192-2.178,0.258-2.931c0.066-0.754,0.1-1.271,0.1-1.553c0-1.307-0.135-2.352-0.404-3.134
	c-0.269-0.782-0.679-1.384-1.23-1.807c-0.551-0.423-1.276-0.686-2.172-0.789c-0.897-0.102-1.948-0.154-3.152-0.154v-1.576h12.387
	c0.846,1.999,1.519,3.563,2.021,4.69c0.501,1.128,0.905,2.07,1.213,2.826c0.308,0.756,0.609,1.448,0.905,2.076
	c0.295,0.629,0.648,1.416,1.059,2.365l13.396,29.755l15.785-31.101c0.693-1.358,1.27-2.511,1.731-3.46
	c0.462-0.948,0.866-1.813,1.213-2.595c0.347-0.781,0.661-1.512,0.944-2.191c0.282-0.679,0.59-1.467,0.924-2.365h12.487v1.576
	c-0.744,0-1.506,0.039-2.288,0.115c-0.782,0.077-1.486,0.288-2.114,0.634c-0.628,0.346-1.128,0.872-1.499,1.576
	c-0.372,0.705-0.558,1.711-0.558,3.018v33.638c0.051,2.205,0.286,3.909,0.705,5.113c0.419,1.205,0.996,2.083,1.733,2.633
	C389.17,702.771,390.026,703.098,391.004,703.2z M462.287,660.287c-2.422-2.358-5.247-4.21-8.476-5.555
	c-3.23-1.346-6.626-2.018-10.188-2.018c-3.512,0-6.882,0.672-10.111,2.018c-3.229,1.346-6.062,3.197-8.496,5.555
	c-2.435,2.358-4.39,5.139-5.863,8.342c-1.474,3.204-2.211,6.689-2.211,10.456c0,3.306,0.603,6.562,1.807,9.765
	c1.204,3.204,2.98,6.068,5.325,8.592c2.345,2.525,5.196,4.562,8.554,6.113c3.357,1.551,7.189,2.326,11.495,2.326
	c3.152,0,6.272-0.648,9.361-1.942s5.882-3.095,8.381-5.401c2.499-2.307,4.503-5.1,6.017-8.38c1.511-3.28,2.268-6.945,2.268-10.995
	c0-3.768-0.705-7.266-2.114-10.495C466.625,665.438,464.709,662.645,462.287,660.287z M461.191,690.177
	c-0.846,2.755-2.032,5.126-3.556,7.112c-1.525,1.986-3.389,3.556-5.593,4.709c-2.204,1.153-4.64,1.73-7.305,1.73
	c-2.998,0-5.728-0.743-8.189-2.23c-2.461-1.486-4.568-3.453-6.324-5.901c-1.756-2.447-3.12-5.26-4.094-8.438
	c-0.975-3.178-1.462-6.445-1.462-9.803c0-2.409,0.301-4.94,0.904-7.593c0.602-2.652,1.621-5.08,3.056-7.285
	c1.435-2.204,3.326-4.024,5.67-5.459c2.346-1.435,5.249-2.153,8.708-2.153c2.896,0,5.548,0.744,7.958,2.23
	c2.409,1.486,4.453,3.454,6.132,5.901c1.678,2.448,2.991,5.261,3.94,8.438c0.947,3.178,1.422,6.446,1.422,9.803
	C462.46,684.443,462.037,687.422,461.191,690.177z M527.963,653.915h15.992v1.576c-0.999,0-1.825,0.128-2.479,0.384
	c-0.654,0.256-1.18,0.729-1.576,1.419c-0.397,0.691-0.686,1.649-0.865,2.877c-0.18,1.227-0.269,2.838-0.269,4.832v23.01
	c0,3.579-0.634,6.526-1.903,8.843c-1.269,2.317-2.871,4.151-4.806,5.502c-1.935,1.351-4.081,2.291-6.439,2.818
	c-2.359,0.527-4.613,0.792-6.766,0.792c-2.845,0-5.46-0.348-7.843-1.042c-2.383-0.695-4.44-1.763-6.17-3.205
	c-1.73-1.442-3.082-3.308-4.055-5.599c-0.975-2.291-1.462-5.071-1.462-8.34v-27.114c0-1.253-0.109-2.218-0.326-2.895
	c-0.219-0.678-0.545-1.189-0.981-1.534c-0.436-0.345-0.987-0.556-1.653-0.633c-0.667-0.077-1.436-0.115-2.307-0.115v-1.576h17.838
	v1.576c-0.948,0-1.788,0.052-2.517,0.154c-0.731,0.102-1.333,0.377-1.807,0.824c-0.475,0.448-0.84,1.132-1.096,2.052
	c-0.256,0.92-0.384,2.161-0.384,3.72v23.969c0,2.352,0.301,4.564,0.904,6.635c0.602,2.071,1.518,3.873,2.748,5.408
	c1.23,1.534,2.806,2.749,4.729,3.644c1.922,0.895,4.215,1.342,6.881,1.342c4.819,0,8.336-1.322,10.553-3.969
	c2.217-2.646,3.326-6.27,3.326-10.872v-20.901c0-2.992-0.071-5.299-0.211-6.922c-0.141-1.624-0.461-2.812-0.961-3.567
	c-0.499-0.754-1.23-1.195-2.191-1.323c-0.96-0.127-2.261-0.192-3.902-0.192V653.915z M609.449,702.969
	c-0.603-0.256-1.192-0.782-1.768-1.576c-0.576-0.794-1.154-1.884-1.73-3.268c-0.576-1.384-1.262-3.178-2.057-5.382l-14.455-41.096
	l-5.382,4.152v0.538c0,1.051-0.077,2.076-0.231,3.076c-0.154,1-0.436,2.025-0.847,3.076l-11.341,31.486
	c-0.744,2.051-1.441,3.69-2.095,4.921s-1.307,2.179-1.961,2.845c-0.654,0.667-1.378,1.102-2.173,1.307
	c-0.794,0.205-1.717,0.307-2.768,0.307v1.576h17.338v-1.576h-2.998c-1.154,0-2.044-0.274-2.672-0.825
	c-0.628-0.549-0.942-1.297-0.942-2.244c0-0.306,0.025-0.658,0.077-1.055c0.051-0.396,0.154-0.825,0.307-1.285l3.96-11.968h16.839
	l4.497,12.581c0.103,0.154,0.192,0.428,0.269,0.825c0.077,0.396,0.116,0.799,0.116,1.208c0,0.947-0.276,1.643-0.827,2.091
	c-0.551,0.448-1.301,0.671-2.248,0.671h-2.191v1.576h19.029v-1.576h-1.499C610.801,703.354,610.051,703.226,609.449,702.969z
	 M578.636,683.055l7.266-22.067l7.611,22.067H578.636z M666.396,683.274h18.184v1.576c-0.846,0-1.582,0.052-2.211,0.154
	c-0.628,0.103-1.167,0.283-1.615,0.538c-0.448,0.257-0.775,0.673-0.98,1.25c-0.205,0.576-0.308,1.34-0.308,2.287v13.302
	c-2.102,0.743-4.177,1.352-6.228,1.826c-2.05,0.475-3.978,0.839-5.785,1.096c-1.807,0.256-3.422,0.442-4.844,0.557
	c-1.423,0.115-2.519,0.173-3.287,0.173c-4.563,0-8.528-0.814-11.899-2.441c-3.37-1.627-6.184-3.716-8.439-6.266
	c-2.255-2.55-3.934-5.388-5.036-8.516c-1.102-3.126-1.653-6.176-1.653-9.149c0-3.511,0.698-6.888,2.095-10.13
	c1.396-3.242,3.339-6.094,5.825-8.554c2.485-2.461,5.465-4.427,8.938-5.901c3.473-1.473,7.285-2.21,11.437-2.21
	c2.05,0,3.991,0.134,5.825,0.404c1.831,0.269,3.549,0.596,5.151,0.98c1.602,0.384,3.069,0.788,4.402,1.211
	c1.333,0.423,2.499,0.826,3.498,1.211l1.038,9.995h-1.345c-0.206-1-0.546-2.172-1.019-3.518c-0.475-1.346-1.506-2.672-3.095-3.979
	c-1.845-1.512-3.902-2.582-6.17-3.21c-2.268-0.628-4.619-0.942-7.055-0.942c-3.152,0-6.061,0.551-8.727,1.653
	c-2.666,1.102-4.972,2.659-6.919,4.671c-1.948,2.012-3.461,4.434-4.537,7.266c-1.076,2.833-1.614,5.991-1.614,9.477
	c0,3.666,0.576,7.074,1.73,10.226c1.154,3.152,2.742,5.882,4.767,8.188c2.025,2.307,4.402,4.114,7.132,5.421
	c2.729,1.307,5.67,1.961,8.822,1.961c1.051,0,2.493-0.166,4.326-0.5c1.831-0.333,3.799-1.128,5.901-2.384v-10.726
	c0-1.307-0.134-2.313-0.404-3.018c-0.269-0.705-0.647-1.243-1.134-1.615c-0.487-0.371-1.128-0.596-1.922-0.673
	c-0.795-0.077-1.743-0.115-2.845-0.115V683.274z M748.6,694.259c-0.205,0.756-0.391,1.431-0.558,2.028
	c-0.167,0.597-0.339,1.242-0.518,1.937c-0.18,0.694-0.391,1.504-0.634,2.43c-0.244,0.926-0.519,2.351-0.827,4.276h-39.059v-2.153
	c1,0,1.909-0.088,2.73-0.265c0.819-0.176,1.518-0.498,2.095-0.965c0.576-0.466,1.018-1.128,1.326-1.986
	c0.308-0.857,0.461-1.979,0.461-3.366v-35.178c0-1.236-0.154-2.213-0.461-2.932c-0.308-0.718-0.737-1.248-1.288-1.589
	c-0.552-0.34-1.249-0.561-2.096-0.662c-0.846-0.101-1.767-0.151-2.768-0.151v-1.768h35.368l0.231,10.344l-1.268,0.152
	c-0.257-2.971-1.359-5.105-3.306-6.4c-1.948-1.295-4.434-1.943-7.458-1.943h-10.188v20.913h11.187c1.154,0,2.069-0.198,2.749-0.596
	c0.679-0.397,1.178-0.897,1.499-1.499c0.32-0.602,0.532-1.269,0.634-1.999c0.102-0.731,0.153-1.442,0.153-2.134h1.654v15.839h-1.654
	c0-1-0.038-1.922-0.115-2.768c-0.077-0.846-0.314-1.557-0.712-2.133c-0.397-0.577-0.999-1.019-1.807-1.326
	c-0.807-0.308-1.941-0.461-3.402-0.461h-10.188V696c0,1.515,0.225,2.721,0.673,3.62c0.448,0.898,1.057,1.579,1.826,2.041
	c0.768,0.463,1.659,0.777,2.672,0.944c1.011,0.167,2.095,0.25,3.248,0.25c0.692,0,1.627-0.013,2.806-0.039
	c1.179-0.025,2.403-0.079,3.671-0.159c1.269-0.08,2.467-0.194,3.595-0.342c1.127-0.147,1.973-0.355,2.537-0.624
	c1.512-0.779,2.691-1.825,3.537-3.141c0.847-1.315,1.64-2.817,2.383-4.509L748.6,694.259z M644.756,436.121
	c-2.363,0-4.17,1.314-4.17,1.314s0.73-1.236,0.73-3.086c0-1.46-1.303-5.682-5.526-5.682c-0.912,0-1.312,0.178-1.251,0.538
	c0.065,0.387,1.407,0.973,1.407,3.059c0,2.085-1.303,3.284-2.19,4.223c-0.886,0.938-2.537,2.502-2.137,7.037
	c-1.929,0-5.083-0.964-7.09-3.753c-4.926-6.845-8.934-18.878-10.227-23.083c-0.982-4.289-3.528-16.713-2.685-25.105
	c0.344-3.419,2.593-5.831,4.263-6.795c1.922,4.127,4.133,4.657,5.37,5.026c1.236,0.37,2.965,0.757,4.008,2.562
	c1.043,1.806,0.173,2.985,0.31,3.353c0.127,0.342,0.562,0.297,1.352-0.16c3.657-2.111,2.674-6.419,1.944-7.684
	c-0.925-1.603-2.175-2.308-2.175-2.308s2.222,0.234,4.268-0.947c5.17-2.984,2.913-7.31,5.952-16.799
	c-9.738-2.113-12.355-6.23-17.525-3.246c-2.046,1.182-2.954,3.223-2.954,3.223s0.014-1.435-0.912-3.037
	c-0.73-1.264-3.969-4.27-7.626-2.159c-0.79,0.456-1.047,0.811-0.814,1.092c0.249,0.302,1.706,0.139,2.748,1.945
	c1.043,1.806,0.513,3.496,0.215,4.751c-0.299,1.256-0.946,3.436,1.667,7.164c-1.671,0.965-4.884,1.706-8.017,0.294
	c-7.688-3.465-17.176-11.882-20.398-14.877c-2.994-3.223-11.412-12.71-14.877-20.399c-1.412-3.132-0.67-6.346,0.295-8.016
	c3.728,2.614,5.908,1.966,7.164,1.667c1.255-0.298,2.945-0.828,4.751,0.215c1.806,1.043,1.642,2.499,1.945,2.748
	c0.281,0.233,0.635-0.024,1.091-0.814c2.112-3.657-0.893-6.897-2.158-7.626c-1.603-0.925-3.037-0.911-3.037-0.911
	s2.041-0.908,3.222-2.954c2.985-5.17-1.132-7.788-3.245-17.525c-9.489,3.039-13.815,0.782-16.8,5.952
	c-1.181,2.046-0.947,4.268-0.947,4.268s-0.706-1.25-2.308-2.175c-1.264-0.731-5.572-1.713-7.684,1.944
	c-0.456,0.789-0.501,1.225-0.159,1.352c0.367,0.138,1.547-0.732,3.353,0.31c1.806,1.043,2.193,2.771,2.562,4.008
	c0.369,1.236,0.898,3.449,5.026,5.37c-0.964,1.671-3.377,3.92-6.796,4.263c-8.391,0.843-20.815-1.702-25.104-2.685
	c-4.205-1.293-16.238-5.302-23.083-10.227c-2.789-2.007-3.753-5.161-3.753-7.09c4.535,0.399,6.099-1.251,7.038-2.137
	c0.938-0.886,2.137-2.19,4.223-2.19c2.085,0,2.672,1.342,3.059,1.408c0.36,0.06,0.538-0.339,0.538-1.251
	c0-4.223-4.223-5.526-5.682-5.526c-1.851,0-3.086,0.73-3.086,0.73s1.314-1.807,1.314-4.17c0-5.969-4.874-6.177-11.573-13.554
	c-6.699,7.376-11.573,7.585-11.573,13.554c0,2.363,1.314,4.17,1.314,4.17s-1.236-0.73-3.086-0.73c-1.46,0-5.682,1.303-5.682,5.526
	c0,0.912,0.178,1.311,0.538,1.251c0.387-0.065,0.973-1.408,3.059-1.408c2.085,0,3.284,1.303,4.223,2.19
	c0.938,0.886,2.502,2.536,7.038,2.137c0,1.929-0.964,5.083-3.753,7.09c-6.845,4.926-18.878,8.934-23.083,10.227
	c-4.289,0.982-16.713,3.528-25.104,2.684c-3.419-0.343-5.831-2.593-6.796-4.263c4.127-1.922,4.657-4.134,5.026-5.37
	c0.369-1.236,0.756-2.965,2.562-4.008c1.806-1.043,2.985-0.173,3.353-0.31c0.342-0.127,0.297-0.563-0.159-1.352
	c-2.111-3.657-6.42-2.675-7.684-1.945c-1.603,0.925-2.308,2.176-2.308,2.176s0.235-2.222-0.947-4.269
	c-2.984-5.169-7.31-2.913-16.8-5.951c-2.113,9.737-6.23,12.355-3.246,17.524c1.183,2.047,3.224,2.955,3.224,2.955
	s-1.435-0.015-3.038,0.911c-1.264,0.73-4.27,3.97-2.159,7.627c0.456,0.789,0.811,1.047,1.092,0.814
	c0.302-0.25,0.139-1.706,1.945-2.748c1.806-1.043,3.496-0.513,4.751-0.215c1.256,0.298,3.436,0.946,7.164-1.667
	c0.964,1.67,1.706,4.884,0.294,8.016c-3.465,7.689-11.882,17.176-14.877,20.399c-3.222,2.995-12.71,11.412-20.399,14.877
	c-3.132,1.412-6.345,0.67-8.016-0.294c2.614-3.728,1.966-5.908,1.668-7.164c-0.298-1.255-0.828-2.945,0.215-4.751
	c1.043-1.806,2.499-1.643,2.748-1.945c0.233-0.282-0.024-0.636-0.814-1.092c-3.657-2.111-6.897,0.894-7.627,2.158
	c-0.925,1.602-0.911,3.037-0.911,3.037s-0.908-2.041-2.954-3.223c-5.169-2.984-7.787,1.133-17.525,3.246
	c3.039,9.489,0.783,13.815,5.952,16.799c2.046,1.182,4.268,0.947,4.268,0.947s-1.249,0.705-2.175,2.308
	c-0.73,1.264-1.712,5.572,1.944,7.684c0.789,0.456,1.225,0.502,1.353,0.16c0.137-0.368-0.733-1.547,0.31-3.353
	c1.043-1.806,2.771-2.193,4.008-2.562c1.236-0.369,3.449-0.898,5.37-5.026c1.671,0.964,3.92,3.376,4.263,6.795
	c0.843,8.391-1.702,20.816-2.685,25.105c-1.293,4.205-5.302,16.238-10.227,23.083c-2.007,2.789-5.161,3.753-7.09,3.753
	c0.4-4.535-1.251-6.099-2.137-7.037c-0.886-0.938-2.189-2.137-2.189-4.223c0-2.085,1.342-2.672,1.408-3.059
	c0.061-0.36-0.339-0.538-1.251-0.538c-4.223,0-5.526,4.223-5.526,5.682c0,1.851,0.73,3.086,0.73,3.086s-1.808-1.314-4.171-1.314
	c-5.969,0-6.177,4.874-13.554,11.573c7.376,6.699,7.585,11.573,13.554,11.573c2.363,0,4.171-1.314,4.171-1.314
	s-0.73,1.236-0.73,3.086c0,1.46,1.303,5.682,5.526,5.682c0.912,0,1.312-0.178,1.251-0.538c-0.065-0.387-1.408-0.973-1.408-3.059
	s1.303-3.284,2.189-4.223c0.886-0.938,2.537-2.502,2.137-7.038c1.929,0,5.083,0.964,7.09,3.753
	c4.926,6.845,8.934,18.879,10.227,23.082c0.982,4.289,3.528,16.714,2.684,25.104c-0.343,3.419-2.592,5.832-4.262,6.797
	c-1.922-4.128-4.134-4.658-5.37-5.027c-1.237-0.368-2.965-0.756-4.008-2.561c-1.043-1.807-0.173-2.986-0.31-3.353
	c-0.128-0.342-0.564-0.296-1.353,0.16c-3.656,2.111-2.674,6.419-1.944,7.683c0.925,1.603,2.175,2.308,2.175,2.308
	s-2.222-0.235-4.268,0.948c-5.169,2.985-2.913,7.31-5.952,16.799c9.738,2.113,12.356,6.229,17.525,3.245
	c2.046-1.181,2.954-3.222,2.954-3.222s-0.014,1.434,0.911,3.037c0.73,1.264,3.97,4.27,7.627,2.159
	c0.789-0.456,1.047-0.811,0.814-1.091c-0.249-0.303-1.706-0.14-2.748-1.945c-1.043-1.807-0.513-3.496-0.215-4.752
	c0.298-1.256,0.946-3.436-1.668-7.163c1.671-0.964,4.884-1.707,8.016-0.295c7.689,3.465,17.177,11.882,20.399,14.877
	c2.995,3.222,11.412,12.71,14.877,20.399c1.412,3.133,0.67,6.347-0.294,8.017c-3.728-2.613-5.908-1.966-7.164-1.668
	c-1.255,0.298-2.945,0.827-4.751-0.215c-1.806-1.043-1.643-2.499-1.945-2.748c-0.281-0.233-0.636,0.024-1.091,0.815
	c-2.111,3.657,0.894,6.896,2.158,7.626c1.603,0.927,3.037,0.912,3.037,0.912s-2.04,0.907-3.223,2.955
	c-2.984,5.169,1.133,7.787,3.246,17.524c9.489-3.04,13.815-0.784,16.799-5.953c1.182-2.046,0.947-4.268,0.947-4.268
	s0.705,1.249,2.308,2.175c1.264,0.731,5.573,1.712,7.684-1.943c0.455-0.79,0.5-1.225,0.159-1.352
	c-0.367-0.137-1.547,0.732-3.353-0.311c-1.806-1.043-2.193-2.771-2.562-4.008c-0.37-1.236-0.899-3.447-5.026-5.369
	c0.964-1.671,3.376-3.92,6.796-4.263c8.391-0.844,20.815,1.701,25.104,2.685c4.205,1.294,16.239,5.301,23.083,10.227
	c2.789,2.007,3.753,5.161,3.753,7.09c-4.535-0.401-6.099,1.251-7.038,2.137c-0.938,0.886-2.137,2.189-4.223,2.189
	c-2.085,0-2.672-1.342-3.059-1.407c-0.36-0.062-0.538,0.339-0.538,1.251c0,4.223,4.223,5.526,5.682,5.526
	c1.851,0,3.086-0.73,3.086-0.73s-1.314,1.807-1.314,4.17c0,5.969,4.874,6.177,11.573,13.554c6.699-7.376,11.573-7.585,11.573-13.554
	c0-2.364-1.314-4.17-1.314-4.17s1.236,0.73,3.086,0.73c1.46,0,5.682-1.303,5.682-5.526c0-0.912-0.178-1.313-0.538-1.251
	c-0.387,0.065-0.973,1.407-3.059,1.407c-2.085,0-3.284-1.303-4.223-2.189c-0.938-0.886-2.502-2.538-7.038-2.137
	c0-1.929,0.964-5.083,3.753-7.09c6.845-4.926,18.878-8.934,23.083-10.227c4.289-0.982,16.713-3.529,25.104-2.685
	c3.419,0.344,5.831,2.592,6.796,4.263c-4.128,1.921-4.657,4.133-5.026,5.369c-0.37,1.237-0.757,2.965-2.562,4.008
	c-1.806,1.043-2.985,0.173-3.353,0.311c-0.342,0.127-0.297,0.562,0.16,1.352c2.111,3.657,6.419,2.673,7.684,1.943
	c1.603-0.925,2.308-2.175,2.308-2.175s-0.234,2.222,0.948,4.268c2.984,5.171,7.31,2.913,16.799,5.953
	c2.113-9.738,6.23-12.355,3.245-17.526c-1.181-2.046-3.222-2.953-3.222-2.953s1.435,0.013,3.037-0.912
	c1.264-0.73,4.269-3.968,2.158-7.626c-0.456-0.79-0.81-1.048-1.091-0.815c-0.302,0.249-0.139,1.706-1.945,2.748
	c-1.806,1.043-3.496,0.513-4.752,0.215c-1.255-0.298-3.435-0.947-7.163,1.668c-0.964-1.671-1.706-4.884-0.294-8.017
	c3.465-7.689,11.882-17.177,14.877-20.399c3.222-2.994,12.71-11.412,20.398-14.877c3.133-1.412,6.346-0.67,8.017,0.295
	c-2.614,3.727-1.966,5.907-1.667,7.163c0.298,1.256,0.828,2.945-0.215,4.752c-1.043,1.805-2.499,1.642-2.748,1.945
	c-0.233,0.28,0.024,0.635,0.814,1.091c3.657,2.111,6.897-0.894,7.626-2.159c0.926-1.603,0.912-3.037,0.912-3.037
	s0.908,2.041,2.955,3.222c5.169,2.984,7.786-1.132,17.524-3.245c-3.039-9.489-0.783-13.814-5.952-16.801
	c-2.046-1.181-4.268-0.947-4.268-0.947s1.25-0.705,2.175-2.308c0.73-1.264,1.713-5.571-1.944-7.683
	c-0.79-0.456-1.225-0.502-1.352-0.16c-0.137,0.367,0.732,1.546-0.31,3.353c-1.043,1.805-2.771,2.193-4.008,2.562
	c-1.237,0.368-3.448,0.898-5.37,5.026c-1.671-0.964-3.92-3.377-4.263-6.797c-0.843-8.39,1.702-20.815,2.685-25.104
	c1.293-4.204,5.301-16.237,10.227-23.082c2.007-2.789,5.161-3.753,7.09-3.753c-0.4,4.535,1.251,6.099,2.137,7.038
	c0.886,0.938,2.19,2.137,2.19,4.223s-1.342,2.672-1.407,3.059c-0.061,0.36,0.339,0.538,1.251,0.538c4.222,0,5.526-4.222,5.526-5.682
	c0-1.851-0.73-3.086-0.73-3.086s1.807,1.314,4.17,1.314c5.969,0,6.177-4.874,13.554-11.573
	C650.933,440.995,650.725,436.121,644.756,436.121z M606.714,476.665l-0.001,0.003c-1.977,7.152-4.76,21.616-3.03,31.705
	c-9.602,3.545-20.737,13.189-25.941,18.475l-0.003,0.003c-5.287,5.205-14.931,16.34-18.476,25.941
	c-10.088-1.73-24.553,1.054-31.704,3.03l-0.004,0.002c-7.181,1.864-21.1,6.686-28.971,13.228
	c-7.872-6.542-21.79-11.364-28.971-13.228l-0.004-0.002c-7.151-1.976-21.616-4.76-31.704-3.03
	c-3.546-9.602-13.189-20.737-18.476-25.941l-0.003-0.003c-5.204-5.286-16.339-14.931-25.941-18.475
	c1.73-10.089-1.053-24.553-3.03-31.705l-0.001-0.003c-1.864-7.181-6.686-21.1-13.228-28.971c6.542-7.872,11.364-21.79,13.228-28.971
	l0.001-0.004c1.977-7.151,4.76-21.616,3.03-31.704c9.602-3.547,20.737-13.189,25.941-18.476l0.003-0.003
	c5.287-5.204,14.93-16.34,18.476-25.941c10.088,1.73,24.553-1.053,31.704-3.03l0.004-0.001c7.181-1.864,21.1-6.686,28.971-13.228
	c7.872,6.542,21.79,11.364,28.971,13.228l0.004,0.001c7.151,1.977,21.616,4.76,31.704,3.03c3.546,9.602,13.189,20.737,18.476,25.941
	l0.003,0.003c5.204,5.287,16.34,14.93,25.941,18.476c-1.73,10.088,1.053,24.553,3.03,31.704l0.001,0.004
	c1.864,7.181,6.686,21.1,13.228,28.971C613.399,455.566,608.577,469.484,606.714,476.665z M426.121,439.822
	c0-11.104,5.526-17.881,8.914-20.279l-0.938-6.256c-10.061,7.35-9.592,18.819-9.592,22.989c0,4.171,1.408,11.052,1.408,11.052
	l0.782-0.156C426.695,447.173,426.121,443.732,426.121,439.822z M488.191,493.603l1.39,5.456l4.9-3.509l-1.46-5.457L488.191,493.603
	z M563.485,413.288l-0.938,6.256c3.388,2.398,8.914,9.175,8.914,20.279c0,3.91-0.573,7.35-0.573,7.35l0.782,0.156
	c0,0,1.407-6.881,1.407-11.052C573.076,432.107,573.546,420.638,563.485,413.288z M503.1,495.55l4.9,3.509l1.39-5.456l-4.831-3.511
	L503.1,495.55z M577.899,402.549c-8.237-12.616-20.018-23.771-34.302-32.425c-2.422-1.468-5.429-3.029-8.76-4.624
	c3.428-3.348,4.511-5.281,4.511-5.281l1.147-7.924c-2.027,3.656-5.696,7.486-10.104,11.136c-8.463-3.833-18.156-7.719-25.684-10.876
	c9.696-5.474,13.085-9.801,13.085-9.801l0.052-4.796c-10.739,8.914-19.067,12.172-19.067,12.172s-8.328-3.258-19.067-12.172
	l0.052,4.796c0,0,3.388,4.327,13.085,9.801c-7.523,3.154-17.208,7.038-25.668,10.867c-4.403-3.647-8.068-7.475-10.094-11.128
	l1.147,7.924c0,0,1.082,1.93,4.503,5.272c-3.338,1.599-6.351,3.163-8.777,4.633c-14.284,8.654-26.065,19.809-34.302,32.425
	c-8.237,12.616-12.942,25.492-12.942,46.526c0,50.052,41.218,90.627,92.062,90.627h0.002c50.844,0,92.061-40.575,92.061-90.627
	C590.84,428.041,586.135,415.165,577.899,402.549z M475.993,365.189c8.911-3.765,22.785-9.713,22.785-9.713
	s13.874,5.949,22.785,9.713c1.427,0.603,2.815,1.219,4.181,1.838c-6.186,4.494-13.1,8.491-18.821,11.229
	c-3.121,1.494-5.793,2.803-8.132,3.979c-2.339-1.176-5.01-2.485-8.132-3.979c-5.724-2.74-12.641-6.74-18.83-11.237
	C473.189,366.403,474.571,365.79,475.993,365.189z M498.778,535.951c-49.801,0-90.172-38.117-90.172-85.137
	c0-39.194,27.629-61.61,34.302-66.823c5.253-4.104,13.574-9.52,24.096-14.692c2.918,2.407,6.724,5.214,11.666,8.332
	c4.958,3.128,9.469,5.716,13.633,7.987c-6.297,3.429-9.532,5.733-14.649,9.19c-3.21,2.168-8.503,6.968-13.009,13.929
	c-12.299,1.031-23.258,2.806-23.405,2.953c-0.209,0.209-0.051,4.744,0.366,5.3c0.417,0.556,3.389,1.129,13.815,5.161
	c0.926,0.358,1.808,0.714,2.668,1.069c-1.079,3.913-1.73,8.152-1.73,12.693c0,1.725,0.073,3.401,0.199,5.037
	c-10.099,0.562-13.354,2.75-15.473,4.398c-6.812,5.299-8.254,24.171,7.732,34.945c12.115,8.163,23.028,9.659,30.177,8.393
	c3.542,4.935,6.349,10.04,6.349,16.768c0,10.426-10.217,13.692-16.995,13.692c-9.613,0-16.213-4.328-19.757-8.375
	c-2.914-3.328-3.649-6.62-3.649-6.62s2.033,0.626,4.718,0.573c9.402-0.182,8.68-6.985,8.68-7.715c0-0.73,0-6.047-6.881-6.047
	c-7.437,0-9.036,7.367-9.036,7.367c-2.198-0.668-3.788-1.632-3.788-1.632s0.625-3.753,0.625-6.047
	c0-10.113-5.213-14.805-5.839-14.805c-0.521,0-7.924,3.545-7.194,12.303c0.949,11.382,15.952,15.326,15.952,15.326
	c3.701,16.89,21.373,20.644,28.046,20.644c6.673,0,16.578-3.128,16.578-18.663c0-6.034-2.258-11.702-5.514-17.299
	c1.288-0.38,2.403-0.857,3.324-1.4c5.908-3.475,10.287-10.911,10.287-22.727c0-6.223-0.635-10.47-1.946-14.354
	c-1.492-4.424-3.789-7.993-3.789-7.993c4.501-2.867,7.473-7.125,7.473-7.125l0.208-4.135c-4.414,5.595-10.331,7.472-10.331,7.472
	c-4.17-5.109-8.663-8.497-8.663-8.497c4.236-3.31,7.944-4.705,10.582-6.447c2.277-1.503,3.05-7.976,3.241-9.401
	c0.166-1.241-0.2-1.981-0.756-2.815c-0.556-0.834-2.277-2.728-10.896-2.728c-3.147,0-6.48,0.124-9.818,0.326
	c1.14-1.336,2.378-2.674,3.737-4.01c3.325-3.269,9.571-7.153,15.048-10.113c3.049-1.648,6.294-3.304,9.801-5.134
	c3.507,1.83,6.752,3.486,9.8,5.134c5.477,2.96,11.724,6.845,15.048,10.113c1.359,1.336,2.598,2.674,3.738,4.01
	c-3.338-0.202-6.671-0.326-9.819-0.326c-8.619,0-10.34,1.894-10.895,2.728c-0.556,0.834-0.922,1.574-0.756,2.815
	c0.191,1.425,0.964,7.898,3.241,9.401c2.638,1.742,6.346,3.137,10.582,6.447c0,0-4.491,3.388-8.662,8.497
	c0,0-5.917-1.877-10.331-7.472l0.208,4.135c0,0,2.971,4.258,7.472,7.125c0,0-2.295,3.569-3.788,7.993
	c-1.311,3.884-1.947,8.131-1.947,14.354c0,11.816,4.38,19.252,10.288,22.727c0.921,0.543,2.036,1.02,3.323,1.4
	c-3.255,5.597-5.513,11.265-5.513,17.299c0,15.535,9.905,18.663,16.577,18.663c6.673,0,24.345-3.753,28.046-20.644
	c0,0,15.003-3.944,15.952-15.326c0.73-8.758-6.673-12.303-7.194-12.303c-0.626,0-5.839,4.692-5.839,14.805
	c0,2.294,0.626,6.047,0.626,6.047s-1.59,0.964-3.788,1.632c0,0-1.599-7.367-9.036-7.367c-6.881,0-6.881,5.317-6.881,6.047
	c0,0.73-0.723,7.533,8.68,7.715c2.685,0.052,4.718-0.573,4.718-0.573s-0.736,3.292-3.649,6.62
	c-3.544,4.047-10.144,8.375-19.757,8.375c-6.777,0-16.994-3.266-16.994-13.692c0-6.728,2.808-11.833,6.349-16.768
	c7.149,1.266,18.062-0.23,30.176-8.393c15.987-10.774,14.545-29.646,7.733-34.945c-2.119-1.649-5.374-3.837-15.473-4.398
	c0.125-1.636,0.199-3.312,0.199-5.037c0-4.541-0.652-8.78-1.73-12.693c0.86-0.355,1.742-0.712,2.668-1.069
	c10.426-4.032,13.397-4.605,13.815-5.161c0.417-0.556,0.573-5.092,0.365-5.3c-0.147-0.147-11.105-1.921-23.404-2.953
	c-4.506-6.961-9.799-11.76-13.009-13.929c-5.118-3.457-8.352-5.76-14.649-9.19c4.163-2.272,8.675-4.86,13.633-7.987
	c4.936-3.115,8.739-5.918,11.656-8.324c10.514,5.169,18.83,10.582,24.079,14.684c6.673,5.213,34.302,27.629,34.302,66.823
	C588.95,497.834,548.578,535.951,498.778,535.951z M468.764,469.797c-5.807-8.526-8.548-16.064-9.665-22.876
	c2.28-0.08,4.653-0.125,7.111-0.217c6.055-0.227,14.092-0.643,20.4-3.614c2.398,3.284,6.412,10.026,6.412,20.035
	c0,8.228-5.237,17.255-15.336,19.355C474.857,478.311,471.712,474.126,468.764,469.797z M474.622,482.882
	c-0.485,0.031-0.976,0.052-1.479,0.052c-9.974,0-18.523-4.361-20.087-5.352c-1.564-0.991-4.102-2.173-8.61-6.586
	c-1.801-1.763-3.508-3.999-4.509-6.23c-1.147-2.554-1.564-5.048-1.564-7.012c0-3.023,1.512-6.898,7.281-8.845
	c1.878-0.634,3.802-1.131,5.908-1.425c1.821-0.254,3.744-0.395,5.743-0.49c2.728,15.782,10.742,26.876,15.699,33.713
	C473.538,481.445,474.079,482.167,474.622,482.882z M461.813,440.813c-1.18,0-2.281,0.02-3.324,0.053
	c-0.028-0.72-0.047-1.434-0.047-2.138c0-4.134,0.57-9.039,2.396-14.34c7.168,3.152,11.367,5.791,11.367,5.791
	c-0.417,0.521-1.026,1.32-1.026,1.32c-0.068,2.433,0.156,4.101,0.156,4.101c1.981-2.364,3.684-3.823,3.684-3.823
	c4.9,2.919,8.48,7.298,8.48,7.298C479.711,440.083,475.506,440.813,461.813,440.813z M455.141,415.721
	c-0.016-0.144,2.316-0.409,5.98-0.658c-0.521,1.103-1.012,2.242-1.466,3.419C456.974,417.076,455.182,416.109,455.141,415.721z
	 M474.811,427.311c-3.987-2.82-8.509-5.319-12.212-7.282c0.797-1.714,1.732-3.456,2.831-5.216c3.978-0.197,8.728-0.343,13.551-0.343
	c9.175,0,9.314,2.641,9.314,3.058c0,0.661-0.035,0.869-4.553,3.302C479.225,423.263,474.811,427.311,474.811,427.311z
	 M444.966,499.147c0.452-1.772,2.146-4.71,6.073-4.71c3.441,0,5.144,2.815,4.796,3.649c-0.348,0.834-1.112,1.981-4.518,1.981
	C447.912,500.067,444.966,499.147,444.966,499.147z M437.486,496.105c-6.568-3.858-9.088-7.715-9.088-9.574
	c0-1.86,3.423-4.223,4.223-4.223c0.798,0,1.355,0.347,3.162,4.483C437.591,490.928,437.486,496.105,437.486,496.105z
	 M536.744,424.388c1.825,5.301,2.396,10.206,2.396,14.34c0,0.704-0.019,1.418-0.047,2.138c-1.043-0.033-2.145-0.053-3.324-0.053
	c-13.692,0-17.898-0.73-21.686-1.737c0,0,3.58-4.379,8.48-7.298c0,0,1.702,1.459,3.684,3.823c0,0,0.225-1.668,0.156-4.101
	c0,0-0.608-0.799-1.025-1.32C525.377,430.178,529.576,427.539,536.744,424.388z M536.46,415.063
	c3.665,0.249,5.997,0.514,5.981,0.658c-0.042,0.388-1.833,1.354-4.514,2.76C537.471,417.305,536.981,416.166,536.46,415.063z
	 M524.577,480.709c4.958-6.837,12.972-17.931,15.7-33.713c2,0.095,3.922,0.235,5.743,0.49c2.106,0.293,4.03,0.791,5.908,1.425
	c5.769,1.947,7.281,5.822,7.281,8.845c0,1.964-0.417,4.457-1.564,7.012c-1.002,2.23-2.709,4.467-4.509,6.23
	c-4.508,4.413-7.047,5.596-8.611,6.586c-1.564,0.99-10.113,5.352-20.087,5.352c-0.503,0-0.995-0.021-1.479-0.052
	C523.502,482.167,524.044,481.445,524.577,480.709z M519.896,482.48c-10.099-2.1-15.337-11.127-15.337-19.355
	c0-10.009,4.014-16.751,6.412-20.035c6.308,2.971,14.346,3.387,20.401,3.614c2.457,0.092,4.831,0.137,7.111,0.217
	c-1.118,6.813-3.859,14.351-9.665,22.876C525.87,474.126,522.724,478.311,519.896,482.48z M522.771,427.311
	c0,0-4.414-4.048-8.932-6.481c-4.517-2.433-4.552-2.642-4.552-3.302c0-0.417,0.139-3.058,9.314-3.058
	c4.824,0,9.573,0.146,13.551,0.343c1.1,1.76,2.035,3.502,2.832,5.216C531.279,421.992,526.757,424.491,522.771,427.311z
	 M561.798,486.792c1.807-4.136,2.364-4.483,3.163-4.483c0.799,0,4.223,2.362,4.223,4.223c0,1.859-2.519,5.716-9.088,9.574
	C560.096,496.105,559.991,490.928,561.798,486.792z M552.615,499.147c0,0-2.945,0.92-6.352,0.92c-3.406,0-4.17-1.147-4.517-1.981
	c-0.348-0.834,1.355-3.649,4.796-3.649C550.469,494.437,552.163,497.374,552.615,499.147z"/>
</svg>
