<svg xmlns="http://www.w3.org/2000/svg" xmlns:xlink="http://www.w3.org/1999/xlink" width="300" zoomAndPan="magnify" viewBox="0 0 224.87999 97.5" height="130" preserveAspectRatio="xMidYMid meet" version="1.0"><defs><clipPath id="e8d5a72f97"><path d="M 39 0 L 185.996094 0 L 185.996094 97.003906 L 39 97.003906 Z M 39 0 " clip-rule="nonzero"/></clipPath></defs><g clip-path="url(#e8d5a72f97)"><path fill="#ffffff" d="M 39 -24.921875 L 185.996094 -24.921875 L 185.996094 122.074219 L 39 122.074219 Z M 39 -24.921875 " fill-opacity="1" fill-rule="nonzero"/></g><path fill="#000000" d="M 77.578125 16.4375 L 45.203125 16.4375 C 44.160156 22.027344 49.585938 24.21875 49.585938 24.21875 L 84.15625 24.21875 Z M 87.023438 27.699219 L 54.644531 27.699219 C 53.605469 33.289062 59.027344 35.480469 59.027344 35.480469 L 93.597656 35.480469 Z M 179.789062 16.4375 L 147.410156 16.4375 L 140.835938 24.21875 L 175.40625 24.21875 C 175.40625 24.21875 180.832031 22.027344 179.789062 16.4375 Z M 137.96875 27.699219 L 131.394531 35.480469 L 165.964844 35.480469 C 165.964844 35.480469 171.386719 33.289062 170.347656 27.699219 Z M 128.523438 38.960938 L 125.625 42.390625 C 124.859375 41.640625 123.484375 40.230469 122.625 38.960938 L 100.484375 38.960938 C 100.339844 40.421875 100.144531 41.804688 99.886719 43.011719 L 96.46875 38.960938 L 64.089844 38.960938 C 63.046875 44.550781 68.472656 46.742188 68.472656 46.742188 L 156.519531 46.742188 C 156.519531 46.742188 161.941406 44.550781 160.902344 38.960938 Z M 121.183594 35.480469 L 118.5625 27.699219 L 100.734375 27.699219 C 100.773438 28.917969 100.835938 30.085938 100.835938 31.179688 C 100.835938 32.574219 100.804688 34.035156 100.734375 35.480469 Z M 128.132812 22.433594 C 128.132812 22.433594 127.296875 17.679688 121.847656 15.898438 L 103.183594 15.898438 C 101.339844 18.902344 100.816406 21.925781 100.71875 24.761719 L 120.175781 24.761719 C 120.425781 22.867188 120.699219 22.433594 128.132812 22.433594 Z M 117.949219 58.5625 L 119.855469 58.5625 L 118.902344 56.1875 Z M 100.925781 53.234375 C 98.277344 53.234375 95.988281 55.070312 94.894531 58.5625 L 106.046875 58.5625 C 105.726562 55.152344 104.640625 53.234375 100.925781 53.234375 Z M 100.925781 53.234375 " fill-opacity="1" fill-rule="nonzero"/><path fill="#000000" d="M 73.863281 49.914062 L 73.863281 52.695312 C 73.863281 55.9375 76.492188 58.5625 79.730469 58.5625 L 91.671875 58.5625 C 93.246094 54.015625 97.015625 52.351562 100.429688 52.351562 C 101.191406 52.351562 101.886719 52.464844 102.519531 52.671875 C 106.703125 53.492188 106.925781 52.433594 106.933594 52.257812 L 106.933594 52.230469 C 106.933594 52.230469 106.933594 52.242188 106.933594 52.257812 L 106.933594 58.5625 L 116.761719 58.5625 L 119.734375 51.15625 L 122.707031 58.5625 L 145.261719 58.5625 C 148.503906 58.5625 151.128906 55.9375 151.128906 52.695312 L 151.128906 49.914062 Z M 94.210938 63.539062 C 94.210938 66.320312 94.570312 68.410156 95.1875 69.949219 L 104.929688 69.949219 L 104.929688 66.1875 L 103.25 66.1875 L 103.25 65.433594 L 109.757812 65.433594 L 109.757812 66.1875 L 107.933594 66.1875 L 107.933594 69.949219 L 112.191406 69.949219 L 115.660156 61.300781 L 94.335938 61.300781 C 94.25 62.046875 94.210938 62.792969 94.210938 63.539062 Z M 114.601562 66.910156 L 123.203125 66.910156 L 120.953125 61.300781 L 116.851562 61.300781 Z M 113.382812 69.949219 L 124.425781 69.949219 L 123.507812 67.664062 L 114.300781 67.664062 Z M 137.449219 61.300781 L 123.804688 61.300781 L 127.273438 69.949219 L 137.4375 69.949219 C 139.898438 68.804688 141.601562 66.3125 141.601562 63.421875 L 141.601562 61.300781 Z M 91.046875 61.300781 L 83.386719 61.300781 L 83.386719 63.421875 C 83.386719 66.3125 85.09375 68.804688 87.550781 69.949219 L 92.464844 69.949219 C 91.515625 68.277344 90.914062 66.152344 90.914062 63.539062 C 90.914062 62.746094 90.960938 62 91.046875 61.300781 Z M 103.777344 72.609375 L 97.046875 72.609375 C 98.140625 73.503906 99.480469 73.84375 100.925781 73.84375 C 102.078125 73.84375 103.023438 73.398438 103.777344 72.609375 Z M 103.777344 72.609375 " fill-opacity="1" fill-rule="nonzero"/><path fill="#000000" d="M 128.34375 72.609375 L 128.761719 73.65625 L 130.867188 73.65625 L 130.867188 74.410156 L 123.113281 74.410156 L 123.113281 73.65625 L 125.914062 73.65625 L 125.492188 72.609375 L 112.316406 72.609375 L 111.894531 73.65625 L 113.765625 73.65625 L 113.765625 74.410156 L 108.847656 74.410156 L 108.847656 73.65625 L 110.703125 73.65625 L 111.125 72.609375 L 107.933594 72.609375 L 107.933594 74.730469 C 107.933594 74.730469 107.050781 72.316406 103.804688 73.867188 C 103.804688 73.867188 103.804688 73.863281 103.804688 73.863281 C 102.839844 74.515625 101.710938 74.878906 100.429688 74.878906 C 98.578125 74.878906 96.425781 74.152344 94.636719 72.609375 L 92.671875 72.609375 C 92.644531 72.898438 92.628906 73.195312 92.628906 73.492188 C 92.628906 76.871094 94.507812 79.800781 97.253906 81.257812 L 127.734375 81.257812 C 130.484375 79.800781 132.363281 76.871094 132.363281 73.492188 C 132.363281 73.195312 132.351562 72.898438 132.320312 72.609375 Z M 128.34375 72.609375 " fill-opacity="1" fill-rule="nonzero"/></svg>