<svg xmlns="http://www.w3.org/2000/svg" xmlns:xlink="http://www.w3.org/1999/xlink" width="300" zoomAndPan="magnify" viewBox="0 0 224.87999 97.5" height="130" preserveAspectRatio="xMidYMid meet" version="1.0"><defs><clipPath id="7561e8402f"><path d="M 78 0 L 150.757812 0 L 150.757812 97 L 78 97 Z M 78 0 " clip-rule="nonzero"/></clipPath></defs><path fill="#d1a647" d="M 81.746094 80.679688 C 81.476562 77.835938 80.660156 77.289062 80.394531 73.230469 C 80.132812 69.167969 84.035156 65.90625 84.035156 65.90625 C 84.035156 65.90625 79.585938 71.542969 82.960938 77.425781 C 83.488281 78.339844 83.953125 79.285156 84.351562 80.261719 C 83.5 80.511719 82.628906 80.652344 81.742188 80.679688 M 91.992188 61.859375 C 90.933594 57.148438 92.488281 53.785156 93.683594 52.019531 C 93.585938 54.101562 93.847656 56.515625 94.707031 59.28125 C 95.179688 60.839844 95.609375 62.347656 95.960938 63.808594 C 94.390625 63.621094 92.625 62.921875 91.992188 61.859375 Z M 100.910156 55.214844 C 97.792969 45.394531 99.164062 41.40625 99.164062 41.40625 C 99.164062 41.40625 95.582031 43.613281 94.203125 48.695312 C 91.980469 50.46875 87.996094 55.257812 88.09375 66.585938 C 88.09375 66.585938 91.328125 70.378906 97.074219 70.277344 C 97.574219 77.136719 95.339844 82.574219 87.59375 86.296875 C 88.503906 84.71875 88.867188 82.449219 88.261719 79.691406 C 89.46875 77.96875 89.71875 76.46875 89.71875 76.46875 C 89.230469 77.226562 88.636719 77.886719 87.9375 78.449219 C 87.585938 77.34375 87.144531 76.277344 86.605469 75.25 C 83.371094 69.027344 86.335938 63.75 86.335938 63.75 C 73.902344 69.027344 78.644531 81.757812 78.644531 81.757812 C 76.878906 83.253906 77.828125 84.597656 77.828125 84.597656 C 81.046875 84.4375 83.402344 83.628906 85.121094 82.59375 C 86.3125 87.59375 83.628906 89.460938 83.628906 89.460938 C 104.425781 84.328125 104.027344 64.964844 100.910156 55.214844 Z M 94.203125 41.164062 C 94.390625 41.164062 94.574219 41.144531 94.753906 41.101562 C 94.933594 41.0625 95.109375 41.003906 95.277344 40.921875 C 95.445312 40.84375 95.601562 40.746094 95.746094 40.632812 C 95.894531 40.519531 96.023438 40.390625 96.140625 40.246094 C 96.261719 40.101562 96.359375 39.949219 96.445312 39.78125 C 96.527344 39.617188 96.59375 39.441406 96.636719 39.261719 C 96.683594 39.082031 96.707031 38.898438 96.710938 38.714844 C 96.71875 38.527344 96.699219 38.34375 96.664062 38.160156 C 96.628906 37.980469 96.574219 37.800781 96.5 37.632812 C 96.421875 37.460938 96.332031 37.304688 96.21875 37.152344 C 96.109375 37.003906 95.984375 36.867188 95.84375 36.746094 C 95.703125 36.625 95.550781 36.519531 95.390625 36.433594 C 95.226562 36.347656 95.054688 36.277344 94.875 36.226562 C 94.699219 36.175781 94.515625 36.148438 94.332031 36.140625 C 94.144531 36.128906 93.960938 36.140625 93.777344 36.171875 C 93.597656 36.203125 93.417969 36.253906 93.25 36.328125 C 92.78125 36.519531 92.40625 36.828125 92.121094 37.25 C 91.839844 37.675781 91.699219 38.140625 91.699219 38.648438 C 91.699219 38.980469 91.761719 39.300781 91.890625 39.609375 C 92.015625 39.917969 92.199219 40.1875 92.433594 40.425781 C 92.667969 40.660156 92.9375 40.84375 93.246094 40.972656 C 93.550781 41.097656 93.871094 41.164062 94.203125 41.164062 Z M 94.203125 41.164062 " fill-opacity="1" fill-rule="nonzero"/><g clip-path="url(#7561e8402f)"><path fill="#d1a647" d="M 83.738281 62.015625 C 84.050781 62.015625 84.347656 61.957031 84.632812 61.839844 C 84.917969 61.722656 85.171875 61.554688 85.390625 61.335938 C 85.613281 61.117188 85.78125 60.863281 85.902344 60.578125 C 86.019531 60.292969 86.078125 59.992188 86.082031 59.683594 C 86.082031 59.371094 86.023438 59.074219 85.90625 58.789062 C 85.789062 58.5 85.621094 58.246094 85.402344 58.027344 C 85.183594 57.808594 84.929688 57.636719 84.644531 57.519531 C 84.359375 57.398438 84.0625 57.339844 83.753906 57.339844 C 83.445312 57.335938 83.144531 57.394531 82.859375 57.515625 C 82.574219 57.632812 82.320312 57.800781 82.101562 58.019531 C 81.882812 58.238281 81.714844 58.492188 81.59375 58.777344 C 81.476562 59.066406 81.417969 59.363281 81.417969 59.675781 C 81.414062 60.148438 81.546875 60.578125 81.804688 60.972656 C 82.066406 61.367188 82.414062 61.652344 82.847656 61.835938 C 83.132812 61.953125 83.433594 62.015625 83.738281 62.015625 Z M 80.253906 65.507812 C 80.484375 65.507812 80.710938 65.460938 80.925781 65.371094 C 81.140625 65.285156 81.332031 65.15625 81.496094 64.988281 C 81.660156 64.824219 81.789062 64.632812 81.875 64.417969 C 81.964844 64.203125 82.011719 63.976562 82.011719 63.742188 C 82.011719 63.507812 81.964844 63.285156 81.875 63.066406 C 81.785156 62.851562 81.660156 62.660156 81.496094 62.496094 C 81.328125 62.332031 81.140625 62.203125 80.925781 62.113281 C 80.707031 62.023438 80.484375 61.980469 80.25 61.980469 C 80.019531 61.980469 79.792969 62.023438 79.578125 62.113281 C 79.363281 62.203125 79.171875 62.328125 79.007812 62.496094 C 78.84375 62.660156 78.714844 62.851562 78.625 63.066406 C 78.535156 63.28125 78.492188 63.507812 78.492188 63.742188 C 78.492188 63.976562 78.535156 64.203125 78.625 64.417969 C 78.714844 64.632812 78.839844 64.824219 79.003906 64.992188 C 79.171875 65.15625 79.363281 65.285156 79.578125 65.375 C 79.792969 65.464844 80.019531 65.507812 80.253906 65.507812 Z M 133.910156 73.628906 C 133.910156 73.628906 132.046875 72.753906 128.816406 72.753906 L 109.246094 72.753906 C 112.292969 69.507812 119.386719 62.925781 126.085938 63.65625 C 134.027344 64.53125 133.914062 73.628906 133.914062 73.628906 M 143.746094 42.277344 C 137.964844 34.285156 130.136719 28.421875 127.082031 20.902344 C 121.71875 7.691406 132.890625 0.078125 132.890625 0.078125 C 132.890625 0.078125 119.28125 8.140625 121.5 25.601562 C 121.667969 26.851562 121.976562 28.070312 122.433594 29.25 C 124.109375 33.804688 127.667969 37.847656 131.480469 42.027344 C 136.234375 47.261719 141.382812 52.714844 143.75 59.652344 C 144.820312 63.804688 145.011719 68 144.332031 72.234375 C 143.652344 76.472656 142.15625 80.394531 139.839844 84 C 141.230469 77.785156 139.980469 68.0625 137.230469 63.890625 C 135.367188 60.574219 132.351562 57.96875 127.578125 57.296875 C 122.832031 56.746094 117.925781 60.660156 114.367188 64.421875 C 122.167969 51.054688 120.8125 44.449219 116.875 31.59375 C 112.632812 17.734375 121.09375 12.703125 121.09375 12.703125 C 121.09375 12.703125 106.234375 21.09375 111.675781 39.054688 C 116.148438 53.800781 114.621094 61.273438 110.675781 68.5625 C 108.824219 70.71875 107.25 72.757812 107.25 72.757812 C 106.929688 73.269531 106.597656 73.769531 106.265625 74.289062 C 111.378906 61.101562 110.964844 54.804688 107.3125 43.605469 C 103.46875 31.769531 108.933594 26.664062 108.933594 26.664062 C 108.933594 26.664062 97.75 34.757812 102.96875 51.585938 C 108.1875 68.414062 101.605469 79.730469 101.605469 79.730469 L 131.917969 79.730469 C 132.257812 79.730469 132.589844 79.757812 132.890625 79.769531 C 134.535156 80.089844 136.566406 81.214844 136.414062 85.171875 C 136.285156 88.230469 133.929688 91.023438 130.234375 93.5 C 127.84375 94.996094 125.296875 96.136719 122.59375 96.921875 C 138.609375 94.035156 150.746094 79.992188 150.746094 63.121094 C 150.753906 59.355469 150.15625 55.6875 148.957031 52.121094 C 147.757812 48.554688 146.019531 45.273438 143.746094 42.277344 Z M 143.746094 42.277344 " fill-opacity="1" fill-rule="nonzero"/></g><path stroke-linecap="butt" transform="matrix(0.186397, 0, 0, 0.186906, 77.573302, 0.0796037)" fill-opacity="1" fill="#d1a647" fill-rule="nonzero" stroke-linejoin="miter" d="M 109.042319 439.426499 C 109.042319 439.050307 109.189015 438.674115 109.461451 438.42332 C 109.712931 438.151625 110.069194 438.005328 110.446413 438.005328 C 110.802676 438.005328 111.158939 438.151625 111.431376 438.42332 C 111.682855 438.674115 111.829552 439.050307 111.829552 439.426499 L 111.829552 470.859456 C 111.787638 472.197029 112.206771 473.367405 113.08695 474.370584 C 113.988086 475.352864 115.077831 475.875354 116.419056 475.938052 L 139.72284 475.938052 C 140.079103 475.979851 140.414409 476.167948 140.644932 476.460542 C 140.875455 476.732236 141.001195 477.087529 141.001195 477.463721 C 141.001195 477.839913 140.875455 478.195206 140.644932 478.466901 C 140.393452 478.759495 140.100059 478.926691 139.72284 479.010289 L 116.356186 479.010289 C 112.269641 479.010289 109.000405 475.352864 109.000405 470.817657 Z M 109.042319 439.426499 " stroke="#d1a647" stroke-width="4" stroke-opacity="1" stroke-miterlimit="4"/><path stroke-linecap="butt" transform="matrix(0.186397, 0, 0, 0.186906, 77.573302, 0.0796037)" fill-opacity="1" fill="#d1a647" fill-rule="nonzero" stroke-linejoin="miter" d="M 152.527347 476.000751 L 167.595171 476.000751 C 168.85257 475.958952 170.047098 475.436463 170.927277 474.537781 C 171.786499 473.659999 172.268502 472.468723 172.226589 471.256548 L 172.226589 466.366048 L 152.50639 466.366048 C 151.186122 466.428747 150.054463 466.930337 149.111415 467.891717 C 148.210279 468.832198 147.77019 469.939875 147.812103 471.256548 C 147.791146 471.862636 147.895929 472.468723 148.126453 473.033012 C 148.356976 473.5973 148.692282 474.11979 149.132371 474.558681 C 149.572461 474.997572 150.096377 475.352864 150.662206 475.603659 C 151.248992 475.854454 151.877691 475.979851 152.50639 476.000751 M 167.490388 452.990322 C 168.517263 453.032121 169.502225 453.262016 170.466231 453.659108 C 171.388323 454.0771 172.205632 454.641388 172.918158 455.372873 C 173.630684 456.104358 174.1546 456.919441 174.510862 457.859922 C 174.867125 458.779503 175.034778 459.761783 174.992865 460.744063 L 174.992865 471.256548 C 174.992865 475.499161 171.660759 479.010289 167.574215 479.010289 L 152.527347 479.010289 C 150.473596 478.863992 148.566542 477.98621 147.183404 476.54414 C 145.779309 475.102069 145.003913 473.200208 145.003913 471.235649 C 145.003913 469.271089 145.779309 467.369228 147.183404 465.948057 C 148.650369 464.443287 150.431683 463.607305 152.527347 463.481907 L 172.247545 463.481907 L 172.247545 460.744063 C 172.268502 460.137976 172.163719 459.510988 171.933196 458.9467 C 171.723629 458.361512 171.367366 457.839023 170.948234 457.379232 C 170.487188 456.919441 169.984228 456.564149 169.397442 456.313354 C 168.7897 456.041659 168.181957 455.916262 167.532301 455.895362 L 146.680444 455.895362 C 146.282268 455.874463 145.926005 455.728166 145.632612 455.435572 C 145.360176 455.163877 145.21348 454.829484 145.192523 454.432392 C 145.192523 454.0562 145.360176 453.700907 145.632612 453.429213 C 145.926005 453.136619 146.282268 453.011221 146.680444 452.990322 Z M 167.490388 452.990322 " stroke="#d1a647" stroke-width="4" stroke-opacity="1" stroke-miterlimit="4"/><path stroke-linecap="butt" transform="matrix(0.186397, 0, 0, 0.186906, 77.573302, 0.0796037)" fill-opacity="1" fill="#d1a647" fill-rule="nonzero" stroke-linejoin="miter" d="M 194.629237 475.938052 C 195.551329 476.04255 195.991419 476.54414 195.991419 477.463721 C 195.991419 478.383302 195.551329 478.905792 194.629237 479.010289 L 189.536773 479.010289 C 185.387359 479.010289 182.01334 475.331965 182.01334 470.817657 L 182.01334 439.489198 C 181.992383 439.071207 182.118123 438.715914 182.411516 438.42332 C 182.704909 438.130726 183.040215 437.984429 183.459348 438.005328 C 183.857524 438.005328 184.213787 438.172525 184.486223 438.444219 C 184.75866 438.736813 184.905356 439.092106 184.884399 439.489198 L 184.884399 452.300636 L 194.545411 452.300636 C 194.964543 452.300636 195.320806 452.446933 195.593243 452.760426 C 195.886635 453.05302 196.012375 453.408313 195.991419 453.826305 C 195.991419 454.223397 195.844722 454.578689 195.572286 454.871283 C 195.29985 455.142978 194.92263 455.289275 194.545411 455.310174 L 184.884399 455.310174 L 184.884399 470.901255 C 184.821529 472.238828 185.261619 473.409204 186.162754 474.391484 C 187.06389 475.373764 188.195549 475.896253 189.536773 475.958952 Z M 213.741693 475.938052 C 214.076999 475.979851 214.412305 476.167948 214.642828 476.439642 C 214.873351 476.732236 214.999091 477.087529 214.999091 477.463721 C 214.999091 477.839913 214.873351 478.216106 214.642828 478.4878 C 214.412305 478.780394 214.097956 478.947591 213.741693 479.010289 L 208.984536 479.010289 C 205.128514 479.010289 202.005974 475.331965 202.005974 470.817657 L 202.005974 439.489198 C 201.985018 439.092106 202.089801 438.736813 202.362237 438.444219 C 202.487977 438.297922 202.634674 438.193424 202.802327 438.109826 C 202.96998 438.026228 203.137633 438.005328 203.326243 438.005328 C 203.682506 438.005328 204.017812 438.172525 204.269292 438.444219 C 204.520771 438.736813 204.667468 439.113006 204.667468 439.489198 L 204.667468 452.300636 L 213.63691 452.300636 C 213.825519 452.300636 214.014129 452.321535 214.181782 452.405134 C 214.349435 452.488732 214.496132 452.59323 214.621872 452.739527 C 214.747612 452.885824 214.852395 453.05302 214.915265 453.241117 C 214.978135 453.429213 214.999091 453.638209 214.978135 453.826305 C 214.999091 454.223397 214.873351 454.578689 214.600915 454.871283 C 214.475175 454.996681 214.328479 455.122078 214.160826 455.184777 C 213.993173 455.268375 213.825519 455.310174 213.63691 455.310174 L 204.667468 455.310174 L 204.667468 470.901255 C 204.625554 472.176129 205.044687 473.430104 205.861996 474.391484 C 206.679305 475.331965 207.790007 475.896253 208.984536 475.958952 Z M 213.741693 475.938052 " stroke="#d1a647" stroke-width="4" stroke-opacity="1" stroke-miterlimit="4"/><path stroke-linecap="butt" transform="matrix(0.186397, 0, 0, 0.186906, 77.573302, 0.0796037)" fill-opacity="1" fill="#d1a647" fill-rule="nonzero" stroke-linejoin="miter" d="M 227.510205 476.000751 L 242.557073 476.000751 C 243.185772 475.979851 243.793515 475.854454 244.380301 475.603659 C 244.94613 475.352864 245.470046 474.997572 245.889179 474.558681 C 246.329268 474.11979 246.664575 473.5973 246.874141 473.033012 C 247.104664 472.447824 247.209447 471.862636 247.188491 471.256548 L 247.188491 466.366048 L 227.510205 466.366048 C 226.23185 466.428747 225.037322 466.993035 224.157143 467.891717 C 223.297921 468.811298 222.836875 470.023473 222.878788 471.256548 C 222.857831 471.862636 222.962615 472.447824 223.172181 473.033012 C 223.402704 473.5973 223.73801 474.11979 224.1781 474.558681 C 224.597233 474.997572 225.121149 475.352864 225.686978 475.603659 C 226.273764 475.854454 226.881506 475.979851 227.510205 476.000751 M 242.473247 452.990322 C 243.521079 453.032121 244.506041 453.241117 245.449089 453.659108 C 246.392138 454.0562 247.209447 454.641388 247.921973 455.372873 C 248.613542 456.083458 249.158415 456.919441 249.514678 457.859922 C 249.870941 458.779503 250.038594 459.761783 249.99668 460.744063 L 249.99668 471.256548 C 249.99668 475.499161 246.664575 479.010289 242.536117 479.010289 L 227.510205 479.010289 C 225.414541 478.863992 223.633227 478.048909 222.166262 476.54414 C 220.783124 475.102069 220.007728 473.200208 220.007728 471.235649 C 220.007728 469.271089 220.783124 467.369228 222.166262 465.948057 C 223.633227 464.443287 225.414541 463.607305 227.510205 463.481907 L 247.167534 463.481907 L 247.167534 460.744063 C 247.209447 459.44829 246.769358 458.340612 245.868222 457.400132 C 244.94613 456.438751 243.814472 455.937161 242.494203 455.895362 L 221.68426 455.895362 C 221.286083 455.874463 220.950777 455.728166 220.657384 455.456471 C 220.384948 455.163877 220.238251 454.829484 220.259208 454.432392 C 220.238251 454.244296 220.280165 454.0562 220.343035 453.889003 C 220.405904 453.721807 220.510688 453.55461 220.657384 453.429213 C 220.783124 453.282916 220.950777 453.178418 221.11843 453.115719 C 221.30704 453.032121 221.49565 452.990322 221.68426 452.990322 Z M 242.473247 452.990322 " stroke="#d1a647" stroke-width="4" stroke-opacity="1" stroke-miterlimit="4"/><path stroke-linecap="butt" transform="matrix(0.186397, 0, 0, 0.186906, 77.573302, 0.0796037)" fill-opacity="1" fill="#d1a647" fill-rule="nonzero" stroke-linejoin="miter" d="M 264.372936 441.056666 C 263.115537 441.098465 261.921009 441.662753 261.061786 442.603234 C 260.181608 443.543715 259.720561 444.797689 259.762475 446.072563 L 259.762475 452.467832 L 269.297746 452.467832 C 269.695922 452.488732 270.031228 452.635029 270.303665 452.927623 C 270.576101 453.220217 270.701841 453.57551 270.680884 453.972602 C 270.680884 454.369694 270.534188 454.745886 270.282708 455.01758 C 270.031228 455.310174 269.674966 455.477371 269.297746 455.49827 L 259.762475 455.49827 L 259.762475 477.421922 C 259.825345 477.839913 259.699605 478.195206 259.427168 478.529599 C 259.154732 478.843093 258.798469 479.010289 258.379336 479.010289 C 257.960204 479.010289 257.624897 478.843093 257.352461 478.529599 C 257.080025 478.195206 256.954285 477.839913 257.017155 477.421922 L 257.017155 446.072563 C 256.954285 444.003506 257.687767 441.997147 259.070906 440.492377 C 260.433087 438.987608 262.340141 438.088927 264.372936 438.005328 L 272.608895 438.005328 C 273.007071 438.005328 273.342378 438.151625 273.614814 438.444219 C 273.88725 438.736813 274.01299 439.092106 273.992033 439.489198 C 274.01299 439.88629 273.866294 440.262482 273.614814 440.555076 C 273.363334 440.84767 273.007071 441.014867 272.608895 441.056666 Z M 264.372936 441.056666 " stroke="#d1a647" stroke-width="4" stroke-opacity="1" stroke-miterlimit="4"/><path stroke-linecap="butt" transform="matrix(0.186397, 0, 0, 0.186906, 77.573302, 0.0796037)" fill-opacity="1" fill="#d1a647" fill-rule="nonzero" stroke-linejoin="miter" d="M 281.515467 476.000751 L 296.583292 476.000751 C 297.211991 475.979851 297.819733 475.854454 298.406519 475.603659 C 298.993305 475.352864 299.496265 474.997572 299.936354 474.558681 C 300.355487 474.11979 300.690793 473.5973 300.921316 473.033012 C 301.130882 472.447824 301.235666 471.862636 301.214709 471.256548 L 301.214709 466.366048 L 281.557381 466.366048 C 280.237112 466.428747 279.105454 466.930337 278.183361 467.891717 C 277.282226 468.832198 276.863093 469.939875 276.905006 471.256548 C 276.88405 471.862636 276.988833 472.447824 277.198399 473.012112 C 277.407966 473.576401 277.743272 474.09889 278.162405 474.537781 C 278.602494 474.976672 279.105454 475.331965 279.671283 475.58276 C 280.258069 475.854454 280.865811 475.979851 281.494511 476.000751 M 296.478508 452.990322 C 297.52634 453.032121 298.511302 453.241117 299.454351 453.659108 C 300.376443 454.0562 301.214709 454.641388 301.927235 455.351973 C 302.618804 456.083458 303.163677 456.940341 303.519939 457.859922 C 303.876202 458.779503 304.043855 459.761783 304.001942 460.744063 L 304.001942 471.256548 C 304.001942 475.499161 300.690793 479.010289 296.583292 479.010289 L 281.515467 479.010289 C 277.366052 479.010289 274.01299 475.478262 274.01299 471.256548 C 273.95012 469.145691 274.662646 467.348328 276.129611 465.864458 C 277.617532 464.33879 279.44076 463.544606 281.578337 463.481907 L 301.235666 463.481907 L 301.235666 460.744063 C 301.256622 459.44829 300.816533 458.319713 299.915397 457.379232 C 298.972349 456.438751 297.84069 455.937161 296.520422 455.895362 L 275.731435 455.895362 C 275.333258 455.874463 274.976996 455.707266 274.725516 455.435572 C 274.453079 455.163877 274.306383 454.808585 274.32734 454.432392 C 274.306383 454.0353 274.432123 453.700907 274.704559 453.429213 C 274.830299 453.303815 274.997952 453.199317 275.165605 453.115719 C 275.354215 453.032121 275.521868 453.011221 275.731435 452.990322 Z M 296.478508 452.990322 " stroke="#d1a647" stroke-width="4" stroke-opacity="1" stroke-miterlimit="4"/><path fill="#d1a647" d="M 132.867188 10.257812 L 133.554688 10.257812 C 133.894531 10.257812 134.117188 10.210938 134.234375 10.109375 C 134.367188 10.007812 134.425781 9.878906 134.421875 9.710938 C 134.421875 9.609375 134.390625 9.515625 134.332031 9.429688 C 134.269531 9.347656 134.1875 9.285156 134.09375 9.242188 C 133.90625 9.195312 133.714844 9.175781 133.519531 9.183594 L 132.867188 9.183594 Z M 132.292969 12.257812 L 132.292969 8.707031 L 133.511719 8.707031 C 133.820312 8.691406 134.121094 8.726562 134.414062 8.808594 C 134.605469 8.867188 134.753906 8.980469 134.859375 9.148438 C 134.96875 9.304688 135.019531 9.476562 135.019531 9.664062 C 135.027344 9.929688 134.9375 10.160156 134.75 10.351562 C 134.546875 10.550781 134.300781 10.660156 134.015625 10.675781 C 134.125 10.71875 134.226562 10.78125 134.316406 10.863281 C 134.511719 11.082031 134.6875 11.316406 134.839844 11.566406 L 135.273438 12.261719 L 134.574219 12.261719 L 134.257812 11.699219 C 134.109375 11.386719 133.910156 11.109375 133.664062 10.867188 C 133.523438 10.777344 133.367188 10.738281 133.203125 10.75 L 132.867188 10.75 L 132.867188 12.257812 Z M 133.738281 7.675781 C 133.257812 7.675781 132.804688 7.792969 132.386719 8.03125 C 131.9375 8.265625 131.597656 8.605469 131.355469 9.050781 C 131.113281 9.476562 130.988281 9.9375 130.988281 10.429688 C 130.984375 10.921875 131.105469 11.378906 131.347656 11.808594 C 131.59375 12.242188 131.9375 12.582031 132.375 12.824219 C 132.800781 13.066406 133.257812 13.1875 133.746094 13.1875 C 134.234375 13.1875 134.691406 13.066406 135.117188 12.824219 C 135.554688 12.582031 135.894531 12.242188 136.132812 11.800781 C 136.375 11.375 136.5 10.914062 136.5 10.425781 C 136.5 9.933594 136.375 9.472656 136.132812 9.046875 C 135.890625 8.605469 135.546875 8.265625 135.101562 8.03125 C 134.683594 7.792969 134.234375 7.675781 133.753906 7.675781 M 133.753906 7.117188 C 134.316406 7.121094 134.871094 7.273438 135.355469 7.554688 C 135.886719 7.839844 136.296875 8.25 136.585938 8.78125 C 136.886719 9.289062 137.035156 9.839844 137.03125 10.433594 C 137.03125 11.023438 136.886719 11.574219 136.597656 12.089844 C 136.308594 12.613281 135.898438 13.019531 135.378906 13.308594 C 134.867188 13.597656 134.324219 13.742188 133.738281 13.742188 C 133.15625 13.742188 132.609375 13.597656 132.101562 13.308594 C 131.574219 13.019531 131.164062 12.613281 130.871094 12.089844 C 130.585938 11.574219 130.441406 11.023438 130.441406 10.433594 C 130.445312 9.84375 130.59375 9.289062 130.882812 8.773438 C 131.175781 8.25 131.585938 7.84375 132.113281 7.554688 C 132.617188 7.273438 133.160156 7.128906 133.738281 7.128906 " fill-opacity="1" fill-rule="nonzero"/></svg>