<svg xmlns="http://www.w3.org/2000/svg" xmlns:xlink="http://www.w3.org/1999/xlink" width="300" zoomAndPan="magnify" viewBox="0 0 224.87999 97.5" height="130" preserveAspectRatio="xMidYMid meet" version="1.0"><defs><clipPath id="0f102ab85b"><path d="M 82 6.367188 L 144 6.367188 L 144 41 L 82 41 Z M 82 6.367188 " clip-rule="nonzero"/></clipPath><clipPath id="f64d939ba6"><path d="M 44 64 L 65 64 L 65 90.683594 L 44 90.683594 Z M 44 64 " clip-rule="nonzero"/></clipPath><clipPath id="957ecad4c9"><path d="M 178 64 L 197.710938 64 L 197.710938 90.683594 L 178 90.683594 Z M 178 64 " clip-rule="nonzero"/></clipPath><clipPath id="6cf42bf8e1"><path d="M 26.839844 65 L 48 65 L 48 90.683594 L 26.839844 90.683594 Z M 26.839844 65 " clip-rule="nonzero"/></clipPath><clipPath id="a425372d6c"><path d="M 65 65 L 83 65 L 83 90.683594 L 65 90.683594 Z M 65 65 " clip-rule="nonzero"/></clipPath><clipPath id="7513d5bff7"><path d="M 104 65 L 126 65 L 126 90.683594 L 104 90.683594 Z M 104 65 " clip-rule="nonzero"/></clipPath><clipPath id="a1b5250d20"><path d="M 126 65 L 145 65 L 145 90.683594 L 126 90.683594 Z M 126 65 " clip-rule="nonzero"/></clipPath><clipPath id="0947f06571"><path d="M 146 65 L 155 65 L 155 90.683594 L 146 90.683594 Z M 146 65 " clip-rule="nonzero"/></clipPath><clipPath id="bd093ab782"><path d="M 156 65 L 178 65 L 178 90.683594 L 156 90.683594 Z M 156 65 " clip-rule="nonzero"/></clipPath><clipPath id="dbbd5125c9"><path d="M 85 65 L 103 65 L 103 90.683594 L 85 90.683594 Z M 85 65 " clip-rule="nonzero"/></clipPath></defs><g clip-path="url(#0f102ab85b)"><path fill="#000000" d="M 98.664062 6.464844 C 97.480469 6.503906 96.28125 6.671875 95.125 6.960938 C 91.644531 7.832031 88.496094 9.820312 86.167969 12.609375 C 83.9375 15.285156 82.570312 18.578125 82.265625 22.007812 C 82.210938 22.589844 82.199219 22.914062 82.199219 23.59375 C 82.199219 24.179688 82.203125 24.355469 82.234375 24.796875 C 82.382812 26.992188 82.953125 29.136719 83.917969 31.105469 C 84.664062 32.628906 85.585938 33.976562 86.746094 35.238281 C 86.9375 35.449219 87.421875 35.9375 87.625 36.125 C 89.410156 37.785156 91.441406 39.015625 93.714844 39.808594 C 94.699219 40.148438 95.78125 40.410156 96.835938 40.5625 C 97.34375 40.636719 97.714844 40.671875 98.449219 40.71875 C 98.675781 40.730469 126.113281 40.738281 126.566406 40.726562 C 129.78125 40.625 132.820312 39.648438 135.488281 37.859375 C 138.148438 36.078125 140.265625 33.574219 141.585938 30.660156 C 142.394531 28.875 142.886719 26.957031 143.042969 24.984375 C 143.109375 24.183594 143.113281 23.230469 143.054688 22.394531 C 142.816406 18.808594 141.441406 15.386719 139.125 12.609375 C 137.292969 10.410156 134.960938 8.714844 132.324219 7.660156 C 130.628906 6.980469 128.855469 6.585938 127.007812 6.480469 C 126.605469 6.457031 126.222656 6.453125 123.710938 6.453125 L 121.066406 6.453125 L 121.066406 7.773438 L 122.667969 7.773438 C 124.191406 7.773438 124.273438 7.773438 124.265625 7.789062 C 124.265625 7.800781 115.136719 30.792969 114.855469 31.503906 L 114.785156 31.675781 L 110.898438 19.738281 C 108.761719 13.175781 107.007812 7.796875 107.003906 7.789062 C 107 7.773438 107.09375 7.773438 108.710938 7.773438 L 110.421875 7.773438 L 110.421875 6.453125 L 104.644531 6.457031 C 101.46875 6.457031 98.773438 6.460938 98.664062 6.464844 Z M 106.414062 23.675781 C 109.332031 32.421875 111.71875 39.585938 111.722656 39.59375 C 111.726562 39.609375 111.445312 39.609375 105.402344 39.605469 C 100.699219 39.601562 99.035156 39.601562 98.921875 39.59375 C 98.101562 39.539062 97.640625 39.488281 97.027344 39.386719 C 93.253906 38.757812 89.800781 36.835938 87.292969 33.960938 C 85.058594 31.398438 83.71875 28.230469 83.464844 24.90625 C 83.429688 24.449219 83.425781 24.308594 83.425781 23.691406 C 83.425781 22.976562 83.441406 22.632812 83.503906 22.039062 C 83.910156 18.191406 85.769531 14.601562 88.734375 11.960938 C 91.433594 9.554688 94.851562 8.097656 98.460938 7.820312 C 99 7.78125 99.175781 7.777344 100.203125 7.777344 L 101.113281 7.777344 Z M 126.136719 7.78125 C 127.332031 7.828125 128.4375 7.984375 129.574219 8.269531 C 133.222656 9.175781 136.472656 11.316406 138.722656 14.300781 C 139.570312 15.421875 140.265625 16.65625 140.78125 17.945312 C 141.382812 19.445312 141.738281 21.019531 141.847656 22.632812 C 141.894531 23.3125 141.886719 24.289062 141.835938 24.929688 C 141.722656 26.292969 141.457031 27.542969 141.019531 28.796875 C 140.0625 31.53125 138.351562 33.964844 136.0625 35.847656 C 134.871094 36.828125 133.527344 37.648438 132.097656 38.261719 C 130.628906 38.894531 129.0625 39.3125 127.460938 39.5 C 127.136719 39.535156 126.898438 39.554688 126.367188 39.59375 C 126.253906 39.601562 124.503906 39.601562 119.503906 39.605469 C 115.808594 39.605469 112.789062 39.605469 112.789062 39.601562 C 112.789062 39.601562 115.582031 32.441406 118.996094 23.695312 C 122.410156 14.949219 125.207031 7.789062 125.207031 7.785156 C 125.210938 7.769531 125.800781 7.769531 126.136719 7.78125 Z M 126.136719 7.78125 " fill-opacity="1" fill-rule="nonzero"/></g><g clip-path="url(#f64d939ba6)"><path fill="#000000" d="M 54.273438 64.78125 C 54.257812 64.828125 54.226562 64.9375 54.199219 65.023438 C 53.625 66.902344 52.988281 69.144531 51.433594 74.734375 C 49.566406 81.449219 48.714844 84.382812 47.859375 87.0625 C 47.59375 87.894531 47.160156 89.1875 47.105469 89.296875 C 47.097656 89.320312 47.0625 89.363281 47.027344 89.394531 C 46.929688 89.492188 46.769531 89.558594 46.550781 89.597656 C 46.335938 89.636719 46.253906 89.640625 45.628906 89.644531 C 45.296875 89.644531 45.011719 89.648438 44.996094 89.652344 C 44.96875 89.65625 44.96875 89.660156 44.972656 89.679688 C 44.972656 89.691406 44.984375 89.800781 44.996094 89.917969 C 45.007812 90.035156 45.023438 90.144531 45.023438 90.164062 L 45.03125 90.195312 L 48.003906 90.195312 C 49.640625 90.195312 50.980469 90.195312 50.980469 90.195312 C 50.988281 90.152344 51.039062 89.660156 51.035156 89.65625 C 51.03125 89.648438 50.460938 89.652344 49.625 89.65625 C 48.992188 89.660156 48.933594 89.65625 48.746094 89.609375 C 48.601562 89.566406 48.550781 89.535156 48.472656 89.414062 C 48.320312 89.183594 48.269531 89.019531 48.269531 88.746094 C 48.273438 88.503906 48.292969 88.382812 48.4375 87.753906 C 48.921875 85.644531 49.417969 83.789062 49.898438 82.304688 L 49.980469 82.050781 L 50.160156 82.050781 C 50.261719 82.054688 51.671875 82.066406 53.292969 82.082031 C 54.914062 82.097656 56.242188 82.109375 56.242188 82.109375 C 56.246094 82.109375 56.734375 83.804688 57.332031 85.871094 C 57.929688 87.941406 58.417969 89.640625 58.421875 89.644531 C 58.425781 89.652344 58.136719 89.65625 56.996094 89.65625 L 55.570312 89.65625 L 55.570312 90.195312 L 64.027344 90.195312 L 64.027344 89.65625 L 61.777344 89.65625 L 61.695312 89.375 C 61.558594 88.882812 54.65625 64.730469 54.648438 64.710938 C 54.644531 64.699219 54.628906 64.695312 54.472656 64.695312 L 54.296875 64.695312 Z M 54.660156 76.191406 C 55.46875 79.152344 56.136719 81.585938 56.140625 81.601562 L 56.144531 81.628906 L 50.136719 81.628906 L 50.140625 81.605469 C 50.148438 81.574219 53.128906 70.847656 53.144531 70.789062 L 53.160156 70.742188 L 53.171875 70.773438 C 53.175781 70.792969 53.847656 73.230469 54.660156 76.191406 Z M 54.660156 76.191406 " fill-opacity="1" fill-rule="nonzero"/></g><g clip-path="url(#957ecad4c9)"><path fill="#000000" d="M 187.835938 64.707031 C 187.785156 64.710938 187.703125 64.71875 187.648438 64.726562 C 187.597656 64.734375 187.488281 64.746094 187.410156 64.753906 C 187.035156 64.789062 186.761719 64.84375 186.355469 64.964844 C 184.582031 65.480469 182.9375 66.730469 181.429688 68.707031 C 181.25 68.941406 181.113281 69.132812 180.96875 69.347656 C 179.742188 71.203125 179.039062 73.515625 178.871094 76.28125 C 178.820312 77.125 178.816406 78.152344 178.863281 79.007812 C 179 81.542969 179.578125 83.644531 180.59375 85.316406 C 180.683594 85.460938 180.898438 85.792969 181.023438 85.972656 C 182.054688 87.480469 183.148438 88.613281 184.324219 89.398438 C 184.710938 89.65625 184.863281 89.738281 185.253906 89.914062 C 185.742188 90.132812 186.089844 90.253906 186.597656 90.382812 C 187.214844 90.542969 187.625 90.597656 188.222656 90.597656 C 188.601562 90.597656 188.800781 90.585938 189.144531 90.535156 C 189.507812 90.484375 189.714844 90.4375 189.984375 90.34375 C 190.070312 90.316406 190.222656 90.261719 190.324219 90.226562 C 190.425781 90.191406 190.574219 90.140625 190.648438 90.113281 C 192.304688 89.496094 193.851562 88.199219 195.273438 86.238281 C 196.082031 85.125 196.683594 83.820312 197.074219 82.324219 C 197.382812 81.148438 197.5625 79.851562 197.609375 78.410156 C 197.621094 78.085938 197.621094 77.222656 197.609375 76.910156 C 197.507812 74.09375 196.867188 71.710938 195.667969 69.6875 C 194.914062 68.421875 193.820312 67.164062 192.757812 66.335938 C 192.300781 65.984375 191.875 65.710938 191.410156 65.472656 C 190.539062 65.03125 189.683594 64.792969 188.707031 64.714844 C 188.550781 64.703125 187.953125 64.695312 187.835938 64.707031 Z M 188.609375 65.164062 C 188.960938 65.199219 189.285156 65.265625 189.558594 65.351562 C 189.941406 65.476562 190.34375 65.691406 190.707031 65.964844 C 191.527344 66.585938 192.292969 67.699219 192.988281 69.300781 C 193.5 70.472656 193.835938 72.019531 194.015625 74.050781 C 194.1875 76 194.199219 78.703125 194.046875 80.761719 C 193.882812 82.964844 193.539062 84.660156 193 85.925781 C 192.917969 86.117188 192.710938 86.53125 192.570312 86.789062 C 191.980469 87.863281 191.367188 88.648438 190.707031 89.179688 C 190.101562 89.667969 189.421875 89.9375 188.59375 90.023438 C 188.425781 90.042969 187.875 90.039062 187.707031 90.019531 C 187.273438 89.96875 186.863281 89.855469 186.445312 89.667969 C 185.476562 89.230469 184.59375 88.277344 183.757812 86.769531 C 183.484375 86.273438 183.3125 85.886719 183.132812 85.363281 C 182.644531 83.910156 182.351562 81.945312 182.257812 79.453125 C 182.234375 78.832031 182.226562 78.457031 182.226562 77.578125 C 182.226562 76.199219 182.257812 75.234375 182.34375 74.164062 C 182.539062 71.699219 182.957031 69.886719 183.628906 68.609375 C 184.390625 67.164062 185.21875 66.183594 186.113281 65.667969 C 186.371094 65.519531 186.59375 65.429688 186.941406 65.328125 C 187.300781 65.230469 187.589844 65.171875 187.878906 65.152344 C 188.023438 65.140625 188.449219 65.148438 188.609375 65.164062 Z M 188.609375 65.164062 " fill-opacity="1" fill-rule="nonzero"/></g><g clip-path="url(#6cf42bf8e1)"><path fill="#000000" d="M 26.933594 65.082031 C 26.933594 65.09375 26.945312 65.214844 26.957031 65.351562 C 26.972656 65.488281 26.984375 65.605469 26.984375 65.609375 C 26.984375 65.621094 27.226562 65.621094 28.167969 65.621094 C 29.289062 65.621094 29.351562 65.625 29.359375 65.636719 C 29.363281 65.644531 31.023438 71.257812 33.050781 78.105469 L 36.738281 90.558594 L 37.046875 90.558594 L 37.078125 90.46875 C 37.121094 90.332031 38.09375 87.152344 38.703125 85.164062 C 40.714844 78.609375 42.003906 74.5625 43.285156 70.804688 C 43.910156 68.980469 44.710938 66.71875 44.792969 66.566406 C 44.945312 66.28125 45.261719 66.054688 45.730469 65.894531 C 46.125 65.761719 46.664062 65.671875 47.238281 65.640625 C 47.335938 65.632812 47.425781 65.628906 47.4375 65.625 L 47.457031 65.621094 L 47.457031 65.0625 L 44.21875 65.0625 C 41.140625 65.0625 40.980469 65.066406 40.980469 65.078125 C 40.984375 65.136719 41.054688 65.789062 41.0625 65.792969 C 41.066406 65.796875 41.34375 65.804688 41.675781 65.804688 C 42.316406 65.8125 42.410156 65.816406 42.625 65.859375 C 42.878906 65.910156 43.050781 66.003906 43.234375 66.195312 C 43.496094 66.46875 43.632812 66.832031 43.617188 67.222656 C 43.613281 67.289062 43.605469 67.378906 43.597656 67.425781 C 43.558594 67.640625 43.035156 69.476562 42.515625 71.207031 C 41.957031 73.082031 41.488281 74.597656 40.167969 78.84375 C 39.136719 82.148438 38.800781 83.234375 38.429688 84.472656 C 38.34375 84.757812 38.269531 85 38.265625 85.007812 C 38.261719 85.019531 37.378906 81.832031 35.585938 75.332031 C 34.113281 70.003906 32.910156 65.640625 32.910156 65.636719 C 32.90625 65.628906 33.382812 65.625 34.3125 65.625 C 35.640625 65.621094 35.714844 65.621094 35.714844 65.605469 C 35.714844 65.597656 35.703125 65.480469 35.6875 65.34375 C 35.671875 65.207031 35.664062 65.089844 35.664062 65.078125 C 35.664062 65.066406 35.515625 65.0625 31.296875 65.0625 L 26.933594 65.0625 Z M 26.933594 65.082031 " fill-opacity="1" fill-rule="nonzero"/></g><g clip-path="url(#a425372d6c)"><path fill="#000000" d="M 65.378906 65.429688 L 65.378906 65.796875 L 68.328125 65.796875 L 68.328125 89.707031 L 65.34375 89.707031 L 65.34375 90.195312 L 82.941406 90.195312 L 82.941406 90.042969 C 82.941406 89.957031 82.953125 88.136719 82.96875 86 C 82.984375 83.863281 82.996094 82.113281 82.996094 82.113281 C 82.988281 82.109375 82.585938 82.164062 82.582031 82.167969 C 82.582031 82.171875 82.574219 82.425781 82.570312 82.738281 C 82.558594 83.320312 82.550781 83.519531 82.53125 83.898438 C 82.382812 86.257812 81.84375 87.675781 80.757812 88.550781 C 79.988281 89.175781 78.898438 89.53125 77.425781 89.640625 C 77.023438 89.671875 76.851562 89.675781 76.25 89.671875 C 75.117188 89.664062 73.851562 89.671875 73.210938 89.683594 C 72.871094 89.691406 72.308594 89.703125 71.964844 89.707031 L 71.339844 89.710938 L 71.339844 65.796875 L 74.324219 65.796875 L 74.324219 65.0625 L 65.378906 65.0625 Z M 65.378906 65.429688 " fill-opacity="1" fill-rule="nonzero"/></g><g clip-path="url(#7513d5bff7)"><path fill="#000000" d="M 104.484375 65.375 L 104.484375 65.6875 L 104.960938 65.679688 C 105.222656 65.679688 105.886719 65.667969 106.433594 65.660156 C 106.980469 65.652344 107.429688 65.648438 107.433594 65.652344 C 107.449219 65.667969 107.394531 77.394531 107.347656 82.789062 C 107.316406 87 107.308594 87.421875 107.28125 87.90625 C 107.222656 88.796875 107.074219 89.199219 106.714844 89.40625 C 106.457031 89.558594 106.09375 89.621094 105.328125 89.648438 C 105.121094 89.652344 104.417969 89.671875 104.355469 89.671875 C 104.339844 89.671875 104.335938 89.683594 104.335938 89.933594 L 104.335938 90.195312 L 110.867188 90.195312 L 110.867188 89.558594 L 110.792969 89.558594 C 110.691406 89.558594 110.464844 89.574219 110.074219 89.601562 C 109.417969 89.652344 109.25 89.660156 109.042969 89.648438 C 108.621094 89.621094 108.367188 89.527344 108.167969 89.316406 C 107.925781 89.070312 107.800781 88.691406 107.757812 88.089844 C 107.75 87.984375 107.75 87.332031 107.753906 85.570312 C 107.757812 83.34375 107.761719 82.65625 107.785156 78.960938 C 107.8125 74.402344 107.863281 68.0625 107.878906 67.082031 L 107.882812 66.714844 L 114.984375 78.652344 C 118.886719 85.21875 122.085938 90.59375 122.09375 90.59375 C 122.101562 90.601562 122.394531 90.582031 122.566406 90.566406 L 122.625 90.5625 L 122.625 89.019531 C 122.625 88.171875 122.621094 86.707031 122.617188 85.769531 C 122.578125 78.292969 122.578125 73.53125 122.617188 70.679688 C 122.636719 69.171875 122.671875 67.609375 122.695312 67.226562 C 122.753906 66.238281 122.996094 65.847656 123.625 65.710938 C 123.851562 65.660156 124.035156 65.652344 124.785156 65.640625 C 125.125 65.632812 125.425781 65.628906 125.453125 65.625 L 125.496094 65.621094 L 125.496094 65.363281 C 125.496094 65.222656 125.496094 65.105469 125.496094 65.105469 C 125.492188 65.105469 119.332031 65.066406 119.328125 65.066406 C 119.328125 65.066406 119.316406 65.191406 119.304688 65.34375 C 119.292969 65.492188 119.28125 65.640625 119.277344 65.667969 L 119.269531 65.722656 L 119.53125 65.714844 C 120.175781 65.703125 120.804688 65.699219 120.964844 65.707031 C 121.570312 65.746094 121.839844 65.84375 121.945312 66.0625 C 122.03125 66.238281 122.089844 66.496094 122.125 66.832031 C 122.148438 67.070312 122.15625 68.5 122.152344 72.113281 C 122.148438 73.964844 122.140625 76.480469 122.136719 77.703125 C 122.132812 78.929688 122.128906 80.84375 122.125 81.964844 C 122.125 83.085938 122.121094 83.996094 122.117188 83.992188 C 122.117188 83.988281 119.574219 79.746094 116.472656 74.5625 C 113.371094 69.378906 110.824219 65.128906 110.820312 65.121094 C 110.804688 65.101562 110.757812 65.101562 108.390625 65.089844 C 107.0625 65.082031 105.640625 65.074219 105.230469 65.070312 L 104.484375 65.0625 Z M 104.484375 65.375 " fill-opacity="1" fill-rule="nonzero"/></g><g clip-path="url(#a1b5250d20)"><path fill="#000000" d="M 126.769531 65.179688 C 126.769531 65.242188 126.761719 66.894531 126.75 68.847656 C 126.738281 70.804688 126.734375 72.40625 126.738281 72.410156 C 126.738281 72.410156 126.832031 72.402344 126.945312 72.386719 C 127.054688 72.371094 127.148438 72.359375 127.152344 72.359375 C 127.152344 72.359375 127.160156 72.328125 127.164062 72.292969 C 127.164062 72.253906 127.179688 72.101562 127.191406 71.953125 C 127.203125 71.804688 127.234375 71.378906 127.257812 71.007812 C 127.332031 70 127.367188 69.617188 127.417969 69.238281 C 127.546875 68.285156 127.761719 67.671875 128.144531 67.152344 C 128.433594 66.765625 128.796875 66.5 129.347656 66.277344 C 130.089844 65.980469 131.054688 65.816406 132.464844 65.75 C 132.734375 65.738281 134.230469 65.734375 134.242188 65.746094 C 134.246094 65.753906 134.210938 82.3125 134.195312 87.902344 L 134.191406 89.671875 L 131.164062 89.671875 L 131.164062 90.214844 L 140.257812 90.214844 L 140.257812 89.671875 L 140.226562 89.671875 C 140.054688 89.671875 137.296875 89.613281 137.296875 89.609375 C 137.292969 89.609375 137.347656 66.808594 137.351562 65.757812 L 137.351562 65.683594 L 137.5 65.683594 C 137.777344 65.683594 138.320312 65.703125 138.675781 65.726562 C 140.4375 65.84375 141.921875 66.164062 142.757812 66.605469 C 143.164062 66.820312 143.417969 67.046875 143.648438 67.390625 C 143.824219 67.660156 143.964844 67.996094 144.066406 68.394531 C 144.210938 68.980469 144.273438 69.503906 144.402344 71.199219 C 144.429688 71.578125 144.464844 72.023438 144.476562 72.183594 L 144.5 72.472656 L 144.988281 72.472656 L 144.980469 72.171875 C 144.976562 71.890625 144.890625 65.25 144.890625 65.125 L 144.890625 65.0625 L 126.769531 65.0625 Z M 126.769531 65.179688 " fill-opacity="1" fill-rule="nonzero"/></g><g clip-path="url(#0947f06571)"><path fill="#000000" d="M 146.664062 65.429688 L 146.664062 65.796875 L 149.257812 65.796875 L 149.257812 89.613281 L 147.875 89.613281 L 146.488281 89.617188 L 146.484375 89.914062 L 146.484375 90.214844 L 154.828125 90.214844 L 154.828125 89.613281 L 152.289062 89.613281 L 152.289062 65.796875 L 154.953125 65.796875 L 154.953125 65.0625 L 146.664062 65.0625 Z M 146.664062 65.429688 " fill-opacity="1" fill-rule="nonzero"/></g><g clip-path="url(#bd093ab782)"><path fill="#000000" d="M 156.183594 65.089844 C 156.179688 65.089844 156.179688 65.226562 156.179688 65.390625 L 156.179688 65.6875 L 157.324219 65.679688 C 157.957031 65.675781 158.621094 65.671875 158.800781 65.667969 L 159.128906 65.664062 L 159.128906 66.304688 C 159.128906 68.96875 159.074219 78.945312 159.035156 83.953125 C 159.027344 84.53125 159.019531 85.503906 159.015625 86.109375 C 159.007812 87.4375 158.996094 87.796875 158.957031 88.179688 C 158.878906 89.011719 158.679688 89.351562 158.171875 89.511719 C 157.894531 89.597656 157.539062 89.632812 156.730469 89.65625 C 156.539062 89.660156 156.304688 89.667969 156.207031 89.667969 L 156.03125 89.675781 L 156.03125 90.195312 L 162.558594 90.195312 L 162.558594 89.558594 L 162.484375 89.558594 C 162.382812 89.558594 162.160156 89.574219 161.765625 89.601562 C 161.109375 89.652344 160.945312 89.660156 160.734375 89.648438 C 160.390625 89.625 160.152344 89.554688 159.972656 89.417969 C 159.660156 89.183594 159.496094 88.769531 159.449219 88.074219 C 159.4375 87.90625 159.445312 84.566406 159.460938 81.894531 C 159.492188 76.304688 159.535156 70.710938 159.566406 67.648438 C 159.570312 67.136719 159.574219 66.71875 159.574219 66.714844 C 159.578125 66.714844 162.773438 72.085938 166.675781 78.652344 C 170.578125 85.21875 173.777344 90.59375 173.785156 90.59375 C 173.796875 90.601562 174.085938 90.582031 174.261719 90.566406 L 174.316406 90.5625 L 174.316406 88.957031 C 174.316406 88.078125 174.3125 86.25 174.304688 84.894531 C 174.285156 81.472656 174.277344 74.355469 174.292969 72.667969 C 174.308594 70.277344 174.339844 68.324219 174.378906 67.445312 C 174.425781 66.375 174.628906 65.929688 175.160156 65.757812 C 175.417969 65.671875 175.761719 65.648438 176.695312 65.648438 L 177.191406 65.648438 L 177.191406 65.125 L 176.796875 65.121094 C 176.582031 65.117188 175.359375 65.109375 174.085938 65.101562 C 172.8125 65.097656 171.605469 65.089844 171.398438 65.089844 L 171.023438 65.085938 L 170.996094 65.402344 C 170.980469 65.578125 170.96875 65.722656 170.96875 65.726562 C 170.972656 65.726562 171.25 65.722656 171.585938 65.71875 C 172.40625 65.707031 172.785156 65.71875 173.085938 65.773438 C 173.402344 65.835938 173.5625 65.921875 173.636719 66.078125 C 173.738281 66.285156 173.800781 66.601562 173.832031 67.042969 C 173.847656 67.265625 173.847656 73.5625 173.832031 77.625 C 173.824219 79.300781 173.820312 81.421875 173.820312 82.335938 C 173.820312 83.25 173.816406 83.996094 173.8125 83.992188 C 173.808594 83.988281 171.269531 79.75 168.167969 74.570312 C 165.0625 69.390625 162.519531 65.148438 162.511719 65.140625 C 162.503906 65.125 162.371094 65.121094 159.84375 65.105469 C 158.382812 65.097656 156.960938 65.089844 156.6875 65.085938 C 156.414062 65.085938 156.1875 65.085938 156.183594 65.089844 Z M 156.183594 65.089844 " fill-opacity="1" fill-rule="nonzero"/></g><g clip-path="url(#dbbd5125c9)"><path fill="#000000" d="M 85.003906 65.507812 L 85.003906 65.875 L 87.582031 65.875 L 87.582031 89.691406 L 85.003906 89.691406 L 85.003906 89.707031 C 85.003906 89.71875 85.019531 89.828125 85.03125 89.949219 C 85.046875 90.070312 85.058594 90.179688 85.058594 90.183594 C 85.058594 90.195312 86.34375 90.195312 93.667969 90.195312 L 102.273438 90.195312 L 102.273438 89.976562 C 102.273438 89.855469 102.28125 88.28125 102.292969 86.476562 C 102.300781 84.671875 102.308594 83.195312 102.308594 83.195312 C 102.304688 83.191406 101.742188 83.152344 101.738281 83.15625 C 101.738281 83.15625 101.730469 83.359375 101.726562 83.605469 C 101.714844 84.167969 101.699219 84.449219 101.664062 84.863281 C 101.546875 86.222656 101.265625 87.195312 100.808594 87.816406 C 100.71875 87.9375 100.523438 88.140625 100.382812 88.265625 C 99.484375 89.042969 98.105469 89.507812 96.167969 89.691406 C 95.800781 89.722656 95.40625 89.75 94.898438 89.769531 C 94.550781 89.785156 92.855469 89.785156 92.285156 89.769531 C 92.0625 89.765625 91.609375 89.757812 91.285156 89.753906 C 90.957031 89.75 90.691406 89.75 90.691406 89.75 C 90.6875 89.742188 90.632812 77.894531 90.632812 77.894531 C 90.632812 77.890625 91.117188 77.878906 91.703125 77.859375 C 92.421875 77.839844 92.835938 77.832031 92.964844 77.835938 C 93.914062 77.859375 94.894531 78.195312 95.386719 78.660156 C 95.519531 78.789062 95.632812 78.953125 95.765625 79.203125 C 95.933594 79.535156 96.039062 79.875 96.085938 80.277344 C 96.121094 80.558594 96.125 80.683594 96.121094 81.347656 C 96.121094 81.8125 96.125 82.011719 96.132812 82.066406 L 96.144531 82.144531 L 96.449219 82.148438 L 96.757812 82.152344 L 96.757812 81.832031 C 96.757812 81.652344 96.742188 79.660156 96.730469 77.402344 C 96.714844 75.144531 96.703125 73.1875 96.703125 73.050781 L 96.703125 72.804688 L 96.261719 72.804688 L 96.257812 72.859375 C 96.253906 72.890625 96.246094 73.003906 96.242188 73.113281 C 96.171875 74.601562 96.054688 75.371094 95.824219 75.898438 C 95.703125 76.171875 95.546875 76.363281 95.296875 76.554688 C 94.84375 76.902344 94.089844 77.191406 93.410156 77.285156 C 93.25 77.304688 92.820312 77.332031 92.347656 77.351562 C 92.078125 77.359375 90.636719 77.390625 90.632812 77.386719 C 90.628906 77.378906 90.6875 65.945312 90.691406 65.9375 C 90.695312 65.933594 95.71875 65.996094 95.792969 66.003906 C 95.820312 66.003906 95.910156 66.007812 96 66.015625 C 97.183594 66.085938 98.179688 66.378906 98.871094 66.867188 C 99.167969 67.074219 99.394531 67.296875 99.621094 67.597656 C 99.847656 67.902344 100.027344 68.183594 100.160156 68.449219 C 100.457031 69.046875 100.585938 69.597656 100.765625 71.039062 C 100.789062 71.21875 100.804688 71.371094 100.808594 71.371094 C 100.808594 71.375 101.203125 71.429688 101.207031 71.425781 C 101.210938 71.421875 100.789062 65.160156 100.785156 65.144531 C 100.785156 65.144531 97.234375 65.140625 92.894531 65.140625 L 85.003906 65.140625 Z M 85.003906 65.507812 " fill-opacity="1" fill-rule="nonzero"/></g></svg>